<?xml version="1.0" standalone="no"?>
<!DOCTYPE svg PUBLIC "-//W3C//DTD SVG 1.1//EN" "http://www.w3.org/Graphics/SVG/1.1/DTD/svg11.dtd" >
<svg xmlns="http://www.w3.org/2000/svg" xmlns:xlink="http://www.w3.org/1999/xlink" version="1.1">
<metadata>
Created by FontForge 20170731 at Tue Feb  9 23:13:20 2021
 By Aleksey,,,
(c)2018, McDonalds Corporation. All rights reserved.
</metadata>
<defs>
<font id="Speedee-Regular" horiz-adv-x="0" >
  <font-face 
    font-family="Speedee Regular"
    font-weight="400"
    font-stretch="normal"
    units-per-em="2048"
    panose-1="2 11 6 3 3 5 2 2 2 4"
    ascent="1434"
    descent="-614"
    x-height="1020"
    cap-height="1372"
    bbox="-688 -633 2531 1972"
    underline-thickness="81"
    underline-position="-376"
    unicode-range="U+000D-FB04"
  />
<missing-glyph horiz-adv-x="1024" 
d="M915 1372v-1372h-809v1372h809zM195 78h632v1216h-632v-1216z" />
    <glyph glyph-name="f_f" unicode="ff" horiz-adv-x="1361" 
d="M31 889v131h159v39q0 195 87 299q85 102 255 102q104 0 189 -45l-33 -117q-64 27 -131 27q-182 0 -182 -244v-61h473v39q0 195 87 299q85 102 257 102q100 0 186 -45l-30 -117q-68 27 -131 27q-185 0 -185 -244v-61h295v-131h-295v-889h-184v889h-473v-889h-185v889h-159
z" />
    <glyph glyph-name="f_f_i" unicode="ffi" horiz-adv-x="1841" 
d="M31 889v131h159v39q0 195 87 299q85 102 255 102q104 0 189 -45l-33 -117q-64 27 -131 27q-182 0 -182 -244v-61h471v39q0 195 87 299q85 102 257 102q78 0 166 -35l-33 -120q-54 20 -109 20q-184 0 -184 -244v-61h283v-131h-283v-889h-184v889h-471v-889h-185v889h-159z
M1477 1311q0 49 34 82q34 32 84 32t85 -32q34 -33 34 -82q0 -50 -34 -83q-34 -34 -85 -34t-84 33q-34 33 -34 84zM1503 0v1020h185v-1020h-185z" />
    <glyph glyph-name="f_f_l" unicode="ffl" horiz-adv-x="1830" 
d="M31 889v131h159v39q0 195 87 299q85 102 255 102q104 0 189 -45l-33 -117q-64 27 -131 27q-182 0 -182 -244v-61h471v39q0 195 87 299q85 102 257 102q78 0 166 -35l-33 -120q-54 20 -109 20q-184 0 -184 -244v-61h283v-131h-283v-889h-184v889h-471v-889h-185v889h-159z
M1495 0v1434h184v-1434h-184z" />
    <glyph glyph-name="f_i" unicode="fi" horiz-adv-x="1185" 
d="M31 889v131h159v39q0 195 87 299q85 102 255 102q80 0 168 -35l-32 -120q-54 20 -111 20q-182 0 -182 -244v-61h282v-131h-282v-889h-185v889h-159zM821 1311q0 49 34 82q35 32 85 32t85 -32q34 -33 34 -82q0 -50 -34 -83q-34 -34 -85 -34q-50 0 -85 33q-34 33 -34 84z
M848 0v1020h184v-1020h-184z" />
    <glyph glyph-name="f_l" unicode="fl" horiz-adv-x="1175" 
d="M31 889v131h159v39q0 195 87 299q85 102 255 102q80 0 168 -35l-32 -120q-54 20 -111 20q-182 0 -182 -244v-61h282v-131h-282v-889h-185v889h-159zM840 0v1434h184v-1434h-184z" />
    <glyph glyph-name=".notdef" horiz-adv-x="1024" 
d="M915 1372v-1372h-809v1372h809zM195 78h632v1216h-632v-1216z" />
    <glyph glyph-name="uni0000" 
 />
    <glyph glyph-name="uni000D" horiz-adv-x="409" 
 />
    <glyph glyph-name="uni000D" horiz-adv-x="409" 
 />
    <glyph glyph-name="CR" unicode="&#xd;" horiz-adv-x="512" 
 />
    <glyph glyph-name="space" unicode=" " horiz-adv-x="409" 
 />
    <glyph glyph-name="exclam" unicode="!" horiz-adv-x="473" 
d="M307 371h-137l-31 999h197zM238 -20q-54 0 -88 35q-35 35 -35 85q0 52 35 87q34 34 88 34q53 0 87 -34q33 -35 33 -87q0 -51 -34 -85q-34 -35 -86 -35z" />
    <glyph glyph-name="quotedbl" unicode="&#x22;" horiz-adv-x="870" 
d="M326 954h-97q-39 204 -39 367v113h175v-113q0 -190 -39 -367zM641 954h-96q-39 204 -39 367v113h174v-113q0 -190 -39 -367z" />
    <glyph glyph-name="numbersign" unicode="#" horiz-adv-x="1208" 
d="M326 0h-158l63 367h-186v141h211l61 356h-208v142h233l57 333h158l-57 -333h317l57 333h158l-57 -333h188v-142h-213l-61 -356h215v-141h-240l-63 -367h-158l64 367h-318zM475 864l-61 -356h317l62 356h-318z" />
    <glyph glyph-name="dollar" unicode="$" horiz-adv-x="1208" 
d="M657 -213h-112v207q-204 16 -323 119q-119 102 -138 274h188q42 -229 277 -260v483l-88 19q-163 35 -250 122q-90 89 -90 232q0 169 115 266q115 99 309 109v207h112v-207q374 -35 426 -406h-188q-40 241 -242 271v-461l95 -21q186 -42 275 -128q87 -86 87 -238
q0 -172 -118 -272t-335 -111v-205zM528 788l21 -4v445q-114 -7 -179 -65q-65 -57 -65 -160q0 -86 53 -139t170 -77zM684 584l-31 6v-467q132 6 203 68q70 61 70 167q0 93 -59 147q-58 53 -183 79z" />
    <glyph glyph-name="percent" unicode="%" horiz-adv-x="1861" 
d="M391 528q-158 0 -237 112q-80 113 -80 310t80 310q79 112 237 112q157 0 236 -112q80 -113 80 -310q0 -196 -80 -309t-236 -113zM391 639q164 0 164 311q0 312 -164 312t-164 -312q0 -156 40 -233q39 -78 124 -78zM670 0h-164l688 1352h164zM1468 -20q-158 0 -237 112
q-80 112 -80 309t80 310q79 112 237 112q157 0 236 -112q80 -113 80 -310q0 -196 -80 -309q-79 -112 -236 -112zM1468 90q164 0 164 311q0 312 -164 312q-85 0 -124 -78t-39 -234q0 -155 39 -233t124 -78z" />
    <glyph glyph-name="ampersand" unicode="&#x26;" horiz-adv-x="1443" 
d="M1067 678h172q-3 -297 -164 -488q62 -47 135 -47q58 0 101 15l22 -138q-52 -26 -139 -26q-114 0 -231 96q-160 -110 -385 -110q-209 0 -333 106q-124 105 -124 283q0 255 274 376q-74 94 -108 169q-35 78 -35 153q0 132 96 219q95 86 248 86q146 0 241 -83
q95 -84 95 -210q0 -118 -76 -203t-242 -153l267 -330q56 -70 84 -98q93 137 102 383zM422 1077q0 -66 26 -123q25 -56 89 -135q125 56 175 115t50 143q0 78 -46 124t-124 46q-77 0 -123 -46q-47 -47 -47 -124zM317 379q0 -111 81 -185q81 -75 212 -75q149 0 250 69l-92 107
l-293 352q-158 -95 -158 -268z" />
    <glyph glyph-name="quotesingle" unicode="'" horiz-adv-x="552" 
d="M326 954h-97q-39 204 -39 367v113h175v-113q0 -190 -39 -367z" />
    <glyph glyph-name="parenleft" unicode="(" horiz-adv-x="608" 
d="M565 -205h-143q-289 371 -289 840q0 475 289 840h143q-126 -183 -189 -401q-63 -219 -63 -439q0 -218 63 -434q61 -217 189 -406z" />
    <glyph glyph-name="parenright" unicode=")" horiz-adv-x="608" 
d="M186 -205h-143q127 182 188 401q62 219 62 439q0 217 -62 435q-61 215 -188 405h143q289 -376 289 -840q0 -470 -289 -840z" />
    <glyph glyph-name="asterisk" unicode="*" horiz-adv-x="739" 
d="M297 1430h143q-10 -145 -37 -297q142 69 273 127l45 -138q-98 -28 -293 -59q103 -103 203 -217l-117 -84q-63 101 -145 260q-67 -133 -144 -260l-119 84q55 68 203 217q-201 33 -291 59l43 138q131 -58 273 -127q-28 170 -37 297z" />
    <glyph glyph-name="plus" unicode="+" horiz-adv-x="1208" 
d="M170 606v139h362v373h144v-373h362v-139h-362v-375h-144v375h-362z" />
    <glyph glyph-name="comma" unicode="," horiz-adv-x="450" 
d="M76 -262v88q66 20 105 62q40 44 50 98h-4q-55 0 -89 33t-34 85q0 57 34 90q33 33 93 33q59 0 95 -44q36 -43 36 -126q0 -117 -72 -203q-71 -84 -214 -116z" />
    <glyph glyph-name="hyphen" unicode="-" horiz-adv-x="784" 
d="M692 420h-600v149h600v-149z" />
    <glyph glyph-name="period" unicode="." horiz-adv-x="450" 
d="M225 -14q-54 0 -88 35q-35 35 -35 85q0 53 35 88q35 33 88 33t88 -33q33 -34 33 -88q0 -50 -35 -85q-34 -35 -86 -35z" />
    <glyph glyph-name="slash" unicode="/" horiz-adv-x="667" 
d="M178 -215h-168l482 1618h167z" />
    <glyph glyph-name="zero" unicode="0" horiz-adv-x="1134" 
d="M567 -33q-248 0 -373 188q-126 187 -126 515t126 515q124 187 373 187q248 0 374 -187t126 -515t-126 -515q-126 -188 -374 -188zM567 113q303 0 303 557t-303 557t-303 -557t303 -557z" />
    <glyph glyph-name="one" unicode="1" horiz-adv-x="796" 
d="M47 981v156q110 25 223 78q112 53 189 124h145v-1339h-188v1106q-201 -100 -369 -125z" />
    <glyph glyph-name="two" unicode="2" horiz-adv-x="1097" 
d="M1026 0h-938v39q0 159 71 275q70 114 226 216l233 158q106 72 150 141q43 67 43 164q0 108 -68 173q-67 63 -186 63q-267 0 -291 -311h-186q12 213 142 334q130 120 345 120q196 0 317 -103q122 -104 122 -270q0 -129 -61 -224q-62 -97 -197 -189l-240 -164
q-111 -75 -155 -134q-48 -63 -52 -136h725v-152z" />
    <glyph glyph-name="three" unicode="3" horiz-adv-x="1103" 
d="M563 -33q-223 0 -358 114q-135 113 -152 314h187q14 -144 101 -214q87 -72 224 -72q135 0 211 66q76 64 76 190q0 129 -91 205q-91 75 -294 75h-37v131h37q100 0 172 20q71 20 106 53q36 33 51 70q15 36 15 80q0 113 -68 173q-68 59 -184 59q-121 0 -192 -62
q-72 -63 -86 -176h-185q15 174 142 277q126 102 327 102q195 0 316 -96q123 -94 123 -264q0 -102 -57 -182t-183 -121q76 -21 132 -57q57 -38 87 -83q32 -47 45 -95q14 -51 14 -105q0 -184 -130 -293t-349 -109z" />
    <glyph glyph-name="four" unicode="4" horiz-adv-x="1128" 
d="M702 289h-655v141l664 909h170v-901h206v-149h-206v-289h-179v289zM702 1104l-481 -666h481v666z" />
    <glyph glyph-name="five" unicode="5" horiz-adv-x="1079" 
d="M266 571h-147l53 768h789v-151h-633l-31 -416q114 117 289 117q198 0 318 -126t120 -327q0 -219 -133 -343q-133 -126 -361 -126q-195 0 -320 100q-126 101 -144 277h186q20 -116 96 -174q76 -59 193 -59q133 0 210 81q76 79 76 232q0 156 -76 242q-77 86 -200 86
q-96 0 -173 -47q-78 -49 -112 -134z" />
    <glyph glyph-name="six" unicode="6" horiz-adv-x="1099" 
d="M567 -33q-245 0 -372 174q-127 172 -127 510q0 129 18 239q18 109 58 199q39 91 99 152q59 62 145 97q84 34 194 34q170 0 288 -92q117 -94 142 -260h-197q-19 104 -85 161q-66 54 -161 54q-153 0 -230 -134q-77 -133 -85 -419q53 89 149 137q97 47 201 47
q197 0 317 -120q119 -122 119 -324q0 -208 -129 -331q-130 -124 -344 -124zM561 106q136 0 214 80q77 80 77 230q0 154 -75 233q-75 80 -210 80q-134 0 -215 -84q-82 -83 -82 -223q0 -149 80 -232q79 -84 211 -84z" />
    <glyph glyph-name="seven" unicode="7" horiz-adv-x="989" 
d="M776 1188h-745v151h921v-151q-225 -297 -360 -588q-128 -278 -168 -600h-195q53 334 180 609q128 275 367 579z" />
    <glyph glyph-name="eight" unicode="8" horiz-adv-x="1138" 
d="M569 -33q-229 0 -368 108q-140 108 -140 292q0 120 74 211q73 89 205 133q-110 39 -170 119q-61 79 -61 188q0 160 126 258q125 96 334 96t335 -96q126 -98 126 -258q0 -108 -60 -188q-62 -80 -171 -119q132 -44 205 -132q73 -89 73 -212q0 -184 -140 -292
q-139 -108 -368 -108zM569 770q124 0 198 62q73 61 73 176t-73 176t-198 61q-124 0 -197 -61t-73 -176t73 -176q74 -62 197 -62zM569 100q139 0 224 70q84 70 84 205q0 128 -85 200q-86 72 -223 72t-222 -72t-85 -200q0 -135 84 -205q83 -70 223 -70z" />
    <glyph glyph-name="nine" unicode="9" horiz-adv-x="1093" 
d="M535 1372q230 0 361 -164q130 -164 130 -503q0 -165 -30 -298q-32 -135 -92 -232q-61 -99 -161 -154q-99 -54 -229 -54q-168 0 -284 93q-116 92 -142 259h197q20 -107 83 -161q62 -54 158 -54q297 0 312 549q-49 -87 -142 -133q-96 -47 -202 -47q-199 0 -319 121
q-120 122 -120 324q0 208 132 331t348 123zM539 1233q-139 0 -215 -79q-78 -80 -78 -230q0 -154 75 -233q73 -81 207 -81q132 0 215 83q82 82 82 216q0 152 -80 238t-206 86z" />
    <glyph glyph-name="colon" unicode=":" horiz-adv-x="450" 
d="M225 -14q-54 0 -88 35q-35 35 -35 85q0 53 35 88q35 33 88 33t88 -33q33 -34 33 -88q0 -50 -35 -85q-34 -35 -86 -35zM225 778q-53 0 -88 35t-35 86q0 53 35 88q34 33 88 33q53 0 88 -33q33 -35 33 -88q0 -51 -35 -86t-86 -35z" />
    <glyph glyph-name="semicolon" unicode=";" horiz-adv-x="450" 
d="M76 -262v88q66 20 105 62q40 44 50 98h-4q-55 0 -89 33t-34 85q0 57 34 90q33 33 93 33q59 0 95 -44q36 -43 36 -126q0 -117 -72 -203q-71 -84 -214 -116zM225 778q-53 0 -88 35t-35 86q0 53 35 88q34 33 88 33q53 0 88 -33q33 -35 33 -88q0 -51 -35 -86t-86 -35z" />
    <glyph glyph-name="less" unicode="&#x3c;" horiz-adv-x="1208" 
d="M1018 385v-149l-866 370v139l866 371v-149l-705 -291z" />
    <glyph glyph-name="equal" unicode="=" horiz-adv-x="1208" 
d="M1038 801h-868v139h868v-139zM1038 371h-868v139h868v-139z" />
    <glyph glyph-name="greater" unicode="&#x3e;" horiz-adv-x="1208" 
d="M1057 606l-867 -370v149l705 291l-705 291v149l867 -371v-139z" />
    <glyph glyph-name="question" unicode="?" horiz-adv-x="929" 
d="M195 983h-183q10 192 134 308q121 114 325 114q192 0 310 -97t118 -255q0 -108 -43 -184q-45 -80 -137 -152l-123 -96q-60 -48 -82 -94q-22 -43 -22 -113v-43h-170v59q0 92 33 155t118 130l121 98q58 48 88 106q27 55 27 130q0 95 -66 155q-67 60 -176 60
q-119 0 -190 -72q-72 -73 -82 -209zM408 -20q-54 0 -88 35q-35 35 -35 85q0 52 35 87q34 34 88 34q51 0 86 -35q34 -34 34 -86q0 -51 -34 -85q-34 -35 -86 -35z" />
    <glyph glyph-name="at" unicode="@" horiz-adv-x="1931" 
d="M971 -348q-267 0 -466 109t-306 308t-107 459q0 188 63 350q61 161 176 279q112 116 279 184q165 66 363 66q206 0 377 -62q170 -63 280 -172q112 -110 171 -254q59 -147 59 -313q0 -251 -108 -397t-306 -146q-201 0 -234 181q-49 -77 -134 -121q-85 -43 -183 -43
q-174 0 -277 121q-104 122 -104 309q0 189 107 311q106 121 280 121q95 0 174 -41q78 -43 125 -115l8 142h156v-613q0 -67 27 -99q26 -32 86 -32q101 0 174 109t73 313q0 138 -48 260q-50 123 -140 216t-237 149q-144 55 -326 55q-222 0 -392 -100q-173 -101 -264 -272
q-92 -173 -92 -386q0 -224 99 -396t269 -264q169 -91 380 -91q127 0 236 23q104 22 227 77l37 -117q-125 -58 -241 -83t-261 -25zM932 209q114 0 190 85q76 83 76 202v30q0 116 -74 202q-73 85 -188 85q-113 0 -180 -85q-68 -86 -68 -218q0 -130 67 -215q68 -86 177 -86z
" />
    <glyph glyph-name="A" unicode="A" horiz-adv-x="1306" 
d="M1262 0h-199l-113 328h-600l-114 -328h-191l508 1372h203zM651 1190l-250 -715h498z" />
    <glyph glyph-name="B" unicode="B" horiz-adv-x="1265" 
d="M668 0h-492v1372h457q127 0 222 -27q95 -29 149 -77q54 -50 80 -110q26 -61 26 -132q0 -108 -63 -190q-65 -83 -199 -119q164 -35 246 -120q82 -86 82 -212q0 -80 -29 -149q-30 -69 -89 -122q-60 -54 -159 -84q-101 -30 -231 -30zM610 1235h-248v-465h222q93 0 162 20
q67 19 102 56q36 37 50 76q15 41 15 88q0 106 -73 166q-74 59 -230 59zM586 639h-224v-502h277q97 0 166 21q68 21 104 59q36 37 51 80q15 42 15 94q0 58 -19 100q-20 43 -63 78q-43 34 -120 52q-78 18 -187 18z" />
    <glyph glyph-name="C" unicode="C" horiz-adv-x="1413" 
d="M735 -33q-196 0 -340 92q-145 91 -220 253t-75 374q0 208 75 372q75 162 220 255q146 92 340 92q239 0 397 -132q158 -134 201 -364h-207q-34 164 -137 256q-102 90 -254 90q-204 0 -317 -155q-113 -152 -113 -414q0 -261 113 -416q114 -153 317 -153q150 0 252 87
q103 88 137 247h205q-37 -223 -197 -354q-158 -130 -397 -130z" />
    <glyph glyph-name="D" unicode="D" horiz-adv-x="1437" 
d="M602 0h-426v1372h424q183 0 324 -52q142 -52 232 -145q91 -94 137 -217t46 -272t-46 -272q-47 -125 -137 -217q-90 -93 -232 -145q-141 -52 -322 -52zM600 1229h-238v-1084h238q267 0 400 144q133 142 133 397q0 258 -131 401q-130 142 -402 142z" />
    <glyph glyph-name="E" unicode="E" horiz-adv-x="1144" 
d="M1044 0h-868v1372h860v-149h-665v-461h602v-144h-602v-468h673v-150z" />
    <glyph glyph-name="F" unicode="F" horiz-adv-x="1130" 
d="M371 0h-195v1372h875v-149h-680v-490h587v-143h-587v-590z" />
    <glyph glyph-name="G" unicode="G" horiz-adv-x="1470" 
d="M100 686q0 158 46 290q45 133 129 227q83 95 206 149q123 53 271 53q244 0 404 -127q159 -127 196 -350h-207q-31 159 -132 245q-102 84 -261 84q-205 0 -327 -155q-122 -157 -122 -416q0 -258 122 -415q121 -156 327 -156q191 0 302 111q112 112 128 315h-377v145h565
v-61q0 -145 -39 -263q-41 -121 -116 -208q-77 -89 -194 -138t-269 -49q-200 0 -349 93q-150 92 -226 255q-77 163 -77 371z" />
    <glyph glyph-name="H" unicode="H" horiz-adv-x="1433" 
d="M371 0h-195v1372h195v-606h692v606h194v-1372h-194v616h-692v-616z" />
    <glyph glyph-name="I" unicode="I" horiz-adv-x="546" 
d="M371 0h-195v1372h195v-1372z" />
    <glyph glyph-name="J" unicode="J" horiz-adv-x="1187" 
d="M545 -33q-216 0 -343 133q-129 133 -145 371h193q24 -354 295 -354q151 0 225 98q72 97 72 301v856h194v-844q0 -272 -126 -416q-127 -145 -365 -145z" />
    <glyph glyph-name="K" unicode="K" horiz-adv-x="1263" 
d="M371 0h-195v1372h195v-629l604 629h233l-659 -672q200 -60 360 -206q213 -193 322 -494h-221q-77 233 -244 397q-183 180 -395 205v-602z" />
    <glyph glyph-name="L" unicode="L" horiz-adv-x="1067" 
d="M1008 0h-832v1372h195v-1222h637v-150z" />
    <glyph glyph-name="M" unicode="M" horiz-adv-x="1675" 
d="M279 0h-187l170 1372h205l371 -1005l368 1005h207l172 -1372h-190l-131 1100l-355 -987h-147l-356 979z" />
    <glyph glyph-name="N" unicode="N" horiz-adv-x="1441" 
d="M362 0h-186v1372h186l717 -1073v1073h187v-1372h-185l-719 1077v-1077z" />
    <glyph glyph-name="O" unicode="O" horiz-adv-x="1499" 
d="M750 -33q-153 0 -276 54q-124 54 -205 150q-81 94 -125 228q-44 132 -44 287q0 154 44 288q44 133 125 227q81 96 205 150q123 54 276 54q204 0 352 -94t223 -255q74 -162 74 -370t-74 -370q-75 -161 -223 -255t-352 -94zM750 117q213 0 328 154q116 154 116 415
q0 260 -116 415q-115 154 -328 154t-328 -154q-117 -155 -117 -415q0 -262 117 -415q115 -154 328 -154z" />
    <glyph glyph-name="P" unicode="P" horiz-adv-x="1206" 
d="M621 535h-250v-535h-195v1372h481q231 0 352 -111t121 -296q0 -202 -126 -316t-383 -114zM627 1235h-256v-561h256q154 0 230 73q77 74 77 209t-77 207t-230 72z" />
    <glyph glyph-name="Q" unicode="Q" horiz-adv-x="1499" 
d="M768 -33h-18q-204 0 -352 94q-150 94 -223 255q-75 161 -75 370q0 154 44 288q44 133 125 227q81 96 205 150q123 54 276 54q203 0 351 -94t223 -255q75 -162 75 -370q0 -265 -122 -452q-123 -186 -343 -244q130 -84 395 -84v-182q-226 12 -354 70q-131 59 -207 173z
M750 117q213 0 328 154q116 154 116 415q0 260 -116 415q-115 154 -328 154t-328 -154q-117 -155 -117 -415q0 -262 117 -415q115 -154 328 -154z" />
    <glyph glyph-name="R" unicode="R" horiz-adv-x="1269" 
d="M371 0h-195v1372h471q247 0 375 -105q127 -105 127 -276q0 -157 -106 -251t-295 -115q162 -55 278 -209q114 -151 188 -416h-208q-80 305 -221 446q-140 138 -361 138h-53v-584zM608 1235h-237v-520h219q177 0 269 68q91 67 91 194q0 258 -342 258z" />
    <glyph glyph-name="S" unicode="S" horiz-adv-x="1210" 
d="M612 -33q-242 0 -382 108q-141 109 -160 306h194q13 -76 48 -130q34 -55 84 -85q48 -29 105 -43q58 -14 120 -14q147 0 229 64t82 169q0 99 -59 161q-58 59 -187 91l-235 57q-163 41 -248 127q-86 88 -86 252q0 168 135 272q133 103 348 103q218 0 345 -105
q127 -106 157 -303h-193q-47 267 -315 267q-130 0 -207 -59q-78 -59 -78 -161q0 -98 49 -147q48 -51 160 -78l230 -55q199 -48 289 -142q89 -95 89 -262q0 -182 -136 -287q-136 -106 -378 -106z" />
    <glyph glyph-name="T" unicode="T" horiz-adv-x="1193" 
d="M694 0h-194v1223h-455v149h1104v-149h-455v-1223z" />
    <glyph glyph-name="U" unicode="U" horiz-adv-x="1388" 
d="M694 -33q-261 0 -402 148q-142 148 -142 409v848h194v-858q0 -190 91 -293q90 -104 259 -104q170 0 260 104q90 103 90 293v858h195v-848q0 -258 -143 -407q-141 -150 -402 -150z" />
    <glyph glyph-name="V" unicode="V" horiz-adv-x="1277" 
d="M45 1372h203l393 -1171l399 1171h193l-496 -1372h-200z" />
    <glyph glyph-name="W" unicode="W" horiz-adv-x="1871" 
d="M631 0h-211l-367 1372h201l289 -1130l315 1130h166l315 -1134l291 1134h189l-367 -1372h-211l-303 1094z" />
    <glyph glyph-name="X" unicode="X" horiz-adv-x="1255" 
d="M66 1372h215l350 -532l358 532h209l-461 -667l482 -705h-220l-370 569l-381 -569h-209l483 702z" />
    <glyph glyph-name="Y" unicode="Y" horiz-adv-x="1220" 
d="M35 1372h207l372 -684l375 684h197l-479 -821v-551h-195v551z" />
    <glyph glyph-name="Z" unicode="Z" horiz-adv-x="1183" 
d="M1112 0h-1022v117l770 1108h-749v147h985v-117l-768 -1108h784v-147z" />
    <glyph glyph-name="bracketleft" unicode="[" horiz-adv-x="593" 
d="M553 -205h-401v1680h401v-132h-227v-1417h227v-131z" />
    <glyph glyph-name="backslash" unicode="\" horiz-adv-x="667" 
d="M10 1403h166l481 -1618h-168z" />
    <glyph glyph-name="bracketright" unicode="]" horiz-adv-x="593" 
d="M41 1475h401v-1680h-401v131h227v1417h-227v132z" />
    <glyph glyph-name="asciicircum" unicode="^" horiz-adv-x="1208" 
d="M354 686h-143l326 666h133l327 -666h-149l-246 518z" />
    <glyph glyph-name="underscore" unicode="_" horiz-adv-x="1024" 
d="M1024 -256h-1024v82h1024v-82z" />
    <glyph glyph-name="grave" unicode="`" horiz-adv-x="1024" 
d="M309 1409l107 125l305 -293l-68 -82z" />
    <glyph glyph-name="a" unicode="a" horiz-adv-x="1079" 
d="M408 -27q-154 0 -243 74t-89 209q0 72 27 130q25 56 76 96q49 38 112 67q57 27 143 44q85 16 159 23q79 8 171 9v24q0 129 -60 200t-169 71q-96 0 -160 -50q-62 -49 -82 -143h-178q27 150 139 235t289 85q197 0 301 -110q102 -110 102 -329v-608h-168l-10 145
q-55 -82 -149 -127q-95 -45 -211 -45zM455 100q133 0 222 86q87 86 87 213v113q-240 -1 -372 -62q-130 -61 -130 -180q0 -80 53 -125t140 -45z" />
    <glyph glyph-name="b" unicode="b" horiz-adv-x="1187" 
d="M662 -27q-111 0 -197 50q-85 49 -137 139l-11 -162h-167v1434h184v-574q57 89 146 137q91 50 190 50q132 0 233 -71q99 -70 150 -192t51 -274q0 -238 -122 -387q-122 -150 -320 -150zM618 111q137 0 216 112t79 287t-79 287t-216 112q-123 0 -205 -103q-83 -104 -83 -280
v-30q0 -180 84 -283q82 -102 204 -102z" />
    <glyph glyph-name="c" unicode="c" horiz-adv-x="1101" 
d="M578 -27q-102 0 -191 36q-90 35 -157 102q-69 67 -107 169q-39 104 -39 230q0 122 39 224t107 170q70 70 157 106q89 37 193 37q108 0 200 -39q90 -38 158 -123q67 -86 86 -205h-184q-29 122 -96 179q-70 56 -166 56q-45 0 -90 -14q-43 -13 -82 -45q-42 -32 -69 -77
q-30 -49 -46 -115q-17 -71 -17 -154q0 -103 26 -184q25 -79 70 -127q44 -47 96 -71t112 -24q202 0 268 254h180q-23 -126 -90 -214q-70 -90 -160 -130q-93 -41 -198 -41z" />
    <glyph glyph-name="d" unicode="d" horiz-adv-x="1187" 
d="M526 1047q107 0 193 -47q84 -48 135 -132v566h184v-1434h-168l-10 170q-52 -92 -144 -145q-91 -52 -196 -52q-132 0 -233 71q-100 70 -151 192q-52 120 -52 274q0 237 122 388q122 149 320 149zM569 909q-137 0 -216 -112t-79 -287t79 -287t216 -112q122 0 206 104
q83 104 83 281v30q0 178 -84 281q-82 102 -205 102z" />
    <glyph glyph-name="e" unicode="e" horiz-adv-x="1122" 
d="M573 -27q-101 0 -187 34q-87 34 -155 99t-107 169q-40 102 -40 235q0 124 39 227q40 104 106 170q65 66 154 104q87 36 186 36q215 0 344 -144t129 -391v-49h-774q11 -168 90 -265q78 -98 217 -98q220 0 277 215h178q-42 -168 -163 -254q-121 -88 -294 -88zM569 920
q-122 0 -205 -89t-94 -245h588q-13 156 -88 246q-73 88 -201 88z" />
    <glyph glyph-name="f" unicode="f" horiz-adv-x="704" 
d="M31 891v129h159v35q0 405 340 405q99 0 191 -39l-33 -129q-66 25 -137 25q-83 0 -129 -58q-47 -59 -47 -178v-61h295v-129h-295v-891h-185v891h-159z" />
    <glyph glyph-name="g" unicode="g" horiz-adv-x="1187" 
d="M559 -457q-177 0 -296 89q-120 91 -148 259h180q19 -108 91 -166q71 -57 173 -57q143 0 218 86q75 87 75 258v162q-55 -87 -142 -133q-89 -47 -194 -47q-197 0 -314 148q-118 148 -118 380q0 230 123 378q121 147 317 147q113 0 199 -50q85 -49 135 -137l10 160h168v-950
q0 -527 -477 -527zM567 131q123 0 206 101t83 274v33q0 169 -81 270q-82 100 -208 100q-135 0 -214 -109t-79 -278q0 -172 79 -281q80 -110 214 -110z" />
    <glyph glyph-name="h" unicode="h" horiz-adv-x="1177" 
d="M334 0h-184v1434h184v-578q52 93 144 143q92 48 198 48q181 0 275 -108q93 -110 93 -302v-637h-184v610q0 297 -239 297q-127 0 -207 -98t-80 -283v-526z" />
    <glyph glyph-name="i" unicode="i" horiz-adv-x="487" 
d="M242 1192q-50 0 -83 33q-34 33 -34 84q0 49 34 82q34 32 83 32q50 0 85 -32q33 -33 33 -82q0 -51 -33 -84q-34 -33 -85 -33zM336 0h-184v1020h184v-1020z" />
    <glyph glyph-name="j" unicode="j" horiz-adv-x="501" 
d="M250 1192q-50 0 -83 33q-34 33 -34 84q0 49 34 82q34 32 83 32q50 0 85 -32q34 -33 34 -82q0 -51 -34 -84t-85 -33zM-154 -428l31 131q48 -16 109 -16q82 0 128 55t46 170v1108h184v-1086q0 -391 -342 -391q-72 0 -156 29z" />
    <glyph glyph-name="k" unicode="k" horiz-adv-x="1044" 
d="M334 0h-184v1434h184v-844l444 432h209l-495 -467q150 -53 266 -160q175 -159 258 -395h-203q-56 180 -184 305q-128 122 -295 170v-475z" />
    <glyph glyph-name="l" unicode="l" horiz-adv-x="487" 
d="M336 0h-184v1434h184v-1434z" />
    <glyph glyph-name="m" unicode="m" horiz-adv-x="1839" 
d="M150 0v1020h167l11 -166q52 95 141 145q89 48 195 48q126 0 208 -58q83 -59 119 -166q49 109 146 167q96 57 213 57q171 0 264 -109q92 -110 92 -301v-637h-184v610q0 297 -228 297q-120 0 -197 -98t-77 -283v-526h-184v610q0 297 -228 297q-119 0 -196 -98
q-78 -99 -78 -283v-526h-184z" />
    <glyph glyph-name="n" unicode="n" horiz-adv-x="1177" 
d="M334 0h-184v1020h167l11 -176q52 99 145 152q93 51 203 51q181 0 275 -108q93 -110 93 -302v-637h-184v610q0 297 -239 297q-127 0 -207 -98t-80 -283v-526z" />
    <glyph glyph-name="o" unicode="o" horiz-adv-x="1167" 
d="M584 -27q-221 0 -361 152q-139 151 -139 385t139 385q140 152 361 152t361 -152q138 -151 138 -385t-138 -385q-140 -152 -361 -152zM584 104q141 0 225 112t84 294t-84 294q-84 111 -225 111t-225 -112q-85 -112 -85 -293q0 -182 85 -294q84 -112 225 -112z" />
    <glyph glyph-name="p" unicode="p" horiz-adv-x="1187" 
d="M334 -430h-184v1450h167l11 -170q52 91 145 145q91 52 197 52q132 0 233 -71q99 -70 150 -192t51 -274q0 -238 -122 -387q-122 -150 -320 -150q-108 0 -192 48q-84 46 -136 131v-582zM618 111q137 0 216 112t79 287t-79 287t-216 112q-123 0 -205 -103q-83 -104 -83 -280
v-30q0 -180 84 -283q82 -102 204 -102z" />
    <glyph glyph-name="q" unicode="q" horiz-adv-x="1187" 
d="M526 1047q112 0 198 -50q84 -49 136 -139l10 162h168v-1450h-184v590q-56 -88 -145 -137q-92 -50 -191 -50q-132 0 -232 71q-100 70 -151 192t-51 274q0 240 121 388q120 149 321 149zM567 911q-135 0 -214 -112t-79 -289q0 -175 79 -287t214 -112q125 0 207 103t82 282
v30q0 176 -81 281q-83 104 -208 104z" />
    <glyph glyph-name="r" unicode="r" horiz-adv-x="720" 
d="M334 0h-184v1020h163l11 -201q39 96 116 158q76 61 176 61q14 0 37 -3q9 -2 18.5 -3.5t10.5 -1.5v-170q-22 8 -76 8t-100 -21q-47 -21 -86 -62q-40 -42 -63 -113q-23 -74 -23 -164v-508z" />
    <glyph glyph-name="s" unicode="s" horiz-adv-x="1005" 
d="M510 -27q-193 0 -306 86t-132 244h184q32 -209 256 -209q111 0 171 42t60 118q0 128 -186 174l-166 41q-138 34 -209 102t-71 187q0 131 109 210q107 79 282 79q179 0 283 -79q105 -79 130 -227h-182q-38 185 -237 185q-93 0 -148 -43t-55 -117q0 -60 39 -94
q40 -35 123 -56l166 -41q153 -37 228 -108t75 -199q0 -137 -109 -216t-305 -79z" />
    <glyph glyph-name="t" unicode="t" horiz-adv-x="735" 
d="M504 -27q-159 0 -240 87q-82 85 -82 247v584h-147v129h147v303h185v-303h297v-129h-297v-578q0 -100 43 -147q43 -49 114 -49q74 0 138 24l32 -129q-92 -39 -190 -39z" />
    <glyph glyph-name="u" unicode="u" horiz-adv-x="1155" 
d="M821 1020h185v-1020h-168l-11 166q-52 -96 -140 -144q-88 -49 -195 -49q-174 0 -265 109q-92 109 -92 301v637h184v-610q0 -297 228 -297q119 0 197 99q77 98 77 282v526z" />
    <glyph glyph-name="v" unicode="v" horiz-adv-x="1032" 
d="M612 0h-192l-389 1020h198l295 -827l293 827h184z" />
    <glyph glyph-name="w" unicode="w" horiz-adv-x="1552" 
d="M535 0h-191l-313 1020h194l228 -827l252 827h161l252 -830l228 830h176l-314 -1020h-190l-242 786z" />
    <glyph glyph-name="x" unicode="x" horiz-adv-x="1015" 
d="M215 0h-190l387 524l-361 496h209l254 -375l272 375h191l-367 -490l383 -530h-209l-276 406z" />
    <glyph glyph-name="y" unicode="y" horiz-adv-x="1017" 
d="M-10 -414l43 129q68 -30 139 -30q64 0 112 42q48 43 85 134l67 164l-405 995h194l293 -805l289 805h180l-463 -1180q-57 -153 -141 -225t-205 -72q-102 0 -188 43z" />
    <glyph glyph-name="z" unicode="z" horiz-adv-x="985" 
d="M920 0h-834v106l594 779h-571v135h790v-107l-600 -778h621v-135z" />
    <glyph glyph-name="braceleft" unicode="{" horiz-adv-x="696" 
d="M125 569h-53v131h53q72 0 104 35q31 34 31 105q0 70 -15 186q-16 112 -16 180q0 134 79 201q79 68 255 68h96v-132h-84q-97 0 -137 -37q-41 -38 -41 -120q0 -70 15 -183q14 -118 14 -198q0 -81 -40 -121t-103 -49q63 -9 103 -49t40 -121q0 -80 -14 -197
q-15 -114 -15 -184q0 -83 41 -121q40 -37 137 -37h84v-131h-96q-178 0 -255 67q-79 67 -79 201q0 68 16 181q15 116 15 186q0 71 -31 105t-104 34z" />
    <glyph glyph-name="bar" unicode="|" horiz-adv-x="466" 
d="M313 -205h-159v1680h159v-1680z" />
    <glyph glyph-name="braceright" unicode="}" horiz-adv-x="696" 
d="M133 -205h-96v131h84q98 0 138 37t40 121q0 66 -14 184q-15 113 -15 197q0 80 41 121q40 40 103 49q-63 9 -103 49q-41 41 -41 121q0 84 15 198q14 117 14 183q0 83 -40 120t-138 37h-84v132h96q176 0 256 -68q78 -67 78 -201q0 -64 -15 -180q-16 -112 -16 -186
q0 -71 31 -105q32 -35 104 -35h54v-131h-54q-73 0 -104 -34t-31 -105q0 -74 16 -186q15 -117 15 -181q0 -133 -78 -201q-79 -67 -256 -67z" />
    <glyph glyph-name="asciitilde" unicode="~" horiz-adv-x="1208" 
d="M575 584q-44 50 -74 72q-29 20 -65 20q-48 0 -86 -53q-36 -52 -41 -164h-145q9 146 76 243q71 101 190 101q110 0 219 -121q44 -50 74 -70q29 -22 65 -22q49 0 87 53q37 52 43 162h143q-9 -146 -76 -246q-68 -98 -188 -98q-65 0 -118 33q-54 34 -104 90z" />
    <glyph glyph-name="uni00A0" unicode="&#xa0;" horiz-adv-x="409" 
 />
    <glyph glyph-name="exclamdown" unicode="&#xa1;" horiz-adv-x="473" 
d="M238 799q-53 0 -88 35t-35 86t35 86q34 34 88 34q53 0 87 -34q33 -34 33 -86t-34 -86q-35 -35 -86 -35zM168 647h137l31 -999h-197z" />
    <glyph glyph-name="cent" unicode="&#xa2;" horiz-adv-x="1208" 
d="M684 0h-113v139q-189 19 -311 160q-123 139 -123 369q0 147 59 265q59 116 157 181t218 78v160h113v-158q150 -13 257 -107q105 -92 134 -258h-174q-24 107 -82 165q-57 57 -139 71v-795q80 14 140 75q58 61 87 171h170q-31 -166 -140 -263q-111 -99 -253 -112v-141z
M319 668q0 -191 76 -285q77 -95 180 -113v795q-101 -18 -180 -115q-76 -94 -76 -282z" />
    <glyph glyph-name="sterling" unicode="&#xa3;" horiz-adv-x="1208" 
d="M831 729v-139h-342q25 -100 25 -184q0 -186 -100 -261h663v-145h-975v133q117 0 171 64q53 65 53 196q0 81 -29 197h-191v139h154q-31 137 -31 240q0 190 118 296q118 107 312 107q169 0 283 -96q115 -98 152 -260h-193q-54 219 -250 219q-108 0 -169 -64
q-62 -65 -62 -194q0 -97 35 -248h376z" />
    <glyph glyph-name="currency" unicode="&#xa4;" horiz-adv-x="1208" 
d="M168 680q0 145 88 260l-147 147l90 91l149 -150q113 80 258 80q137 0 256 -80l150 148l90 -89l-148 -149q84 -118 84 -258q0 -142 -84 -260l148 -146l-90 -90l-148 148q-115 -82 -258 -82q-145 0 -260 82l-151 -152l-89 90l148 150q-86 113 -86 260zM317 680
q0 -129 82 -214q83 -87 207 -87q122 0 204 87q81 86 81 214t-81 215q-83 86 -204 86q-124 0 -207 -86q-82 -86 -82 -215z" />
    <glyph glyph-name="yen" unicode="&#xa5;" horiz-adv-x="1208" 
d="M692 0h-180v270h-317v115h317v135h-317v117h268l-393 702h192l344 -663l348 663h183l-396 -702h263v-117h-312v-135h312v-115h-312v-270z" />
    <glyph glyph-name="section" unicode="&#xa7;" horiz-adv-x="1042" 
d="M471 842l395 -123v-144l-430 130q-186 55 -271 143q-85 85 -85 225q0 152 112 242q111 90 312 90t313 -85q114 -86 127 -245h-178q-9 56 -35 101q-26 43 -63 65t-79 33q-39 10 -87 10q-121 0 -185 -53q-63 -53 -63 -146q0 -92 52 -150q51 -59 165 -93zM569 365l-395 122
v144l428 -129q192 -58 276 -141q83 -85 83 -228q0 -152 -111 -242q-112 -90 -313 -90t-313 85q-114 86 -130 245h180q9 -58 35 -101q25 -43 64 -66q34 -20 79 -32q39 -10 87 -10q121 0 185 53q62 53 62 146q0 92 -52 150q-52 56 -165 94z" />
    <glyph glyph-name="dieresis" unicode="&#xa8;" horiz-adv-x="1024" 
d="M705 1186q-45 0 -77 30t-32 76q0 45 32 77q32 30 77 30t76 -30q30 -30 30 -77q0 -48 -30 -76q-31 -30 -76 -30zM319 1186q-45 0 -75 30q-31 28 -31 76q0 47 31 77q30 30 75 30t77 -30q32 -32 32 -77q0 -46 -32 -76t-77 -30z" />
    <glyph glyph-name="copyright" unicode="&#xa9;" horiz-adv-x="1705" 
d="M854 0q-192 0 -346 88q-154 87 -241 244q-87 158 -87 354t87 354q86 156 241 245q154 87 346 87t346 -87q155 -89 241 -245q87 -158 87 -354t-87 -354q-87 -157 -241 -244q-154 -88 -346 -88zM854 109q248 0 400 161q151 160 151 416q0 258 -151 418t-400 160
q-248 0 -399 -160q-152 -161 -152 -418q0 -255 152 -416t399 -161zM870 291q-159 0 -262 106q-104 107 -104 289q0 180 106 289q105 108 262 108q123 0 211 -70q89 -71 117 -206h-151q-20 88 -66 128q-47 40 -113 40q-85 0 -146 -73q-62 -74 -62 -216q0 -140 62 -214
q61 -73 146 -73q139 0 183 176h149q-27 -141 -125 -215q-91 -69 -207 -69z" />
    <glyph glyph-name="ordfeminine" unicode="&#xaa;" horiz-adv-x="872" 
d="M322 569q-119 0 -184 55q-66 56 -66 152q0 267 514 279v16q0 88 -44 143q-43 54 -118 54q-66 0 -112 -37t-60 -101h-150q22 115 109 179q85 63 221 63q311 0 311 -332v-456h-135l-12 127q-41 -67 -114 -104q-74 -38 -160 -38zM367 680q89 0 154 62t65 143v80
q-355 -10 -355 -172q0 -49 38 -81t98 -32z" />
    <glyph glyph-name="guillemotleft" unicode="&#xab;" horiz-adv-x="1226" 
d="M578 106h-185l-293 402l293 401h180l-284 -399zM1110 106h-184l-293 402l293 401h180l-285 -399z" />
    <glyph glyph-name="logicalnot" unicode="&#xac;" horiz-adv-x="1208" 
d="M1038 406h-143v313h-725v139h868v-452z" />
    <glyph glyph-name="uni00AD" unicode="&#xad;" horiz-adv-x="784" 
d="M692 420h-600v149h600v-149z" />
    <glyph glyph-name="registered" unicode="&#xae;" horiz-adv-x="1134" 
d="M567 385q-219 0 -355 141q-138 141 -138 363t138 363q136 141 355 141t356 -141q136 -140 136 -363t-136 -363q-137 -141 -356 -141zM567 479q178 0 282 110q103 109 103 300t-102 301q-104 110 -283 110q-183 0 -283 -109q-102 -109 -102 -302q0 -191 102 -300
q101 -110 283 -110zM477 643h-96v506h199q94 0 142 -39q48 -40 48 -109q0 -105 -125 -131q114 -46 154 -227h-101q-22 102 -73 153q-49 48 -129 48h-19v-201zM565 1077h-88v-159h88q109 0 109 79q0 80 -109 80z" />
    <glyph glyph-name="overscore" unicode="&#xaf;" horiz-adv-x="1024" 
d="M805 1225h-586v131h586v-131z" />
    <glyph glyph-name="degree" unicode="&#xb0;" horiz-adv-x="641" 
d="M319 905q-114 0 -194 74q-78 75 -78 190q0 116 78 191q80 74 194 74q117 0 197 -74q78 -75 78 -191q0 -117 -78 -190q-80 -74 -197 -74zM319 1008q67 0 111 45q43 43 43 116t-43 117q-44 45 -111 45q-66 0 -108 -45q-43 -44 -43 -117t43 -116q42 -45 108 -45z" />
    <glyph glyph-name="uni00B2" unicode="&#xb2;" horiz-adv-x="731" 
d="M670 774h-596v25q0 98 45 170q43 72 141 135l135 88q61 40 87 80t26 90q0 60 -37 94q-37 33 -100 33q-70 0 -111 -44t-47 -128h-143q8 133 90 206q83 74 219 74q129 0 206 -63t77 -166q0 -80 -36 -138q-37 -60 -120 -112l-141 -92q-58 -37 -83 -66q-26 -32 -32 -67h420
v-119z" />
    <glyph glyph-name="uni00B3" unicode="&#xb3;" horiz-adv-x="722" 
d="M367 754q-139 0 -225 68q-87 67 -99 194h143q10 -76 58 -116q47 -40 123 -40q73 0 114 37q41 36 41 102q0 152 -217 152h-22v98h22q114 0 157 34q42 33 42 87q0 58 -38 90q-37 31 -101 31q-66 0 -105 -33q-40 -35 -47 -94h-143q12 110 92 172q79 61 209 61q128 0 205 -59
q77 -60 77 -160q0 -131 -143 -178q82 -25 122 -77t40 -122q0 -114 -83 -180q-83 -67 -222 -67z" />
    <glyph glyph-name="acute" unicode="&#xb4;" horiz-adv-x="1024" 
d="M371 1159l-68 82l305 293l107 -125z" />
    <glyph glyph-name="paragraph" unicode="&#xb6;" horiz-adv-x="1181" 
d="M711 -215h-136v711h-38q-222 0 -341 119q-118 118 -118 319q0 205 118 322q118 116 341 116h462v-1587h-135v1462h-153v-1462z" />
    <glyph glyph-name="middot" unicode="&#xb7;" horiz-adv-x="450" 
d="M225 373q-53 0 -88 35t-35 86q0 54 35 87t88 33t88 -33q33 -33 33 -87q0 -51 -35 -86t-86 -35z" />
    <glyph glyph-name="cedilla" unicode="&#xb8;" horiz-adv-x="1024" 
d="M375 -221l31 221h94l-25 -129q26 8 55 8q81 0 137 -50q54 -49 54 -128q0 -93 -68 -152q-69 -57 -184 -57q-67 0 -147 21l8 94q64 -19 137 -19q62 0 100 29q37 30 37 80q0 43 -28 71q-29 29 -76 29q-46 0 -76 -18h-49z" />
    <glyph glyph-name="uni00B9" unicode="&#xb9;" horiz-adv-x="540" 
d="M37 1337v123q155 32 254 117h115v-803h-152v629q-123 -53 -217 -66z" />
    <glyph glyph-name="ordmasculine" unicode="&#xba;" horiz-adv-x="880" 
d="M440 569q-172 0 -278 115q-107 115 -107 287t107 287q106 114 278 114t278 -114q107 -115 107 -287t-107 -287q-106 -115 -278 -115zM440 682q99 0 161 80q61 79 61 209q0 132 -61 211q-62 80 -161 80q-100 0 -160 -80q-61 -79 -61 -211q0 -130 61 -209q60 -80 160 -80z
" />
    <glyph glyph-name="guillemotright" unicode="&#xbb;" horiz-adv-x="1226" 
d="M117 909h184l293 -401l-293 -402h-180l285 398zM649 909h185l292 -401l-292 -402h-181l285 398z" />
    <glyph glyph-name="onequarter" unicode="&#xbc;" horiz-adv-x="1552" 
d="M1262 166h-396v106l404 531h133v-522h119v-115h-119v-166h-141v166zM504 0h-164l688 1352h164zM37 1112v123q155 32 254 117h115v-803h-152v629q-123 -53 -217 -66zM1262 618l-261 -337h261v337z" />
    <glyph glyph-name="onehalf" unicode="&#xbd;" horiz-adv-x="1673" 
d="M1612 0h-596v25q0 98 45 170q43 72 141 135l135 88q61 40 87 80t26 90q0 60 -37 94q-37 33 -100 33q-70 0 -111 -44t-47 -128h-143q8 133 90 206q83 74 219 74q129 0 206 -63t77 -166q0 -80 -36 -138q-37 -60 -120 -112l-141 -92q-58 -37 -83 -66q-26 -32 -32 -67h420
v-119zM504 0h-164l688 1352h164zM37 1112v123q155 32 254 117h115v-803h-152v629q-123 -53 -217 -66z" />
    <glyph glyph-name="threequarters" unicode="&#xbe;" horiz-adv-x="1716" 
d="M367 528q-139 0 -225 69q-87 67 -99 194h143q10 -76 58 -116q47 -40 123 -40q73 0 114 37q41 36 41 102q0 152 -217 152h-22v98h22q114 0 157 34q42 33 42 87q0 58 -38 90q-37 31 -101 31q-66 0 -105 -33q-40 -35 -47 -94h-143q12 110 92 172q79 61 209 61q128 0 205 -59
q77 -60 77 -160q0 -131 -143 -178q82 -25 122 -77t40 -122q0 -113 -83 -181q-83 -67 -222 -67zM668 0h-164l688 1352h164zM1425 166h-395v106l404 531h133v-522h119v-115h-119v-166h-142v166zM1425 618l-260 -337h260v337z" />
    <glyph glyph-name="questiondown" unicode="&#xbf;" horiz-adv-x="929" 
d="M524 799q-53 0 -88 35t-35 86t35 86q34 34 88 34q53 0 87 -34t34 -86q0 -51 -35 -86t-86 -35zM735 37h183q-10 -191 -133 -308q-123 -114 -326 -114q-191 0 -309 97q-119 98 -119 255q0 108 43 185q45 80 137 151l123 96q59 47 83 94q21 43 21 113v43h170v-59
q0 -92 -33 -155t-118 -130l-121 -98q-60 -49 -87 -105q-28 -55 -28 -131q0 -95 67 -155q66 -60 175 -60q119 0 191 72q71 74 81 209z" />
    <glyph glyph-name="Agrave" unicode="&#xc0;" horiz-adv-x="1306" 
d="M1262 0h-199l-113 328h-600l-114 -328h-191l508 1372h203zM651 1190l-250 -715h498zM354 1677l82 158l418 -252l-51 -100z" />
    <glyph glyph-name="Aacute" unicode="&#xc1;" horiz-adv-x="1306" 
d="M1262 0h-199l-113 328h-600l-114 -328h-191l508 1372h203zM651 1190l-250 -715h498zM508 1483l-51 100l417 252l82 -158z" />
    <glyph glyph-name="Acircumflex" unicode="&#xc2;" horiz-adv-x="1306" 
d="M1262 0h-199l-113 328h-600l-114 -328h-191l508 1372h203zM651 1190l-250 -715h498zM606 1808h101l307 -239l-64 -94l-295 188l-295 -188l-61 94z" />
    <glyph glyph-name="Atilde" unicode="&#xc3;" horiz-adv-x="1306" 
d="M1262 0h-199l-113 328h-600l-114 -328h-191l508 1372h203zM651 1190l-250 -715h498zM616 1608q-57 57 -102 57q-30 0 -57 -33t-39 -106h-127q12 123 72 198q59 74 149 74q85 0 182 -88q57 -57 103 -57q30 0 57 33t39 106h127q-12 -122 -71 -198q-60 -76 -150 -76
q-84 0 -183 90z" />
    <glyph glyph-name="Adieresis" unicode="&#xc4;" horiz-adv-x="1306" 
d="M1262 0h-199l-113 328h-600l-114 -328h-191l508 1372h203zM651 1190l-250 -715h498zM870 1546q-47 0 -79 32q-31 31 -31 81q0 49 32 81t78 32q50 0 82 -32q31 -31 31 -81q0 -51 -31 -82t-82 -31zM440 1546q-50 0 -81 31t-31 82q0 50 32 82q31 31 80 31q48 0 80 -32
q31 -31 31 -81t-31 -81q-32 -32 -80 -32z" />
    <glyph glyph-name="Aring" unicode="&#xc5;" horiz-adv-x="1306" 
d="M1262 0h-199l-113 328h-600l-114 -328h-191l508 1372h203zM651 1190l-250 -715h498zM655 1503q-107 0 -174 66q-69 66 -69 170t68 169q67 64 175 64q110 0 178 -64q68 -65 68 -169t-68 -170q-69 -66 -178 -66zM655 1606q57 0 95 36q36 34 36 97q0 59 -35 97
q-36 36 -96 36q-61 0 -95 -36q-36 -38 -36 -97q0 -63 35 -98t96 -35z" />
    <glyph glyph-name="AE" unicode="&#xc6;" horiz-adv-x="1910" 
d="M236 0h-191l813 1372h944v-149h-665v-461h602v-144h-602v-468h673v-150h-866v328h-520zM944 1227l-432 -750h432v750z" />
    <glyph glyph-name="Ccedilla" unicode="&#xc7;" horiz-adv-x="1413" 
d="M645 -225l25 196q-267 23 -418 217q-152 194 -152 498q0 208 75 372q75 162 220 255q146 92 340 92q239 0 397 -132q158 -134 201 -364h-207q-34 164 -137 256q-102 90 -254 90q-204 0 -317 -155q-113 -152 -113 -414q0 -261 113 -416q114 -153 317 -153q150 0 252 87
q103 88 137 247h205q-37 -216 -186 -345q-149 -130 -375 -139l-14 -90q24 6 51 6q85 0 139 -51q53 -51 53 -131q0 -98 -68 -155q-68 -56 -184 -56q-81 0 -153 21l8 100q64 -19 141 -19q59 0 96 29q35 29 35 76q0 42 -27 69t-73 27q-32 0 -72 -18h-55z" />
    <glyph glyph-name="Egrave" unicode="&#xc8;" horiz-adv-x="1144" 
d="M1044 0h-868v1372h860v-149h-665v-461h602v-144h-602v-468h673v-150zM305 1677l82 158l418 -252l-51 -100z" />
    <glyph glyph-name="Eacute" unicode="&#xc9;" horiz-adv-x="1144" 
d="M1044 0h-868v1372h860v-149h-665v-461h602v-144h-602v-468h673v-150zM459 1483l-51 100l417 252l82 -158z" />
    <glyph glyph-name="Ecircumflex" unicode="&#xca;" horiz-adv-x="1144" 
d="M1044 0h-868v1372h860v-149h-665v-461h602v-144h-602v-468h673v-150zM557 1808h100l308 -239l-64 -94l-295 188l-295 -188l-61 94z" />
    <glyph glyph-name="Edieresis" unicode="&#xcb;" horiz-adv-x="1144" 
d="M1044 0h-868v1372h860v-149h-665v-461h602v-144h-602v-468h673v-150zM821 1546q-47 0 -79 32q-31 31 -31 81q0 49 32 81t78 32q49 0 81 -32t32 -81q0 -51 -31 -82t-82 -31zM391 1546q-50 0 -81 31t-31 82q0 50 32 82q31 31 80 31q48 0 80 -32q31 -31 31 -81t-31 -81
q-32 -32 -80 -32z" />
    <glyph glyph-name="Igrave" unicode="&#xcc;" horiz-adv-x="546" 
d="M371 0h-195v1372h195v-1372zM-27 1677l82 158l418 -252l-51 -100z" />
    <glyph glyph-name="Iacute" unicode="&#xcd;" horiz-adv-x="546" 
d="M371 0h-195v1372h195v-1372zM127 1483l-51 100l418 252l81 -158z" />
    <glyph glyph-name="Icircumflex" unicode="&#xce;" horiz-adv-x="546" 
d="M371 0h-195v1372h195v-1372zM225 1808h101l307 -239l-64 -94l-295 188l-294 -188l-62 94z" />
    <glyph glyph-name="Idieresis" unicode="&#xcf;" horiz-adv-x="546" 
d="M371 0h-195v1372h195v-1372zM489 1546q-47 0 -79 32q-31 31 -31 81q0 49 32 81t78 32q49 0 81 -32t32 -81q0 -51 -31 -82t-82 -31zM59 1546q-50 0 -81 31t-31 82t31 82t81 31q48 0 80 -32q31 -31 31 -81t-31 -81q-32 -32 -80 -32z" />
    <glyph glyph-name="Eth" unicode="&#xd0;" horiz-adv-x="1478" 
d="M643 0h-426v623h-168v135h168v614h424q183 0 324 -52q142 -52 232 -145q91 -94 137 -217t46 -272t-46 -272q-47 -125 -137 -217q-90 -93 -232 -145q-141 -52 -322 -52zM803 758v-135h-400v-478h238q267 0 400 144q133 142 133 397q0 258 -131 401q-130 142 -402 142h-238
v-471h400z" />
    <glyph glyph-name="Ntilde" unicode="&#xd1;" horiz-adv-x="1441" 
d="M362 0h-186v1372h186l717 -1073v1073h187v-1372h-185l-719 1077v-1077zM682 1608q-57 57 -102 57q-30 0 -57 -33q-28 -32 -40 -106h-127q12 123 72 198q60 74 150 74q85 0 182 -88q57 -57 102 -57q30 0 57 33t39 106h127q-12 -122 -71 -198q-60 -76 -150 -76
q-83 0 -182 90z" />
    <glyph glyph-name="Ograve" unicode="&#xd2;" horiz-adv-x="1499" 
d="M750 -33q-153 0 -276 54q-124 54 -205 150q-81 94 -125 228q-44 132 -44 287q0 154 44 288q44 133 125 227q81 96 205 150q123 54 276 54q204 0 352 -94t223 -255q74 -162 74 -370t-74 -370q-75 -161 -223 -255t-352 -94zM750 117q213 0 328 154q116 154 116 415
q0 260 -116 415q-115 154 -328 154t-328 -154q-117 -155 -117 -415q0 -262 117 -415q115 -154 328 -154zM449 1677l81 158l418 -252l-51 -100z" />
    <glyph glyph-name="Oacute" unicode="&#xd3;" horiz-adv-x="1499" 
d="M750 -33q-153 0 -276 54q-124 54 -205 150q-81 94 -125 228q-44 132 -44 287q0 154 44 288q44 133 125 227q81 96 205 150q123 54 276 54q204 0 352 -94t223 -255q74 -162 74 -370t-74 -370q-75 -161 -223 -255t-352 -94zM750 117q213 0 328 154q116 154 116 415
q0 260 -116 415q-115 154 -328 154t-328 -154q-117 -155 -117 -415q0 -262 117 -415q115 -154 328 -154zM602 1483l-51 100l418 252l82 -158z" />
    <glyph glyph-name="Ocircumflex" unicode="&#xd4;" horiz-adv-x="1499" 
d="M750 -33q-153 0 -276 54q-124 54 -205 150q-81 94 -125 228q-44 132 -44 287q0 154 44 288q44 133 125 227q81 96 205 150q123 54 276 54q204 0 352 -94t223 -255q74 -162 74 -370t-74 -370q-75 -161 -223 -255t-352 -94zM750 117q213 0 328 154q116 154 116 415
q0 260 -116 415q-115 154 -328 154t-328 -154q-117 -155 -117 -415q0 -262 117 -415q115 -154 328 -154zM700 1808h101l307 -239l-64 -94l-294 188l-295 -188l-62 94z" />
    <glyph glyph-name="Otilde" unicode="&#xd5;" horiz-adv-x="1499" 
d="M750 -33q-153 0 -276 54q-124 54 -205 150q-81 94 -125 228q-44 132 -44 287q0 154 44 288q44 133 125 227q81 96 205 150q123 54 276 54q204 0 352 -94t223 -255q74 -162 74 -370t-74 -370q-75 -161 -223 -255t-352 -94zM750 117q213 0 328 154q116 154 116 415
q0 260 -116 415q-115 154 -328 154t-328 -154q-117 -155 -117 -415q0 -262 117 -415q115 -154 328 -154zM711 1608q-57 57 -103 57q-30 0 -57 -33t-39 -106h-127q12 123 72 198q59 74 149 74q85 0 182 -88q57 -57 103 -57q30 0 57 33t39 106h127q-12 -122 -71 -198
q-60 -76 -150 -76q-83 0 -182 90z" />
    <glyph glyph-name="Odieresis" unicode="&#xd6;" horiz-adv-x="1499" 
d="M750 -33q-153 0 -276 54q-124 54 -205 150q-81 94 -125 228q-44 132 -44 287q0 154 44 288q44 133 125 227q81 96 205 150q123 54 276 54q204 0 352 -94t223 -255q74 -162 74 -370t-74 -370q-75 -161 -223 -255t-352 -94zM750 117q213 0 328 154q116 154 116 415
q0 260 -116 415q-115 154 -328 154t-328 -154q-117 -155 -117 -415q0 -262 117 -415q115 -154 328 -154zM965 1546q-47 0 -79 32t-32 81t32 81t79 32q50 0 81 -31t31 -82t-31 -82t-81 -31zM535 1546q-50 0 -81 31q-32 32 -32 82q0 49 32 81t81 32q47 0 79 -32q31 -31 31 -81
t-31 -81q-32 -32 -79 -32z" />
    <glyph glyph-name="multiply" unicode="&#xd7;" horiz-adv-x="1208" 
d="M604 582l-303 -303l-94 96l301 301l-301 303l94 96l303 -303l303 303l94 -96l-301 -303l301 -301l-94 -96z" />
    <glyph glyph-name="Oslash" unicode="&#xd8;" horiz-adv-x="1499" 
d="M311 -100l-127 86l109 159q-93 96 -143 236q-50 141 -50 305q0 154 44 288q44 133 125 227q81 96 205 150q123 54 276 54q192 0 333 -84l103 152l129 -87l-109 -159q95 -98 144 -236t49 -305q0 -209 -75 -370q-75 -162 -223 -255q-148 -94 -351 -94q-195 0 -336 84z
M305 686q0 -238 96 -387l594 883q-100 73 -245 73q-213 0 -328 -154q-117 -155 -117 -415zM750 117q213 0 328 154q116 154 116 415q0 238 -96 387l-596 -880q100 -76 248 -76z" />
    <glyph glyph-name="Ugrave" unicode="&#xd9;" horiz-adv-x="1386" 
d="M692 -33q-261 0 -403 148t-142 409v848h195v-858q0 -190 91 -293q90 -104 259 -104q170 0 260 104q90 103 90 293v858h195v-848q0 -258 -143 -407q-141 -150 -402 -150zM391 1677l82 158l418 -252l-51 -100z" />
    <glyph glyph-name="Uacute" unicode="&#xda;" horiz-adv-x="1386" 
d="M692 -33q-261 0 -403 148t-142 409v848h195v-858q0 -190 91 -293q90 -104 259 -104q170 0 260 104q90 103 90 293v858h195v-848q0 -258 -143 -407q-141 -150 -402 -150zM545 1483l-51 100l417 252l82 -158z" />
    <glyph glyph-name="Ucircumflex" unicode="&#xdb;" horiz-adv-x="1386" 
d="M692 -33q-261 0 -403 148t-142 409v848h195v-858q0 -190 91 -293q90 -104 259 -104q170 0 260 104q90 103 90 293v858h195v-848q0 -258 -143 -407q-141 -150 -402 -150zM643 1808h100l308 -239l-64 -94l-295 188l-295 -188l-61 94z" />
    <glyph glyph-name="Udieresis" unicode="&#xdc;" horiz-adv-x="1386" 
d="M692 -33q-261 0 -403 148t-142 409v848h195v-858q0 -190 91 -293q90 -104 259 -104q170 0 260 104q90 103 90 293v858h195v-848q0 -258 -143 -407q-141 -150 -402 -150zM907 1546q-47 0 -79 32q-31 31 -31 81q0 49 32 81t78 32q49 0 81 -32t32 -81q0 -51 -31 -82t-82 -31
zM477 1546q-50 0 -81 31t-31 82q0 50 32 82q31 31 80 31q48 0 80 -32q31 -31 31 -81t-31 -81q-32 -32 -80 -32z" />
    <glyph glyph-name="Yacute" unicode="&#xdd;" horiz-adv-x="1220" 
d="M35 1372h207l372 -684l375 684h197l-479 -821v-551h-195v551zM469 1483l-51 100l418 252l82 -158z" />
    <glyph glyph-name="Thorn" unicode="&#xde;" horiz-adv-x="1206" 
d="M176 0v1372h195v-252h286q231 0 352 -111t121 -296q0 -199 -126 -315q-127 -115 -383 -115h-250v-283h-195zM627 983h-256v-561h256q152 0 230 75q77 74 77 208q0 135 -77 207q-77 71 -230 71z" />
    <glyph glyph-name="germandbls" unicode="&#xdf;" horiz-adv-x="1230" 
d="M686 113q125 0 204 77q77 77 77 209q0 143 -89 223q-88 78 -270 78h-47v129h45q124 0 195 65t71 181q0 123 -65 188q-64 64 -193 64q-130 0 -204 -84q-74 -86 -74 -244v-999h-184v940q0 251 120 386q119 134 346 134q206 0 324 -105q119 -107 119 -272q0 -229 -203 -307
q82 -21 142 -60q60 -40 93 -93q32 -53 49 -112q15 -58 15 -124q0 -195 -117 -304q-119 -110 -329 -110q-119 0 -211 37l28 129q63 -26 158 -26z" />
    <glyph glyph-name="agrave" unicode="&#xe0;" horiz-adv-x="1079" 
d="M408 -27q-154 0 -243 74t-89 209q0 72 27 130q25 56 76 96q49 38 112 67q57 27 143 44q85 16 159 23q79 8 171 9v24q0 129 -60 200t-169 71q-96 0 -160 -50q-62 -49 -82 -143h-178q27 150 139 235t289 85q197 0 301 -110q102 -110 102 -329v-608h-168l-10 145
q-55 -82 -149 -127q-95 -45 -211 -45zM455 100q133 0 222 86q87 86 87 213v113q-240 -1 -372 -62q-130 -61 -130 -180q0 -80 53 -125t140 -45zM293 1409l106 125l306 -293l-68 -82z" />
    <glyph glyph-name="aacute" unicode="&#xe1;" horiz-adv-x="1079" 
d="M408 -27q-154 0 -243 74t-89 209q0 72 27 130q25 56 76 96q49 38 112 67q57 27 143 44q85 16 159 23q79 8 171 9v24q0 129 -60 200t-169 71q-96 0 -160 -50q-62 -49 -82 -143h-178q27 150 139 235t289 85q197 0 301 -110q102 -110 102 -329v-608h-168l-10 145
q-55 -82 -149 -127q-95 -45 -211 -45zM455 100q133 0 222 86q87 86 87 213v113q-240 -1 -372 -62q-130 -61 -130 -180q0 -80 53 -125t140 -45zM444 1159l-67 82l305 293l106 -125z" />
    <glyph glyph-name="acircumflex" unicode="&#xe2;" horiz-adv-x="1079" 
d="M408 -27q-154 0 -243 74t-89 209q0 72 27 130q25 56 76 96q49 38 112 67q57 27 143 44q85 16 159 23q79 8 171 9v24q0 129 -60 200t-169 71q-96 0 -160 -50q-62 -49 -82 -143h-178q27 150 139 235t289 85q197 0 301 -110q102 -110 102 -329v-608h-168l-10 145
q-55 -82 -149 -127q-95 -45 -211 -45zM455 100q133 0 222 86q87 86 87 213v113q-240 -1 -372 -62q-130 -61 -130 -180q0 -80 53 -125t140 -45zM283 1147l-70 82l283 295h90l282 -295l-73 -82l-256 229z" />
    <glyph glyph-name="atilde" unicode="&#xe3;" horiz-adv-x="1079" 
d="M408 -27q-154 0 -243 74t-89 209q0 72 27 130q25 56 76 96q49 38 112 67q57 27 143 44q85 16 159 23q79 8 171 9v24q0 129 -60 200t-169 71q-96 0 -160 -50q-62 -49 -82 -143h-178q27 150 139 235t289 85q197 0 301 -110q102 -110 102 -329v-608h-168l-10 145
q-55 -82 -149 -127q-95 -45 -211 -45zM455 100q133 0 222 86q87 86 87 213v113q-240 -1 -372 -62q-130 -61 -130 -180q0 -80 53 -125t140 -45zM508 1278q-61 55 -94 55q-62 0 -84 -133h-117q7 115 61 187q53 71 134 71q42 0 79 -20q39 -23 86 -64q39 -31 58 -42
q19 -13 39 -13q63 0 82 133h118q-10 -117 -62 -188q-52 -70 -132 -70q-43 0 -79 21q-35 18 -89 63z" />
    <glyph glyph-name="adieresis" unicode="&#xe4;" horiz-adv-x="1079" 
d="M408 -27q-154 0 -243 74t-89 209q0 72 27 130q25 56 76 96q49 38 112 67q57 27 143 44q85 16 159 23q79 8 171 9v24q0 129 -60 200t-169 71q-96 0 -160 -50q-62 -49 -82 -143h-178q27 150 139 235t289 85q197 0 301 -110q102 -110 102 -329v-608h-168l-10 145
q-55 -82 -149 -127q-95 -45 -211 -45zM455 100q133 0 222 86q87 86 87 213v113q-240 -1 -372 -62q-130 -61 -130 -180q0 -80 53 -125t140 -45zM733 1186q-45 0 -76 30q-32 30 -32 76q0 45 32 77q31 30 76 30t76 -30t31 -77q0 -46 -31 -76t-76 -30zM348 1186q-45 0 -75 30
q-31 28 -31 76q0 47 31 77q30 30 75 30q46 0 77 -30q32 -32 32 -77q0 -46 -32 -76q-31 -30 -77 -30z" />
    <glyph glyph-name="aring" unicode="&#xe5;" horiz-adv-x="1079" 
d="M408 -27q-154 0 -243 74t-89 209q0 72 27 130q25 56 76 96q49 38 112 67q57 27 143 44q85 16 159 23q79 8 171 9v24q0 129 -60 200t-169 71q-96 0 -160 -50q-62 -49 -82 -143h-178q27 150 139 235t289 85q197 0 301 -110q102 -110 102 -329v-608h-168l-10 145
q-55 -82 -149 -127q-95 -45 -211 -45zM455 100q133 0 222 86q87 86 87 213v113q-240 -1 -372 -62q-130 -61 -130 -180q0 -80 53 -125t140 -45zM541 1141q-102 0 -169 65q-67 64 -67 164q0 102 66 165q67 62 170 62q104 0 171 -62q66 -63 66 -165q0 -100 -67 -164
q-68 -65 -170 -65zM541 1233q60 0 97 37q36 38 36 100q0 60 -36 98q-37 37 -97 37t-96 -37q-37 -37 -37 -98q0 -63 37 -100q36 -37 96 -37z" />
    <glyph glyph-name="ae" unicode="&#xe6;" horiz-adv-x="1789" 
d="M1520 315h178q-44 -168 -164 -254q-121 -88 -291 -88q-137 0 -242 66q-105 63 -161 188q-45 -113 -159 -184q-115 -70 -263 -70q-158 0 -250 74t-92 209q0 359 688 371v22q0 128 -60 200q-62 71 -167 71q-94 0 -159 -50q-66 -50 -85 -143h-178q30 150 141 236
q111 84 289 84q236 0 325 -191q64 92 161 142q94 49 206 49q215 0 344 -144t129 -391v-49h-776q10 -167 90 -264q78 -99 219 -99q212 0 277 215zM1237 920q-121 0 -205 -89q-84 -90 -96 -245h590q-13 155 -88 245q-75 89 -201 89zM463 100q133 0 217 84q84 82 84 213v115
q-502 -9 -502 -238q0 -83 54 -128q53 -46 147 -46z" />
    <glyph glyph-name="ccedilla" unicode="&#xe7;" horiz-adv-x="1101" 
d="M471 -221l27 201q-182 24 -298 164t-116 366q0 122 39 224t107 170q70 70 157 106q89 37 193 37q108 0 200 -39q90 -38 158 -123q67 -86 86 -205h-184q-29 122 -96 179q-70 56 -166 56q-45 0 -90 -14q-43 -13 -82 -45q-42 -32 -69 -77q-30 -49 -46 -115q-17 -71 -17 -154
q0 -103 26 -184q25 -79 70 -127q44 -47 96 -71t112 -24q202 0 268 254h180q-17 -94 -58 -166q-44 -74 -102 -120q-56 -45 -129 -71q-69 -26 -147 -28l-19 -102q26 8 56 8q81 0 136 -50q54 -49 54 -128q0 -93 -68 -152q-69 -57 -184 -57q-67 0 -147 21l8 94q66 -19 137 -19
q62 0 100 29q37 30 37 80q0 43 -28 71q-29 29 -76 29q-46 0 -76 -18h-49z" />
    <glyph glyph-name="egrave" unicode="&#xe8;" horiz-adv-x="1122" 
d="M573 -27q-101 0 -187 34q-87 34 -155 99t-107 169q-40 102 -40 235q0 124 39 227q40 104 106 170q65 66 154 104q87 36 186 36q215 0 344 -144t129 -391v-49h-774q11 -168 90 -265q78 -98 217 -98q220 0 277 215h178q-42 -168 -163 -254q-121 -88 -294 -88zM569 920
q-122 0 -205 -89t-94 -245h588q-13 156 -88 246q-73 88 -201 88zM322 1409l106 125l305 -293l-67 -82z" />
    <glyph glyph-name="eacute" unicode="&#xe9;" horiz-adv-x="1122" 
d="M573 -27q-101 0 -187 34q-87 34 -155 99t-107 169q-40 102 -40 235q0 124 39 227q40 104 106 170q65 66 154 104q87 36 186 36q215 0 344 -144t129 -391v-49h-774q11 -168 90 -265q78 -98 217 -98q220 0 277 215h178q-42 -168 -163 -254q-121 -88 -294 -88zM569 920
q-122 0 -205 -89t-94 -245h588q-13 156 -88 246q-73 88 -201 88zM473 1159l-67 82l305 293l106 -125z" />
    <glyph glyph-name="ecircumflex" unicode="&#xea;" horiz-adv-x="1122" 
d="M573 -27q-101 0 -187 34q-87 34 -155 99t-107 169q-40 102 -40 235q0 124 39 227q40 104 106 170q65 66 154 104q87 36 186 36q215 0 344 -144t129 -391v-49h-774q11 -168 90 -265q78 -98 217 -98q220 0 277 215h178q-42 -168 -163 -254q-121 -88 -294 -88zM569 920
q-122 0 -205 -89t-94 -245h588q-13 156 -88 246q-73 88 -201 88zM311 1147l-69 82l282 295h90l283 -295l-74 -82l-256 229z" />
    <glyph glyph-name="edieresis" unicode="&#xeb;" horiz-adv-x="1122" 
d="M573 -27q-101 0 -187 34q-87 34 -155 99t-107 169q-40 102 -40 235q0 124 39 227q40 104 106 170q65 66 154 104q87 36 186 36q215 0 344 -144t129 -391v-49h-774q11 -168 90 -265q78 -98 217 -98q220 0 277 215h178q-42 -168 -163 -254q-121 -88 -294 -88zM569 920
q-122 0 -205 -89t-94 -245h588q-13 156 -88 246q-73 88 -201 88zM762 1186q-46 0 -77 30q-32 30 -32 76q0 45 32 77q31 30 77 30q44 0 76 -30q30 -30 30 -77q0 -48 -30 -76q-32 -30 -76 -30zM377 1186q-45 0 -76 30t-31 76q0 47 31 77t76 30t77 -30q31 -31 31 -77t-31 -76
q-32 -30 -77 -30z" />
    <glyph glyph-name="igrave" unicode="&#xec;" horiz-adv-x="487" 
d="M336 0h-184v1020h184v-1020zM12 1411l123 113l244 -303l-84 -72z" />
    <glyph glyph-name="iacute" unicode="&#xed;" horiz-adv-x="487" 
d="M336 0h-184v1020h184v-1020zM188 1149l-84 72l244 303l123 -113z" />
    <glyph glyph-name="icircumflex" unicode="&#xee;" horiz-adv-x="487" 
d="M336 0h-184v1020h184v-1020zM197 1513h90l245 -305l-73 -73l-217 223l-215 -223l-74 73z" />
    <glyph glyph-name="idieresis" unicode="&#xef;" horiz-adv-x="487" 
d="M336 0h-184v1020h184v-1020zM76 1184q-47 0 -78 31q-31 30 -31 77t31 78t78 31q46 0 77 -31t31 -78t-31 -77q-31 -31 -77 -31zM408 1184q-47 0 -78 31q-31 30 -31 77t31 78t78 31t78 -31q30 -32 30 -78q0 -47 -30 -77q-31 -31 -78 -31z" />
    <glyph glyph-name="eth" unicode="&#xf0;" horiz-adv-x="1144" 
d="M575 -27q-217 0 -354 146t-137 377q0 221 125 367q124 145 313 145q112 0 201 -53q87 -52 139 -146q-16 123 -80 231q-63 105 -168 179l-192 -154l-66 82l162 127q-92 46 -207 61l31 138q170 -18 311 -93l172 136l62 -80l-144 -115q153 -113 236 -301q82 -186 82 -438
q0 -286 -134 -447q-135 -162 -352 -162zM575 104q134 0 215 107q80 107 80 281q0 171 -83 275q-84 103 -212 103q-140 0 -219 -106q-80 -107 -80 -277q0 -171 82 -277q81 -106 217 -106z" />
    <glyph glyph-name="ntilde" unicode="&#xf1;" horiz-adv-x="1177" 
d="M334 0h-184v1020h167l11 -176q52 99 145 152q93 51 203 51q181 0 275 -108q93 -110 93 -302v-637h-184v610q0 297 -239 297q-127 0 -207 -98t-80 -283v-526zM563 1278q-61 55 -94 55q-62 0 -84 -133h-117q7 115 61 187q53 71 134 71q42 0 80 -20q39 -23 86 -64
q37 -30 57 -42q19 -13 39 -13q63 0 82 133h119q-10 -116 -62 -187q-53 -71 -133 -71q-43 0 -79 21q-35 18 -89 63z" />
    <glyph glyph-name="ograve" unicode="&#xf2;" horiz-adv-x="1167" 
d="M584 -27q-221 0 -361 152q-139 151 -139 385t139 385q140 152 361 152t361 -152q138 -151 138 -385t-138 -385q-140 -152 -361 -152zM584 104q141 0 225 112t84 294t-84 294q-84 111 -225 111t-225 -112q-85 -112 -85 -293q0 -182 85 -294q84 -112 225 -112zM336 1409
l106 125l306 -293l-68 -82z" />
    <glyph glyph-name="oacute" unicode="&#xf3;" horiz-adv-x="1167" 
d="M584 -27q-221 0 -361 152q-139 151 -139 385t139 385q140 152 361 152t361 -152q138 -151 138 -385t-138 -385q-140 -152 -361 -152zM584 104q141 0 225 112t84 294t-84 294q-84 111 -225 111t-225 -112q-85 -112 -85 -293q0 -182 85 -294q84 -112 225 -112zM487 1159
l-67 82l305 293l106 -125z" />
    <glyph glyph-name="ocircumflex" unicode="&#xf4;" horiz-adv-x="1167" 
d="M584 -27q-221 0 -361 152q-139 151 -139 385t139 385q140 152 361 152t361 -152q138 -151 138 -385t-138 -385q-140 -152 -361 -152zM584 104q141 0 225 112t84 294t-84 294q-84 111 -225 111t-225 -112q-85 -112 -85 -293q0 -182 85 -294q84 -112 225 -112zM326 1147
l-70 82l283 295h90l282 -295l-73 -82l-256 229z" />
    <glyph glyph-name="otilde" unicode="&#xf5;" horiz-adv-x="1167" 
d="M584 -27q-221 0 -361 152q-139 151 -139 385t139 385q140 152 361 152t361 -152q138 -151 138 -385t-138 -385q-140 -152 -361 -152zM584 104q141 0 225 112t84 294t-84 294q-84 111 -225 111t-225 -112q-85 -112 -85 -293q0 -182 85 -294q84 -112 225 -112zM551 1278
q-61 55 -94 55q-62 0 -84 -133h-117q7 115 61 187q53 71 134 71q42 0 79 -20q39 -23 86 -64q39 -31 58 -42q19 -13 39 -13q63 0 82 133h118q-10 -117 -62 -188q-52 -70 -132 -70q-43 0 -79 21q-35 18 -89 63z" />
    <glyph glyph-name="odieresis" unicode="&#xf6;" horiz-adv-x="1167" 
d="M584 -27q-221 0 -361 152q-139 151 -139 385t139 385q140 152 361 152t361 -152q138 -151 138 -385t-138 -385q-140 -152 -361 -152zM584 104q141 0 225 112t84 294t-84 294q-84 111 -225 111t-225 -112q-85 -112 -85 -293q0 -182 85 -294q84 -112 225 -112zM776 1186
q-44 0 -76 30t-32 76q0 45 32 77q32 30 76 30t76 -30q31 -30 31 -77q0 -46 -31 -76q-32 -30 -76 -30zM391 1186q-45 0 -75 30q-31 28 -31 76q0 47 31 77q30 30 75 30t77 -30q32 -32 32 -77q0 -46 -32 -76t-77 -30z" />
    <glyph glyph-name="divide" unicode="&#xf7;" horiz-adv-x="1208" 
d="M604 938q-47 0 -78 31q-32 32 -32 78q0 49 31 80q31 30 79 30t79 -30q30 -31 30 -80q0 -47 -31 -78t-78 -31zM1038 606h-868v139h868v-139zM604 195q-46 0 -78 32t-32 78t32 78q31 31 78 31t78 -31t31 -78t-31 -78q-32 -32 -78 -32z" />
    <glyph glyph-name="oslash" unicode="&#xf8;" horiz-adv-x="1167" 
d="M252 -92l-107 69l91 134q-152 152 -152 399q0 234 139 385q140 152 361 152q132 0 243 -60l86 127l107 -72l-90 -131q153 -153 153 -401q0 -234 -138 -385q-140 -152 -361 -152q-133 0 -246 62zM274 510q0 -151 62 -258l412 612q-68 51 -164 51q-141 0 -225 -112
q-85 -112 -85 -293zM584 104q141 0 225 112t84 294q0 156 -64 262l-411 -614q74 -54 166 -54z" />
    <glyph glyph-name="ugrave" unicode="&#xf9;" horiz-adv-x="1157" 
d="M821 1020h185v-1020h-168l-11 166q-52 -96 -140 -144q-88 -49 -195 -49q-174 0 -265 109q-92 109 -92 301v637h184v-610q0 -297 228 -297q119 0 197 99q77 98 77 282v526zM322 1409l106 125l305 -293l-67 -82z" />
    <glyph glyph-name="uacute" unicode="&#xfa;" horiz-adv-x="1157" 
d="M821 1020h185v-1020h-168l-11 166q-52 -96 -140 -144q-88 -49 -195 -49q-174 0 -265 109q-92 109 -92 301v637h184v-610q0 -297 228 -297q119 0 197 99q77 98 77 282v526zM473 1159l-67 82l305 293l106 -125z" />
    <glyph glyph-name="ucircumflex" unicode="&#xfb;" horiz-adv-x="1157" 
d="M821 1020h185v-1020h-168l-11 166q-52 -96 -140 -144q-88 -49 -195 -49q-174 0 -265 109q-92 109 -92 301v637h184v-610q0 -297 228 -297q119 0 197 99q77 98 77 282v526zM311 1147l-69 82l282 295h90l283 -295l-74 -82l-256 229z" />
    <glyph glyph-name="udieresis" unicode="&#xfc;" horiz-adv-x="1157" 
d="M821 1020h185v-1020h-168l-11 166q-52 -96 -140 -144q-88 -49 -195 -49q-174 0 -265 109q-92 109 -92 301v637h184v-610q0 -297 228 -297q119 0 197 99q77 98 77 282v526zM762 1186q-46 0 -77 30q-32 30 -32 76q0 45 32 77q31 30 77 30q44 0 76 -30q30 -30 30 -77
q0 -48 -30 -76q-32 -30 -76 -30zM377 1186q-45 0 -76 30t-31 76q0 47 31 77t76 30t77 -30q31 -31 31 -77t-31 -76q-32 -30 -77 -30z" />
    <glyph glyph-name="yacute" unicode="&#xfd;" horiz-adv-x="1011" 
d="M-10 -414l43 129q68 -30 139 -30q64 0 112 42q48 43 85 134l67 164l-405 995h194l293 -805l289 805h180l-463 -1180q-57 -153 -141 -225t-205 -72q-102 0 -188 43zM420 1159l-68 82l305 293l107 -125z" />
    <glyph glyph-name="thorn" unicode="&#xfe;" horiz-adv-x="1187" 
d="M662 -27q-107 0 -192 49q-85 48 -136 132v-584h-184v1864h184v-578q52 91 143 141q89 50 193 50q132 0 233 -71q99 -70 150 -192t51 -274q0 -238 -122 -387q-122 -150 -320 -150zM618 111q137 0 216 112t79 287t-79 287t-216 112q-123 0 -205 -103q-83 -104 -83 -280v-30
q0 -180 84 -283q82 -102 204 -102z" />
    <glyph glyph-name="ydieresis" unicode="&#xff;" horiz-adv-x="1011" 
d="M-10 -414l43 129q68 -30 139 -30q64 0 112 42q48 43 85 134l67 164l-405 995h194l293 -805l289 805h180l-463 -1180q-57 -153 -141 -225t-205 -72q-102 0 -188 43zM324 1186q-45 0 -76 30t-31 76q0 47 31 77t76 30q46 0 77 -30q31 -31 31 -77t-31 -76t-77 -30zM709 1186
q-45 0 -77 30t-32 76q0 45 32 77q32 30 77 30t76 -30q30 -30 30 -77q0 -48 -30 -76q-31 -30 -76 -30z" />
    <glyph glyph-name="Amacron" unicode="&#x100;" horiz-adv-x="1306" 
d="M1262 0h-199l-113 328h-600l-114 -328h-191l508 1372h203zM651 1190l-250 -715h498zM989 1563h-667v143h667v-143z" />
    <glyph glyph-name="amacron" unicode="&#x101;" horiz-adv-x="1079" 
d="M408 -27q-154 0 -243 74t-89 209q0 72 27 130q25 56 76 96q49 38 112 67q57 27 143 44q85 16 159 23q79 8 171 9v24q0 129 -60 200t-169 71q-96 0 -160 -50q-62 -49 -82 -143h-178q27 150 139 235t289 85q197 0 301 -110q102 -110 102 -329v-608h-168l-10 145
q-55 -82 -149 -127q-95 -45 -211 -45zM455 100q133 0 222 86q87 86 87 213v113q-240 -1 -372 -62q-130 -61 -130 -180q0 -80 53 -125t140 -45zM834 1225h-586v131h586v-131z" />
    <glyph glyph-name="Abreve" unicode="&#x102;" horiz-adv-x="1306" 
d="M1262 0h-199l-113 328h-600l-114 -328h-191l508 1372h203zM651 1190l-250 -715h498zM655 1511q-143 0 -240 85q-98 84 -104 204h131q10 -64 70 -111q59 -47 143 -47q86 0 144 47t65 111h133q-9 -122 -101 -205q-93 -84 -241 -84z" />
    <glyph glyph-name="abreve" unicode="&#x103;" horiz-adv-x="1079" 
d="M408 -27q-154 0 -243 74t-89 209q0 72 27 130q25 56 76 96q49 38 112 67q57 27 143 44q85 16 159 23q79 8 171 9v24q0 129 -60 200t-169 71q-96 0 -160 -50q-62 -49 -82 -143h-178q27 150 139 235t289 85q197 0 301 -110q102 -110 102 -329v-608h-168l-10 145
q-55 -82 -149 -127q-95 -45 -211 -45zM455 100q133 0 222 86q87 86 87 213v113q-240 -1 -372 -62q-130 -61 -130 -180q0 -80 53 -125t140 -45zM541 1169q-129 0 -214 82q-86 83 -98 213h125q12 -76 63 -124t124 -48q72 0 123 48t63 124h125q-12 -131 -97 -213t-214 -82z" />
    <glyph glyph-name="Aogonek" unicode="&#x104;" horiz-adv-x="1306" 
d="M1108 -496q-123 0 -188 58q-66 58 -66 155q0 88 50 158t159 125l-113 328h-600l-114 -328h-191l508 1372h203l506 -1372h-29q-229 -78 -229 -246q0 -56 36 -91q35 -34 97 -34q55 0 120 21v-121q-78 -25 -149 -25zM651 1190l-250 -715h498z" />
    <glyph glyph-name="aogonek" unicode="&#x105;" horiz-adv-x="1079" 
d="M807 -487q-114 0 -178 56q-64 57 -64 150q0 183 211 289l-8 137q-55 -82 -149 -127q-95 -45 -211 -45q-154 0 -243 74t-89 209q0 72 27 130q25 56 76 96q49 38 112 67q57 27 143 44q85 16 159 23q79 8 171 9v24q0 129 -60 200t-169 71q-96 0 -160 -50q-62 -49 -82 -143
h-178q27 150 139 235t289 85q197 0 301 -110q102 -110 102 -329v-608h-22q-222 -74 -222 -242q0 -61 37 -97t97 -36q56 0 110 19v-109q-72 -22 -139 -22zM455 100q133 0 222 86q87 86 87 213v113q-240 -1 -372 -62q-130 -61 -130 -180q0 -80 53 -125t140 -45z" />
    <glyph glyph-name="Cacute" unicode="&#x106;" horiz-adv-x="1413" 
d="M735 -33q-196 0 -340 92q-145 91 -220 253t-75 374q0 208 75 372q75 162 220 255q146 92 340 92q239 0 397 -132q158 -134 201 -364h-207q-34 164 -137 256q-102 90 -254 90q-204 0 -317 -155q-113 -152 -113 -414q0 -261 113 -416q114 -153 317 -153q150 0 252 87
q103 88 137 247h205q-37 -223 -197 -354q-158 -130 -397 -130zM582 1483l-52 100l418 252l82 -158z" />
    <glyph glyph-name="cacute" unicode="&#x107;" horiz-adv-x="1101" 
d="M578 -27q-102 0 -191 36q-90 35 -157 102q-69 67 -107 169q-39 104 -39 230q0 122 39 224t107 170q70 70 157 106q89 37 193 37q108 0 200 -39q90 -38 158 -123q67 -86 86 -205h-184q-29 122 -96 179q-70 56 -166 56q-45 0 -90 -14q-43 -13 -82 -45q-42 -32 -69 -77
q-30 -49 -46 -115q-17 -71 -17 -154q0 -103 26 -184q25 -79 70 -127q44 -47 96 -71t112 -24q202 0 268 254h180q-23 -126 -90 -214q-70 -90 -160 -130q-93 -41 -198 -41zM483 1159l-67 82l305 293l106 -125z" />
    <glyph glyph-name="Cdotaccent" unicode="&#x10a;" horiz-adv-x="1413" 
d="M735 -33q-196 0 -340 92q-145 91 -220 253t-75 374q0 208 75 372q75 162 220 255q146 92 340 92q239 0 397 -132q158 -134 201 -364h-207q-34 164 -137 256q-102 90 -254 90q-204 0 -317 -155q-113 -152 -113 -414q0 -261 113 -416q114 -153 317 -153q150 0 252 87
q103 88 137 247h205q-37 -223 -197 -354q-158 -130 -397 -130zM729 1542q-53 0 -88 35t-35 86q0 50 35 85q34 34 88 34q55 0 89 -34t34 -85t-35 -86t-88 -35z" />
    <glyph glyph-name="cdotaccent" unicode="&#x10b;" horiz-adv-x="1101" 
d="M578 -27q-102 0 -191 36q-90 35 -157 102q-69 67 -107 169q-39 104 -39 230q0 122 39 224t107 170q70 70 157 106q89 37 193 37q108 0 200 -39q90 -38 158 -123q67 -86 86 -205h-184q-29 122 -96 179q-70 56 -166 56q-45 0 -90 -14q-43 -13 -82 -45q-42 -32 -69 -77
q-30 -49 -46 -115q-17 -71 -17 -154q0 -103 26 -184q25 -79 70 -127q44 -47 96 -71t112 -24q202 0 268 254h180q-23 -126 -90 -214q-70 -90 -160 -130q-93 -41 -198 -41zM580 1192q-50 0 -85 33q-34 33 -34 84q0 49 34 82q35 32 85 32t85 -32q33 -33 33 -82q0 -51 -33 -84
q-35 -33 -85 -33z" />
    <glyph glyph-name="Ccaron" unicode="&#x10c;" horiz-adv-x="1413" 
d="M735 -33q-196 0 -340 92q-145 91 -220 253t-75 374q0 208 75 372q75 162 220 255q146 92 340 92q239 0 397 -132q158 -134 201 -364h-207q-34 164 -137 256q-102 90 -254 90q-204 0 -317 -155q-113 -152 -113 -414q0 -261 113 -416q114 -153 317 -153q150 0 252 87
q103 88 137 247h205q-37 -223 -197 -354q-158 -130 -397 -130zM780 1501h-100l-307 240l61 94l295 -188l295 188l63 -94z" />
    <glyph glyph-name="ccaron" unicode="&#x10d;" horiz-adv-x="1101" 
d="M578 -27q-102 0 -191 36q-90 35 -157 102q-69 67 -107 169q-39 104 -39 230q0 122 39 224t107 170q70 70 157 106q89 37 193 37q108 0 200 -39q90 -38 158 -123q67 -86 86 -205h-184q-29 122 -96 179q-70 56 -166 56q-45 0 -90 -14q-43 -13 -82 -45q-42 -32 -69 -77
q-30 -49 -46 -115q-17 -71 -17 -154q0 -103 26 -184q25 -79 70 -127q44 -47 96 -71t112 -24q202 0 268 254h180q-23 -126 -90 -214q-70 -90 -160 -130q-93 -41 -198 -41zM838 1544l69 -82l-282 -295h-90l-283 295l74 82l256 -229z" />
    <glyph glyph-name="Dcaron" unicode="&#x10e;" horiz-adv-x="1437" 
d="M602 0h-426v1372h424q183 0 324 -52q142 -52 232 -145q91 -94 137 -217t46 -272t-46 -272q-47 -125 -137 -217q-90 -93 -232 -145q-141 -52 -322 -52zM600 1229h-238v-1084h238q267 0 400 144q133 142 133 397q0 258 -131 401q-130 142 -402 142zM692 1501h-100l-307 240
l61 94l295 -188l295 188l63 -94z" />
    <glyph glyph-name="dcaron" unicode="&#x10f;" horiz-adv-x="1273" 
d="M526 1047q107 0 193 -47q84 -48 135 -132v566h184v-1434h-168l-10 170q-52 -92 -144 -145q-91 -52 -196 -52q-132 0 -233 71q-100 70 -151 192q-52 120 -52 274q0 237 122 388q122 149 320 149zM569 909q-137 0 -216 -112t-79 -287t79 -287t216 -112q122 0 206 104
q83 104 83 281v30q0 178 -84 281q-82 102 -205 102zM1272 1077h-80v357h145v-17q0 -81 -19 -182q-19 -102 -46 -158z" />
    <glyph glyph-name="Dcroat" unicode="&#x110;" horiz-adv-x="1478" 
d="M643 0h-426v623h-168v135h168v614h424q183 0 324 -52q142 -52 232 -145q91 -94 137 -217t46 -272t-46 -272q-47 -125 -137 -217q-90 -93 -232 -145q-141 -52 -322 -52zM803 758v-135h-400v-478h238q267 0 400 144q133 142 133 397q0 258 -131 401q-130 142 -402 142h-238
v-471h400z" />
    <glyph glyph-name="dslash" unicode="&#x111;" horiz-adv-x="1198" 
d="M520 -27q-200 0 -318 145t-118 371t122 372q121 145 320 145q107 0 193 -50q84 -51 135 -139v338h-338v113h338v166h184v-166h148v-113h-148v-1155h-168l-10 170q-52 -92 -144 -145q-91 -52 -196 -52zM569 868q-137 0 -216 -106t-79 -273q0 -166 79 -272t216 -106
q121 0 205 100q84 99 84 264v31q0 162 -82 262t-207 100z" />
    <glyph glyph-name="Emacron" unicode="&#x112;" horiz-adv-x="1144" 
d="M1044 0h-868v1372h860v-149h-665v-461h602v-144h-602v-468h673v-150zM940 1563h-668v143h668v-143z" />
    <glyph glyph-name="emacron" unicode="&#x113;" horiz-adv-x="1122" 
d="M573 -27q-101 0 -187 34q-87 34 -155 99t-107 169q-40 102 -40 235q0 124 39 227q40 104 106 170q65 66 154 104q87 36 186 36q215 0 344 -144t129 -391v-49h-774q11 -168 90 -265q78 -98 217 -98q220 0 277 215h178q-42 -168 -163 -254q-121 -88 -294 -88zM569 920
q-122 0 -205 -89t-94 -245h588q-13 156 -88 246q-73 88 -201 88zM862 1225h-586v131h586v-131z" />
    <glyph glyph-name="Edotaccent" unicode="&#x116;" horiz-adv-x="1144" 
d="M1044 0h-868v1372h860v-149h-665v-461h602v-144h-602v-468h673v-150zM606 1542q-53 0 -88 35t-35 86q0 50 35 85q34 34 88 34q55 0 89 -34t34 -85q0 -52 -34 -86q-35 -35 -89 -35z" />
    <glyph glyph-name="edotaccent" unicode="&#x117;" horiz-adv-x="1122" 
d="M573 -27q-101 0 -187 34q-87 34 -155 99t-107 169q-40 102 -40 235q0 124 39 227q40 104 106 170q65 66 154 104q87 36 186 36q215 0 344 -144t129 -391v-49h-774q11 -168 90 -265q78 -98 217 -98q220 0 277 215h178q-42 -168 -163 -254q-121 -88 -294 -88zM569 920
q-122 0 -205 -89t-94 -245h588q-13 156 -88 246q-73 88 -201 88zM569 1192q-51 0 -84 33q-34 33 -34 84q0 49 34 82q34 32 84 32t85 -32q34 -33 34 -82q0 -51 -34 -84t-85 -33z" />
    <glyph glyph-name="Eogonek" unicode="&#x118;" horiz-adv-x="1144" 
d="M895 -496q-123 0 -188 58q-66 58 -66 155q0 88 50 158t159 125h-674v1372h860v-149h-665v-461h602v-144h-602v-468h673v-150h-24q-229 -78 -229 -246q0 -56 36 -91q35 -34 97 -34q56 0 120 21v-121q-78 -25 -149 -25z" />
    <glyph glyph-name="eogonek" unicode="&#x119;" horiz-adv-x="1122" 
d="M739 -487q-113 0 -177 56q-64 57 -64 150q0 152 139 258q-36 -4 -64 -4q-101 0 -187 34q-87 34 -155 99t-107 169q-40 102 -40 235q0 124 39 227q40 104 106 170q65 66 154 104q87 36 186 36q215 0 344 -144t129 -391v-49h-774q11 -168 90 -265q78 -98 217 -98
q220 0 277 215h178q-48 -188 -199 -278q-103 -70 -150 -137q-46 -64 -46 -144q0 -60 37 -96q37 -35 96 -35q57 0 111 19v-109q-72 -22 -140 -22zM569 920q-122 0 -205 -89t-94 -245h588q-13 156 -88 246q-73 88 -201 88z" />
    <glyph glyph-name="Ecaron" unicode="&#x11a;" horiz-adv-x="1144" 
d="M1044 0h-868v1372h860v-149h-665v-461h602v-144h-602v-468h673v-150zM657 1501h-100l-307 240l61 94l295 -188l295 188l64 -94z" />
    <glyph glyph-name="ecaron" unicode="&#x11b;" horiz-adv-x="1122" 
d="M573 -27q-101 0 -187 34q-87 34 -155 99t-107 169q-40 102 -40 235q0 124 39 227q40 104 106 170q65 66 154 104q87 36 186 36q215 0 344 -144t129 -391v-49h-774q11 -168 90 -265q78 -98 217 -98q220 0 277 215h178q-42 -168 -163 -254q-121 -88 -294 -88zM569 920
q-122 0 -205 -89t-94 -245h588q-13 156 -88 246q-73 88 -201 88zM827 1544l70 -82l-283 -295h-90l-282 295l73 82l256 -229z" />
    <glyph glyph-name="Gbreve" unicode="&#x11e;" horiz-adv-x="1470" 
d="M100 686q0 158 46 290q45 133 129 227q83 95 206 149q123 53 271 53q244 0 404 -127q159 -127 196 -350h-207q-31 159 -132 245q-102 84 -261 84q-205 0 -327 -155q-122 -157 -122 -416q0 -258 122 -415q121 -156 327 -156q191 0 302 111q112 112 128 315h-377v145h565
v-61q0 -145 -39 -263q-41 -121 -116 -208q-77 -89 -194 -138t-269 -49q-200 0 -349 93q-150 92 -226 255q-77 163 -77 371zM752 1511q-143 0 -240 85q-98 84 -104 204h131q10 -64 70 -111q59 -47 143 -47q86 0 144 47t65 111h133q-9 -122 -101 -205q-93 -84 -241 -84z" />
    <glyph glyph-name="gbreve" unicode="&#x11f;" horiz-adv-x="1187" 
d="M559 -457q-177 0 -296 89q-120 91 -148 259h180q19 -108 91 -166q71 -57 173 -57q143 0 218 86q75 87 75 258v162q-55 -87 -142 -133q-89 -47 -194 -47q-197 0 -314 148q-118 148 -118 380q0 230 123 378q121 147 317 147q113 0 199 -50q85 -49 135 -137l10 160h168v-950
q0 -527 -477 -527zM567 131q123 0 206 101t83 274v33q0 169 -81 270q-82 100 -208 100q-135 0 -214 -109t-79 -278q0 -172 79 -281q80 -110 214 -110zM571 1169q-129 0 -214 82t-97 213h125q12 -76 63 -124t123 -48q73 0 124 48t63 124h125q-12 -131 -97 -213t-215 -82z" />
    <glyph glyph-name="Gdotaccent" unicode="&#x120;" horiz-adv-x="1470" 
d="M100 686q0 158 46 290q45 133 129 227q83 95 206 149q123 53 271 53q244 0 404 -127q159 -127 196 -350h-207q-31 159 -132 245q-102 84 -261 84q-205 0 -327 -155q-122 -157 -122 -416q0 -258 122 -415q121 -156 327 -156q191 0 302 111q112 112 128 315h-377v145h565
v-61q0 -145 -39 -263q-41 -121 -116 -208q-77 -89 -194 -138t-269 -49q-200 0 -349 93q-150 92 -226 255q-77 163 -77 371zM752 1542q-53 0 -88 35t-35 86q0 50 35 85q34 34 88 34t88 -34t34 -85q0 -52 -34 -86q-35 -35 -88 -35z" />
    <glyph glyph-name="gdotaccent" unicode="&#x121;" horiz-adv-x="1187" 
d="M559 -457q-177 0 -296 89q-120 91 -148 259h180q19 -108 91 -166q71 -57 173 -57q143 0 218 86q75 87 75 258v162q-55 -87 -142 -133q-89 -47 -194 -47q-197 0 -314 148q-118 148 -118 380q0 230 123 378q121 147 317 147q113 0 199 -50q85 -49 135 -137l10 160h168v-950
q0 -527 -477 -527zM567 131q123 0 206 101t83 274v33q0 169 -81 270q-82 100 -208 100q-135 0 -214 -109t-79 -278q0 -172 79 -281q80 -110 214 -110zM571 1192q-51 0 -84 33q-34 33 -34 84q0 49 34 82q34 32 84 32t85 -32q34 -33 34 -82q0 -51 -34 -84t-85 -33z" />
    <glyph glyph-name="uni0122" unicode="&#x122;" horiz-adv-x="1470" 
d="M100 686q0 158 46 290q45 133 129 227q83 95 206 149q123 53 271 53q244 0 404 -127q159 -127 196 -350h-207q-31 159 -132 245q-102 84 -261 84q-205 0 -327 -155q-122 -157 -122 -416q0 -258 122 -415q121 -156 327 -156q191 0 302 111q112 112 128 315h-377v145h565
v-61q0 -145 -39 -263q-41 -121 -116 -208q-77 -89 -194 -138t-269 -49q-200 0 -349 93q-150 92 -226 255q-77 163 -77 371zM616 -633v90q115 43 136 137q-45 0 -79 32q-34 31 -34 81q0 49 33 80q31 31 82 31t86 -41q34 -40 34 -109q0 -110 -66 -188q-67 -79 -192 -113z" />
    <glyph glyph-name="uni0123" unicode="&#x123;" horiz-adv-x="1187" 
d="M559 -457q-177 0 -296 89q-120 91 -148 259h180q19 -108 91 -166q71 -57 173 -57q143 0 218 86q75 87 75 258v162q-55 -87 -142 -133q-89 -47 -194 -47q-197 0 -314 148q-118 148 -118 380q0 230 123 378q121 147 317 147q113 0 199 -50q85 -49 135 -137l10 160h168v-950
q0 -527 -477 -527zM567 131q123 0 206 101t83 274v33q0 169 -81 270q-82 100 -208 100q-135 0 -214 -109t-79 -278q0 -172 79 -281q80 -110 214 -110zM694 1614v-82q-112 -46 -127 -133q45 0 76 -31t31 -78q0 -45 -31 -75q-31 -31 -78 -31q-50 0 -81 40q-33 40 -33 107
q0 103 63 177q63 75 180 106z" />
    <glyph glyph-name="Hbar" unicode="&#x126;" horiz-adv-x="1515" 
d="M412 0h-195v997h-168v127h168v248h195v-248h692v248h194v-248h168v-127h-168v-997h-194v608h-692v-608zM412 997v-241h692v241h-692z" />
    <glyph glyph-name="hbar" unicode="&#x127;" horiz-adv-x="1208" 
d="M365 0h-185v1155h-147v113h147v166h185v-166h337v-113h-337v-350q49 99 141 150t201 51q181 0 275 -108q93 -109 93 -302v-596h-184v569q0 297 -240 297q-127 0 -207 -98q-79 -97 -79 -283v-485z" />
    <glyph glyph-name="Itilde" unicode="&#x128;" horiz-adv-x="546" 
d="M371 0h-195v1372h195v-1372zM236 1608q-57 57 -103 57q-30 0 -57 -33t-39 -106h-127q12 122 71 198q60 74 150 74q85 0 182 -88q57 -57 103 -57q30 0 57 33t39 106h127q-12 -122 -71 -198q-60 -76 -150 -76q-83 0 -182 90z" />
    <glyph glyph-name="itilde" unicode="&#x129;" horiz-adv-x="487" 
d="M336 0h-184v1020h184v-1020zM211 1280q-30 30 -48 43q-18 12 -36 12q-63 0 -76 -135h-106q10 117 57 188q46 70 119 70q41 0 75 -21q39 -26 76 -65q31 -31 49 -43q17 -12 35 -12q63 0 76 133h107q-10 -118 -57 -187q-46 -69 -120 -69q-41 0 -75 22q-38 23 -76 64z" />
    <glyph glyph-name="Imacron" unicode="&#x12a;" horiz-adv-x="546" 
d="M371 0h-195v1372h195v-1372zM608 1563h-667v143h667v-143z" />
    <glyph glyph-name="imacron" unicode="&#x12b;" horiz-adv-x="487" 
d="M336 0h-184v1020h184v-1020zM502 1225h-520v131h520v-131z" />
    <glyph glyph-name="Iogonek" unicode="&#x12e;" horiz-adv-x="546" 
d="M246 -496q-123 0 -188 58q-66 58 -66 155q0 88 50 158t159 125h-25v1372h195v-1372q-230 -78 -230 -246q0 -56 36 -91q35 -34 97 -34q56 0 121 21v-121q-78 -25 -149 -25z" />
    <glyph glyph-name="iogonek" unicode="&#x12f;" horiz-adv-x="487" 
d="M219 -487q-114 0 -178 56q-64 57 -64 150q0 175 195 281h-20v1020h184v-1020q-221 -74 -221 -242q0 -61 37 -97q36 -36 96 -36q56 0 110 19v-109q-72 -22 -139 -22zM242 1192q-50 0 -83 33q-34 33 -34 84q0 49 34 82q34 32 83 32q50 0 85 -32q33 -33 33 -82
q0 -51 -33 -84q-34 -33 -85 -33z" />
    <glyph glyph-name="Idot" unicode="&#x130;" horiz-adv-x="546" 
d="M371 0h-195v1372h195v-1372zM274 1542q-52 0 -87 35t-35 86t34 85t88 34q55 0 89 -34t34 -85q0 -52 -34 -86q-35 -35 -89 -35z" />
    <glyph glyph-name="dotlessi" unicode="&#x131;" horiz-adv-x="487" 
d="M336 0h-184v1020h184v-1020z" />
    <glyph glyph-name="IJ" unicode="&#x132;" horiz-adv-x="1327" 
d="M664 -33q-222 0 -355 123q-135 124 -157 344h192q19 -154 99 -235q79 -82 221 -82q319 0 319 409v846h193v-833q0 -281 -138 -426q-138 -146 -374 -146zM346 1372v-739h-194v739h194z" />
    <glyph glyph-name="ij" unicode="&#x133;" horiz-adv-x="1157" 
d="M109 1309q0 49 33 82q34 32 83 32q50 0 85 -32q34 -33 34 -82q0 -50 -34 -83q-34 -34 -85 -34q-49 0 -82 34q-34 33 -34 83zM793 1309q0 49 34 82q35 32 84 32q50 0 85 -32q34 -33 34 -82q0 -50 -34 -83q-34 -34 -85 -34q-50 0 -84 34t-34 83zM127 -109h180
q18 -112 82 -167q64 -56 162 -56q129 0 200 86q70 86 70 258v168q-51 -86 -139 -134q-86 -46 -190 -46q-174 0 -265 109q-92 109 -92 301v610h184v-584q0 -146 59 -222q58 -75 169 -75q119 0 197 99q77 98 77 282v500h185v-950q0 -260 -116 -394q-115 -133 -339 -133
q-169 0 -285 90q-115 90 -139 258z" />
    <glyph glyph-name="uni0136" unicode="&#x136;" horiz-adv-x="1263" 
d="M371 0h-195v1372h195v-629l604 629h233l-659 -672q200 -60 360 -206q213 -193 322 -494h-221q-77 233 -244 397q-183 180 -395 205v-602zM535 -633v90q114 43 135 137q-45 0 -79 32q-34 31 -34 81q0 49 33 80q31 31 82 31q52 0 87 -41q34 -40 34 -109q0 -110 -66 -188
q-67 -79 -192 -113z" />
    <glyph glyph-name="uni0137" unicode="&#x137;" horiz-adv-x="1044" 
d="M334 0h-184v1434h184v-844l444 432h209l-495 -467q150 -53 266 -160q175 -159 258 -395h-203q-56 180 -184 305q-128 122 -295 170v-475zM430 -616v81q118 40 133 140h-2q-43 0 -75 30q-31 30 -31 76q0 47 31 77q30 30 77 30q49 0 83 -40q34 -38 34 -104q0 -103 -64 -179
q-64 -77 -186 -111z" />
    <glyph glyph-name="Lacute" unicode="&#x139;" horiz-adv-x="1067" 
d="M1008 0h-832v1372h195v-1222h637v-150zM127 1483l-51 100l418 252l81 -158z" />
    <glyph glyph-name="lacute" unicode="&#x13a;" horiz-adv-x="487" 
d="M336 0h-184v1434h184v-1434zM127 1546l-51 96l360 236l78 -145z" />
    <glyph glyph-name="uni013B" unicode="&#x13b;" horiz-adv-x="1067" 
d="M1008 0h-832v1372h195v-1222h637v-150zM457 -633v90q114 43 135 137q-45 0 -79 32q-34 31 -34 81q0 49 33 80q31 31 82 31q52 0 87 -41q34 -40 34 -109q0 -110 -66 -188q-67 -79 -192 -113z" />
    <glyph glyph-name="uni013C" unicode="&#x13c;" horiz-adv-x="487" 
d="M336 0h-184v1434h184v-1434zM113 -616v81q118 40 133 140h-2q-44 0 -75 30q-32 30 -32 76q0 47 31 77q32 30 78 30q49 0 83 -40q33 -39 33 -104q0 -104 -64 -180q-65 -76 -185 -110z" />
    <glyph glyph-name="Lcaron" unicode="&#x13d;" horiz-adv-x="1067" 
d="M1008 0h-832v1372h195v-1222h637v-150zM752 995h-86v377h155v-20q0 -80 -20 -191q-21 -110 -49 -166z" />
    <glyph glyph-name="lcaron" unicode="&#x13e;" horiz-adv-x="571" 
d="M336 0h-184v1434h184v-1434zM571 1077h-79v357h145v-17q0 -76 -20 -182q-19 -102 -46 -158z" />
    <glyph glyph-name="Lslash" unicode="&#x141;" horiz-adv-x="1067" 
d="M1008 0h-832v522l-168 -90v150l168 90v700h195v-596l366 199v-150l-366 -198v-477h637v-150z" />
    <glyph glyph-name="lslash" unicode="&#x142;" horiz-adv-x="593" 
d="M389 0h-184v655l-182 -102v133l182 102v646h184v-543l184 104v-133l-184 -104v-758z" />
    <glyph glyph-name="Nacute" unicode="&#x143;" horiz-adv-x="1441" 
d="M362 0h-186v1372h186l717 -1073v1073h187v-1372h-185l-719 1077v-1077zM573 1483l-51 100l418 252l82 -158z" />
    <glyph glyph-name="nacute" unicode="&#x144;" horiz-adv-x="1177" 
d="M334 0h-184v1020h167l11 -176q52 99 145 152q93 51 203 51q181 0 275 -108q93 -110 93 -302v-637h-184v610q0 297 -239 297q-127 0 -207 -98t-80 -283v-526zM500 1159l-68 82l305 293l107 -125z" />
    <glyph glyph-name="uni0145" unicode="&#x145;" horiz-adv-x="1441" 
d="M362 0h-186v1372h186l717 -1073v1073h187v-1372h-185l-719 1077v-1077zM586 -633v90q114 43 135 137q-45 0 -79 32q-34 31 -34 81q0 49 33 80q31 31 82 31q52 0 87 -41q34 -40 34 -109q0 -110 -66 -188q-67 -79 -192 -113z" />
    <glyph glyph-name="uni0146" unicode="&#x146;" horiz-adv-x="1177" 
d="M334 0h-184v1020h167l11 -176q52 99 145 152q93 51 203 51q181 0 275 -108q93 -110 93 -302v-637h-184v610q0 297 -239 297q-127 0 -207 -98t-80 -283v-526zM465 -616v81q118 40 133 140h-2q-44 0 -75 30q-32 30 -32 76q0 47 31 77q32 30 78 30q49 0 83 -40
q34 -38 34 -104q0 -103 -64 -179q-65 -77 -186 -111z" />
    <glyph glyph-name="Ncaron" unicode="&#x147;" horiz-adv-x="1441" 
d="M362 0h-186v1372h186l717 -1073v1073h187v-1372h-185l-719 1077v-1077zM772 1501h-100l-307 240l61 94l295 -188l295 188l63 -94z" />
    <glyph glyph-name="ncaron" unicode="&#x148;" horiz-adv-x="1177" 
d="M334 0h-184v1020h167l11 -176q52 99 145 152q93 51 203 51q181 0 275 -108q93 -110 93 -302v-637h-184v610q0 297 -239 297q-127 0 -207 -98t-80 -283v-526zM854 1544l70 -82l-283 -295h-90l-283 295l74 82l256 -229z" />
    <glyph glyph-name="Eng" unicode="&#x14a;" horiz-adv-x="1441" 
d="M362 0h-186v1372h186l717 -1063v1063h187v-1327q0 -502 -400 -502q-121 0 -229 41l35 144q90 -29 176 -29q116 0 171 70q54 70 54 223v45l-711 1053v-1090z" />
    <glyph glyph-name="eng" unicode="&#x14b;" horiz-adv-x="1177" 
d="M334 0h-184v1020h165l9 -199q42 110 138 169q96 57 214 57q181 0 275 -108q93 -110 93 -302v-705q0 -389 -342 -389q-71 0 -155 29l31 131q48 -16 108 -16q82 0 128 55t46 168v700q0 297 -239 297q-127 0 -207 -98t-80 -283v-526z" />
    <glyph glyph-name="Ohungarumlaut" unicode="&#x150;" horiz-adv-x="1499" 
d="M750 -33q-153 0 -276 54q-124 54 -205 150q-81 94 -125 228q-44 132 -44 287q0 154 44 288q44 133 125 227q81 96 205 150q123 54 276 54q204 0 352 -94t223 -255q74 -162 74 -370t-74 -370q-75 -161 -223 -255t-352 -94zM750 117q213 0 328 154q116 154 116 415
q0 260 -116 415q-115 154 -328 154t-328 -154q-117 -155 -117 -415q0 -262 117 -415q115 -154 328 -154zM532 1489l-63 84l334 305l100 -127zM872 1489l-49 90l371 260l80 -139z" />
    <glyph glyph-name="ohungarumlaut" unicode="&#x151;" horiz-adv-x="1167" 
d="M584 -27q-221 0 -361 152q-139 151 -139 385t139 385q140 152 361 152t361 -152q138 -151 138 -385t-138 -385q-140 -152 -361 -152zM584 104q141 0 225 112t84 294t-84 294q-84 111 -225 111t-225 -112q-85 -112 -85 -293q0 -182 85 -294q84 -112 225 -112zM387 1149
l-65 61l284 338l107 -102zM698 1159l-55 70l330 295l90 -115z" />
    <glyph glyph-name="OE" unicode="&#x152;" horiz-adv-x="1968" 
d="M100 686q0 147 47 273q47 125 136 217q90 92 232 144q141 52 323 52h1022v-149h-664v-461h600v-144h-600v-468h672v-150h-1030q-182 0 -323 52q-142 52 -232 145q-89 90 -136 217q-47 126 -47 272zM838 150h163v1073h-163q-274 0 -404 -148q-129 -144 -129 -389
q0 -252 131 -394q130 -142 402 -142z" />
    <glyph glyph-name="oe" unicode="&#x153;" horiz-adv-x="1927" 
d="M1655 315h180q-43 -168 -165 -255t-294 -87q-124 0 -228 57q-105 58 -169 165q-63 -104 -165 -163q-100 -59 -230 -59q-221 0 -361 152q-139 151 -139 385t139 385q140 152 361 152q128 0 231 -60t166 -166q67 109 169 167q103 59 224 59q215 0 344 -144
q129 -145 129 -397v-43h-774q7 -163 88 -263q79 -100 219 -100q218 0 275 215zM1374 920q-120 0 -204 -90q-85 -89 -97 -244h586q-13 158 -87 246q-73 88 -198 88zM584 104q140 0 224 112q83 113 83 294q0 180 -83 293q-84 112 -224 112q-141 0 -225 -112q-85 -112 -85 -293
q0 -182 85 -294q84 -112 225 -112z" />
    <glyph glyph-name="Racute" unicode="&#x154;" horiz-adv-x="1269" 
d="M371 0h-195v1372h471q247 0 375 -105q127 -105 127 -276q0 -157 -106 -251t-295 -115q162 -55 278 -209q114 -151 188 -416h-208q-80 305 -221 446q-140 138 -361 138h-53v-584zM608 1235h-237v-520h219q177 0 269 68q91 67 91 194q0 258 -342 258zM453 1483l-52 100
l418 252l82 -158z" />
    <glyph glyph-name="racute" unicode="&#x155;" horiz-adv-x="720" 
d="M334 0h-184v1020h163l11 -201q39 96 116 158q76 61 176 61q14 0 37 -3q9 -2 18.5 -3.5t10.5 -1.5v-170q-22 8 -76 8t-100 -21q-47 -21 -86 -62q-40 -42 -63 -113q-23 -74 -23 -164v-508zM313 1159l-67 82l305 293l106 -125z" />
    <glyph glyph-name="Rcaron" unicode="&#x158;" horiz-adv-x="1269" 
d="M371 0h-195v1372h471q247 0 375 -105q127 -105 127 -276q0 -157 -106 -251t-295 -115q162 -55 278 -209q114 -151 188 -416h-208q-80 305 -221 446q-140 138 -361 138h-53v-584zM608 1235h-237v-520h219q177 0 269 68q91 67 91 194q0 258 -342 258zM651 1501h-100
l-307 240l61 94l295 -188l295 188l63 -94z" />
    <glyph glyph-name="rcaron" unicode="&#x159;" horiz-adv-x="720" 
d="M334 0h-184v1020h163l11 -201q39 96 116 158q76 61 176 61q14 0 37 -3q9 -2 18.5 -3.5t10.5 -1.5v-170q-22 8 -76 8t-100 -21q-47 -21 -86 -62q-40 -42 -63 -113q-23 -74 -23 -164v-508zM668 1544l69 -82l-282 -295h-90l-283 295l74 82l256 -229z" />
    <glyph glyph-name="Sacute" unicode="&#x15a;" horiz-adv-x="1210" 
d="M612 -33q-242 0 -382 108q-141 109 -160 306h194q13 -76 48 -130q34 -55 84 -85q48 -29 105 -43q58 -14 120 -14q147 0 229 64t82 169q0 99 -59 161q-58 59 -187 91l-235 57q-163 41 -248 127q-86 88 -86 252q0 168 135 272q133 103 348 103q218 0 345 -105
q127 -106 157 -303h-193q-47 267 -315 267q-130 0 -207 -59q-78 -59 -78 -161q0 -98 49 -147q48 -51 160 -78l230 -55q199 -48 289 -142q89 -95 89 -262q0 -182 -136 -287q-136 -106 -378 -106zM451 1483l-52 100l418 252l82 -158z" />
    <glyph glyph-name="sacute" unicode="&#x15b;" horiz-adv-x="1005" 
d="M510 -27q-193 0 -306 86t-132 244h184q32 -209 256 -209q111 0 171 42t60 118q0 128 -186 174l-166 41q-138 34 -209 102t-71 187q0 131 109 210q107 79 282 79q179 0 283 -79q105 -79 130 -227h-182q-38 185 -237 185q-93 0 -148 -43t-55 -117q0 -60 39 -94
q40 -35 123 -56l166 -41q153 -37 228 -108t75 -199q0 -137 -109 -216t-305 -79zM399 1159l-67 82l305 293l106 -125z" />
    <glyph glyph-name="Scedilla" unicode="&#x15e;" horiz-adv-x="1210" 
d="M514 -225l25 194q-209 16 -330 124q-119 106 -139 288h194q13 -76 48 -130q34 -55 84 -85q48 -29 105 -43q58 -14 120 -14q147 0 229 64t82 169q0 99 -59 161q-58 59 -187 91l-235 57q-163 41 -248 127q-86 88 -86 252q0 168 135 272q133 103 348 103q218 0 345 -105
q127 -106 157 -303h-193q-47 267 -315 267q-130 0 -207 -59q-78 -59 -78 -161q0 -98 49 -147q48 -51 160 -78l230 -55q199 -48 289 -142q89 -95 89 -262q0 -176 -129 -281q-130 -106 -360 -112l-14 -90q24 6 51 6q85 0 139 -51q53 -51 53 -131q0 -98 -68 -155
q-68 -56 -184 -56q-81 0 -153 21l8 100q66 -19 141 -19q59 0 96 29q35 29 35 76q0 42 -27 69t-73 27q-31 0 -72 -18h-55z" />
    <glyph glyph-name="scedilla" unicode="&#x15f;" horiz-adv-x="1005" 
d="M389 -221l27 201q-152 20 -240 102q-89 83 -104 221h184q32 -209 256 -209q111 0 171 42t60 118q0 128 -186 174l-166 41q-138 34 -209 102t-71 187q0 131 109 210q107 79 282 79q179 0 283 -79q105 -79 130 -227h-182q-38 185 -237 185q-93 0 -148 -43t-55 -117
q0 -60 39 -94q40 -35 123 -56l166 -41q153 -37 228 -108t75 -199q0 -137 -109 -216t-305 -79h-2l-19 -102q26 8 56 8q81 0 136 -50q54 -49 54 -128q0 -93 -68 -152q-69 -57 -184 -57q-67 0 -147 21l8 94q64 -19 137 -19q62 0 100 29q37 30 37 80q0 43 -28 71q-29 29 -76 29
q-46 0 -76 -18h-49z" />
    <glyph glyph-name="Scaron" unicode="&#x160;" horiz-adv-x="1210" 
d="M612 -33q-242 0 -382 108q-141 109 -160 306h194q13 -76 48 -130q34 -55 84 -85q48 -29 105 -43q58 -14 120 -14q147 0 229 64t82 169q0 99 -59 161q-58 59 -187 91l-235 57q-163 41 -248 127q-86 88 -86 252q0 168 135 272q133 103 348 103q218 0 345 -105
q127 -106 157 -303h-193q-47 267 -315 267q-130 0 -207 -59q-78 -59 -78 -161q0 -98 49 -147q48 -51 160 -78l230 -55q199 -48 289 -142q89 -95 89 -262q0 -182 -136 -287q-136 -106 -378 -106zM649 1501h-100l-307 240l61 94l295 -188l295 188l63 -94z" />
    <glyph glyph-name="scaron" unicode="&#x161;" horiz-adv-x="1005" 
d="M510 -27q-193 0 -306 86t-132 244h184q32 -209 256 -209q111 0 171 42t60 118q0 128 -186 174l-166 41q-138 34 -209 102t-71 187q0 131 109 210q107 79 282 79q179 0 283 -79q105 -79 130 -227h-182q-38 185 -237 185q-93 0 -148 -43t-55 -117q0 -60 39 -94
q40 -35 123 -56l166 -41q153 -37 228 -108t75 -199q0 -137 -109 -216t-305 -79zM754 1544l69 -82l-282 -295h-90l-283 295l74 82l256 -229z" />
    <glyph glyph-name="uni0162" unicode="&#x162;" horiz-adv-x="1193" 
d="M514 -225l29 225h-43v1223h-455v149h1104v-149h-455v-1223h-51l-20 -123q24 6 51 6q85 0 139 -51q53 -51 53 -131q0 -98 -68 -155q-68 -56 -184 -56q-81 0 -153 21l8 100q66 -19 141 -19q59 0 96 29q35 29 35 76q0 42 -27 69t-73 27q-31 0 -72 -18h-55z" />
    <glyph glyph-name="uni0163" unicode="&#x163;" horiz-adv-x="735" 
d="M330 -221l30 219q-178 64 -178 309v584h-147v129h147v303h185v-303h297v-129h-297v-578q0 -100 43 -147q43 -49 114 -49q74 0 138 24l32 -129q-92 -39 -190 -39q-25 0 -53 4l-21 -106q26 8 55 8q81 0 137 -50q54 -49 54 -128q0 -93 -68 -152q-69 -57 -184 -57
q-68 0 -148 21l9 94q66 -19 137 -19q62 0 100 29q37 30 37 80q0 43 -28 71q-29 29 -76 29q-46 0 -76 -18h-49z" />
    <glyph glyph-name="Tcaron" unicode="&#x164;" horiz-adv-x="1193" 
d="M694 0h-194v1223h-455v149h1104v-149h-455v-1223zM649 1501h-100l-307 240l61 94l295 -188l295 188l63 -94z" />
    <glyph glyph-name="tcaron" unicode="&#x165;" horiz-adv-x="735" 
d="M504 -27q-159 0 -240 87q-82 85 -82 247v584h-147v129h147v303h185v-303h297v-129h-297v-578q0 -100 43 -147q43 -49 114 -49q74 0 138 24l32 -129q-92 -39 -190 -39zM578 1133h-86v301h143v-17q0 -146 -57 -284z" />
    <glyph glyph-name="Tbar" unicode="&#x166;" horiz-adv-x="1193" 
d="M694 0h-194v608h-312v135h312v480h-455v149h1104v-149h-455v-480h312v-135h-312v-608z" />
    <glyph glyph-name="tbar" unicode="&#x167;" horiz-adv-x="731" 
d="M182 479h-147v127h147v289h-147v127h147v301h185v-301h297v-127h-297v-289h297v-127h-297v-166q0 -100 43 -147q43 -49 114 -49q74 0 138 24l32 -129q-92 -39 -190 -39q-159 0 -240 87q-82 85 -82 247v172z" />
    <glyph glyph-name="Utilde" unicode="&#x168;" horiz-adv-x="1386" 
d="M692 -33q-261 0 -403 148t-142 409v848h195v-858q0 -190 91 -293q90 -104 259 -104q170 0 260 104q90 103 90 293v858h195v-848q0 -258 -143 -407q-141 -150 -402 -150zM653 1608q-57 57 -102 57q-30 0 -57 -33t-39 -106h-127q12 123 72 198q59 74 149 74q85 0 182 -88
q57 -57 103 -57q30 0 57 33t39 106h127q-12 -122 -71 -198q-60 -76 -150 -76q-84 0 -183 90z" />
    <glyph glyph-name="utilde" unicode="&#x169;" horiz-adv-x="1157" 
d="M821 1020h185v-1020h-168l-11 166q-52 -96 -140 -144q-88 -49 -195 -49q-174 0 -265 109q-92 109 -92 301v637h184v-610q0 -297 228 -297q119 0 197 99q77 98 77 282v526zM537 1278q-61 55 -95 55q-62 0 -84 -133h-116q7 115 61 187q53 71 133 71q42 0 80 -20
q39 -23 86 -64q38 -30 57 -42q19 -13 39 -13q63 0 82 133h119q-10 -117 -62 -188q-52 -70 -132 -70q-43 0 -79 21q-35 18 -89 63z" />
    <glyph glyph-name="Umacron" unicode="&#x16a;" horiz-adv-x="1386" 
d="M692 -33q-261 0 -403 148t-142 409v848h195v-858q0 -190 91 -293q90 -104 259 -104q170 0 260 104q90 103 90 293v858h195v-848q0 -258 -143 -407q-141 -150 -402 -150zM1026 1563h-668v143h668v-143z" />
    <glyph glyph-name="umacron" unicode="&#x16b;" horiz-adv-x="1157" 
d="M821 1020h185v-1020h-168l-11 166q-52 -96 -140 -144q-88 -49 -195 -49q-174 0 -265 109q-92 109 -92 301v637h184v-610q0 -297 228 -297q119 0 197 99q77 98 77 282v526zM862 1225h-586v131h586v-131z" />
    <glyph glyph-name="Uring" unicode="&#x16e;" horiz-adv-x="1386" 
d="M692 -33q-261 0 -403 148t-142 409v848h195v-858q0 -190 91 -293q90 -104 259 -104q170 0 260 104q90 103 90 293v858h195v-848q0 -258 -143 -407q-141 -150 -402 -150zM692 1503q-106 0 -174 66q-69 66 -69 170t68 169q67 64 175 64q110 0 178 -64q68 -65 68 -169
t-68 -170q-69 -66 -178 -66zM692 1606q58 0 95 36q36 34 36 97q0 59 -35 97q-36 36 -96 36t-95 -36q-36 -38 -36 -97q0 -63 36 -98q35 -35 95 -35z" />
    <glyph glyph-name="uring" unicode="&#x16f;" horiz-adv-x="1157" 
d="M821 1020h185v-1020h-168l-11 166q-52 -96 -140 -144q-88 -49 -195 -49q-174 0 -265 109q-92 109 -92 301v637h184v-610q0 -297 228 -297q119 0 197 99q77 98 77 282v526zM569 1141q-102 0 -169 65q-66 64 -66 164q0 102 66 165q65 62 169 62t172 -62q66 -63 66 -165
q0 -100 -67 -164q-68 -65 -171 -65zM569 1233q60 0 97 37q36 38 36 100q0 60 -36 98q-37 37 -97 37t-96 -37q-37 -37 -37 -98q0 -63 37 -100q36 -37 96 -37z" />
    <glyph glyph-name="Uhungarumlaut" unicode="&#x170;" horiz-adv-x="1386" 
d="M692 -33q-261 0 -403 148t-142 409v848h195v-858q0 -190 91 -293q90 -104 259 -104q170 0 260 104q90 103 90 293v858h195v-848q0 -258 -143 -407q-141 -150 -402 -150zM475 1489l-63 84l333 305l101 -127zM815 1489l-49 90l371 260l80 -139z" />
    <glyph glyph-name="uhungarumlaut" unicode="&#x171;" horiz-adv-x="1157" 
d="M821 1020h185v-1020h-168l-11 166q-52 -96 -140 -144q-88 -49 -195 -49q-174 0 -265 109q-92 109 -92 301v637h184v-610q0 -297 228 -297q119 0 197 99q77 98 77 282v526zM373 1149l-66 61l285 338l106 -102zM684 1159l-55 70l329 295l91 -115z" />
    <glyph glyph-name="Uogonek" unicode="&#x172;" horiz-adv-x="1386" 
d="M889 -494q-115 0 -182 59q-66 60 -66 156q0 145 125 250q-41 -4 -74 -4q-261 0 -403 148t-142 409v848h195v-858q0 -190 91 -293q90 -104 259 -104q170 0 260 104q90 103 90 293v858h195v-848q0 -258 -143 -407q-48 -50 -117 -88q-101 -68 -143 -132q-43 -64 -43 -141
q0 -56 35 -91q34 -34 92 -34q55 0 116 21v-121q-69 -25 -145 -25z" />
    <glyph glyph-name="uogonek" unicode="&#x173;" horiz-adv-x="1157" 
d="M870 -487q-113 0 -177 56q-64 57 -64 150q0 180 209 287l-11 160q-52 -96 -140 -144q-88 -49 -195 -49q-174 0 -265 109q-92 109 -92 301v637h184v-610q0 -297 228 -297q119 0 197 99q77 98 77 282v526h185v-1020h-19q-221 -74 -221 -242q0 -61 37 -97q36 -36 96 -36
q57 0 111 19v-109q-72 -22 -140 -22z" />
    <glyph glyph-name="Wcircumflex" unicode="&#x174;" horiz-adv-x="1871" 
d="M631 0h-211l-367 1372h201l289 -1130l315 1130h166l315 -1134l291 1134h189l-367 -1372h-211l-303 1094zM891 1808h100l307 -239l-63 -94l-295 188l-295 -188l-61 94z" />
    <glyph glyph-name="wcircumflex" unicode="&#x175;" horiz-adv-x="1552" 
d="M535 0h-191l-313 1020h194l228 -827l252 827h161l252 -830l228 830h176l-314 -1020h-190l-242 786zM526 1147l-69 82l282 295h90l283 -295l-74 -82l-256 229z" />
    <glyph glyph-name="Ycircumflex" unicode="&#x176;" horiz-adv-x="1220" 
d="M35 1372h207l372 -684l375 684h197l-479 -821v-551h-195v551zM567 1808h101l307 -239l-64 -94l-295 188l-294 -188l-62 94z" />
    <glyph glyph-name="ycircumflex" unicode="&#x177;" horiz-adv-x="1011" 
d="M-10 -414l43 129q68 -30 139 -30q64 0 112 42q48 43 85 134l67 164l-405 995h194l293 -805l289 805h180l-463 -1180q-57 -153 -141 -225t-205 -72q-102 0 -188 43zM258 1147l-70 82l283 295h90l283 -295l-74 -82l-256 229z" />
    <glyph glyph-name="Ydieresis" unicode="&#x178;" horiz-adv-x="1220" 
d="M35 1372h207l372 -684l375 684h197l-479 -821v-551h-195v551zM831 1546q-47 0 -79 32q-31 31 -31 81q0 49 32 81t78 32q49 0 81 -32t32 -81q0 -51 -31 -82t-82 -31zM401 1546q-50 0 -81 31t-31 82q0 50 32 82q31 31 80 31q48 0 80 -32q31 -31 31 -81t-31 -81
q-32 -32 -80 -32z" />
    <glyph glyph-name="Zacute" unicode="&#x179;" horiz-adv-x="1183" 
d="M1112 0h-1022v117l770 1108h-749v147h985v-117l-768 -1108h784v-147zM457 1483l-51 100l417 252l82 -158z" />
    <glyph glyph-name="zacute" unicode="&#x17a;" horiz-adv-x="985" 
d="M920 0h-834v106l594 779h-571v135h790v-107l-600 -778h621v-135zM406 1159l-68 82l305 293l107 -125z" />
    <glyph glyph-name="Zdotaccent" unicode="&#x17b;" horiz-adv-x="1183" 
d="M1112 0h-1022v117l770 1108h-749v147h985v-117l-768 -1108h784v-147zM604 1542q-53 0 -88 35t-35 86q0 50 35 85q34 34 88 34q55 0 89 -34t34 -85q0 -52 -34 -86q-35 -35 -89 -35z" />
    <glyph glyph-name="zdotaccent" unicode="&#x17c;" horiz-adv-x="985" 
d="M920 0h-834v106l594 779h-571v135h790v-107l-600 -778h621v-135zM502 1192q-50 0 -85 33q-34 33 -34 84q0 49 34 82q35 32 85 32t85 -32q34 -33 34 -82q0 -51 -34 -84q-35 -33 -85 -33z" />
    <glyph glyph-name="Zcaron" unicode="&#x17d;" horiz-adv-x="1183" 
d="M1112 0h-1022v117l770 1108h-749v147h985v-117l-768 -1108h784v-147zM655 1501h-100l-307 240l61 94l295 -188l295 188l64 -94z" />
    <glyph glyph-name="zcaron" unicode="&#x17e;" horiz-adv-x="985" 
d="M920 0h-834v106l594 779h-571v135h790v-107l-600 -778h621v-135zM760 1544l69 -82l-282 -295h-90l-283 295l74 82l256 -229z" />
    <glyph glyph-name="uni0218" unicode="&#x218;" horiz-adv-x="1210" 
d="M612 -33q-242 0 -382 108q-141 109 -160 306h194q13 -76 48 -130q34 -55 84 -85q48 -29 105 -43q58 -14 120 -14q147 0 229 64t82 169q0 99 -59 161q-58 59 -187 91l-235 57q-163 41 -248 127q-86 88 -86 252q0 168 135 272q133 103 348 103q218 0 345 -105
q127 -106 157 -303h-193q-47 267 -315 267q-130 0 -207 -59q-78 -59 -78 -161q0 -98 49 -147q48 -51 160 -78l230 -55q199 -48 289 -142q89 -95 89 -262q0 -182 -136 -287q-136 -106 -378 -106zM463 -633v90q114 43 135 137q-45 0 -79 32q-34 31 -34 81q0 49 33 80
q31 31 82 31q52 0 87 -41q34 -40 34 -109q0 -110 -66 -188q-67 -79 -192 -113z" />
    <glyph glyph-name="uni0219" unicode="&#x219;" horiz-adv-x="1005" 
d="M510 -27q-193 0 -306 86t-132 244h184q32 -209 256 -209q111 0 171 42t60 118q0 128 -186 174l-166 41q-138 34 -209 102t-71 187q0 131 109 210q107 79 282 79q179 0 283 -79q105 -79 130 -227h-182q-38 185 -237 185q-93 0 -148 -43t-55 -117q0 -60 39 -94
q40 -35 123 -56l166 -41q153 -37 228 -108t75 -199q0 -137 -109 -216t-305 -79zM365 -616v81q118 40 133 140h-2q-44 0 -75 30q-32 30 -32 76q0 47 31 77q32 30 78 30q49 0 83 -40q33 -39 33 -104q0 -104 -64 -180q-65 -76 -185 -110z" />
    <glyph glyph-name="uni021A" unicode="&#x21a;" horiz-adv-x="1193" 
d="M694 0h-194v1223h-455v149h1104v-149h-455v-1223zM463 -633v90q114 43 135 137q-45 0 -79 32q-34 31 -34 81q0 49 33 80q31 31 82 31q52 0 87 -41q34 -40 34 -109q0 -110 -66 -188q-67 -79 -192 -113z" />
    <glyph glyph-name="uni021B" unicode="&#x21b;" horiz-adv-x="735" 
d="M504 -27q-159 0 -240 87q-82 85 -82 247v584h-147v129h147v303h185v-303h297v-129h-297v-578q0 -100 43 -147q43 -49 114 -49q74 0 138 24l32 -129q-92 -39 -190 -39zM305 -616v81q118 40 133 140h-2q-44 0 -75 30t-31 76q0 47 31 77q30 30 77 30q49 0 83 -40
q34 -38 34 -104q0 -103 -64 -179q-65 -77 -186 -111z" />
    <glyph glyph-name="circumflex" unicode="&#x2c6;" horiz-adv-x="1024" 
d="M254 1147l-70 82l283 295h90l283 -295l-74 -82l-256 229z" />
    <glyph glyph-name="caron" unicode="&#x2c7;" horiz-adv-x="1024" 
d="M770 1544l70 -82l-283 -295h-90l-283 295l74 82l256 -229z" />
    <glyph glyph-name="breve" unicode="&#x2d8;" horiz-adv-x="1024" 
d="M512 1169q-129 0 -214 82t-97 213h125q12 -76 63 -124t123 -48t123 48t63 124h125q-12 -131 -97 -213t-214 -82z" />
    <glyph glyph-name="dotaccent" unicode="&#x2d9;" horiz-adv-x="1024" 
d="M512 1192q-50 0 -85 33q-34 33 -34 84q0 49 34 82q35 32 85 32t85 -32q34 -33 34 -82q0 -51 -34 -84q-35 -33 -85 -33z" />
    <glyph glyph-name="ring" unicode="&#x2da;" horiz-adv-x="1024" 
d="M510 1141q-102 0 -169 65q-67 64 -67 164q0 102 66 165q67 62 170 62q104 0 172 -62q66 -63 66 -165q0 -100 -67 -164q-68 -65 -171 -65zM510 1233q60 0 97 37q36 38 36 100q0 60 -36 98q-37 37 -97 37t-96 -37q-37 -37 -37 -98q0 -63 37 -100q36 -37 96 -37z" />
    <glyph glyph-name="ogonek" unicode="&#x2db;" horiz-adv-x="1024" 
d="M506 -487q-114 0 -178 56q-64 57 -64 150q0 181 215 291l144 -10q-222 -74 -222 -242q0 -61 37 -97q38 -36 97 -36q56 0 110 19v-109q-72 -22 -139 -22z" />
    <glyph glyph-name="tilde" unicode="&#x2dc;" horiz-adv-x="1024" 
d="M479 1278q-61 55 -94 55q-62 0 -84 -133h-117q7 115 61 187q53 71 134 71q42 0 80 -20q39 -23 86 -64q37 -30 57 -42q19 -13 39 -13q63 0 82 133h119q-10 -116 -62 -187q-53 -71 -133 -71q-43 0 -79 21q-35 18 -89 63z" />
    <glyph glyph-name="hungarumlaut" unicode="&#x2dd;" horiz-adv-x="1024" 
d="M236 1149l-66 61l285 338l106 -102zM547 1159l-55 70l329 295l90 -115z" />
    <glyph glyph-name="gravecomb" unicode="&#x300;" 
d="M-248 1409l107 125l305 -293l-68 -82z" />
    <glyph glyph-name="acutecomb" unicode="&#x301;" 
d="M-96 1159l-68 82l305 293l107 -125z" />
    <glyph glyph-name="uni0302" unicode="&#x302;" 
d="M-258 1147l-70 82l283 295h90l283 -295l-74 -82l-256 229z" />
    <glyph glyph-name="tildecomb" unicode="&#x303;" 
d="M-33 1278q-61 55 -94 55q-62 0 -84 -133h-117q7 115 61 187q53 71 134 71q42 0 79 -20q39 -22 87 -64q37 -30 57 -42q19 -13 39 -13q63 0 82 133h119q-10 -116 -62 -187q-53 -71 -133 -71q-43 0 -79 21q-35 18 -89 63z" />
    <glyph glyph-name="uni0304" unicode="&#x304;" 
d="M293 1225h-586v131h586v-131z" />
    <glyph glyph-name="uni0306" unicode="&#x306;" 
d="M-311 1169q-129 0 -214 82t-97 213h125q12 -76 63 -124t123 -48t123 48t63 124h125q-12 -131 -97 -213t-214 -82z" />
    <glyph glyph-name="uni0307" unicode="&#x307;" 
d="M-119 1192q-51 0 -85 33t-34 84q0 49 34 82q35 32 85 32t85 -32q34 -33 34 -82q0 -51 -34 -84t-85 -33z" />
    <glyph glyph-name="uni0308" unicode="&#x308;" 
d="M193 1186q-45 0 -77 30t-32 76q0 45 32 77q31 30 77 30q45 0 76 -30q30 -30 30 -77q0 -48 -30 -76q-32 -30 -76 -30zM-193 1186q-45 0 -76 30q-30 28 -30 76q0 47 30 77q32 30 76 30q45 0 77 -30q32 -32 32 -77q0 -46 -32 -76q-31 -30 -77 -30z" />
    <glyph glyph-name="uni030A" unicode="&#x30a;" 
d="M-236 1141q-102 0 -170 65q-66 64 -66 164q0 102 66 165q67 62 170 62q104 0 172 -62q66 -63 66 -165q0 -100 -67 -164q-68 -65 -171 -65zM-236 1233q60 0 97 37q36 38 36 100q0 60 -36 98q-37 37 -97 37t-97 -37q-36 -38 -36 -98q0 -62 36 -100q37 -37 97 -37z" />
    <glyph glyph-name="uni030B" unicode="&#x30b;" 
d="M-197 1149l-65 61l285 338l106 -102zM115 1159l-56 70l330 295l90 -115z" />
    <glyph glyph-name="uni030C" unicode="&#x30c;" 
d="M258 1544l70 -82l-283 -295h-90l-283 295l74 82l256 -229z" />
    <glyph glyph-name="uni0312" unicode="&#x312;" 
d="M123 1614v-82q-112 -46 -127 -133q44 0 75 -31t31 -78q0 -45 -30 -75q-31 -31 -78 -31q-49 0 -82 40t-33 107q0 103 63 177q64 75 181 106z" />
    <glyph glyph-name="uni0315" unicode="&#x315;" 
d="M39 1077h-80v357h145v-17q0 -81 -19 -182q-19 -102 -46 -158z" />
    <glyph glyph-name="dotbelowcomb" unicode="&#x323;" 
d="M-119 -401q-50 0 -85 32q-34 33 -34 82q0 50 34 83q34 34 85 34t85 -34q34 -33 34 -83q0 -49 -34 -82q-35 -32 -85 -32z" />
    <glyph glyph-name="uni0326" unicode="&#x326;" 
d="M-131 -616v81q118 40 133 140h-2q-44 0 -75 30t-31 76q0 47 30 77q32 30 78 30q49 0 83 -40q34 -38 34 -104q0 -103 -64 -179q-65 -77 -186 -111z" />
    <glyph glyph-name="uni0327" unicode="&#x327;" 
d="M-106 -221l30 221h94l-24 -129q26 8 55 8q81 0 137 -50q54 -49 54 -128q0 -93 -68 -152q-69 -57 -184 -57q-68 0 -148 21l8 94q64 -19 138 -19q62 0 100 29q37 30 37 80q0 42 -29 71t-76 29q-45 0 -75 -18h-49z" />
    <glyph glyph-name="uni0328" unicode="&#x328;" 
d="M23 -487q-114 0 -179 56q-63 57 -63 150q0 181 215 291l143 -10q-221 -74 -221 -242q0 -61 36 -97q38 -36 97 -36q57 0 111 19v-109q-72 -22 -139 -22z" />
    <glyph glyph-name="afii10023" unicode="&#x401;" horiz-adv-x="1144" 
d="M1044 0h-868v1372h860v-149h-665v-461h602v-144h-602v-468h673v-150zM821 1546q-47 0 -79 32q-31 31 -31 81q0 49 32 81t78 32q49 0 81 -32t32 -81q0 -51 -31 -82t-82 -31zM391 1546q-50 0 -81 31t-31 82q0 50 32 82q31 31 80 31q48 0 80 -32q31 -31 31 -81t-31 -81
q-32 -32 -80 -32z" />
    <glyph glyph-name="afii10051" unicode="&#x402;" horiz-adv-x="1484" 
d="M1407 420q0 -199 -102 -326q-103 -127 -283 -127q-149 0 -240 82l70 125q67 -55 158 -55q204 0 204 293q0 130 -62 210t-179 80q-125 0 -202 -95t-77 -273v-334h-194v1223h-455v149h1104v-149h-455v-559q106 190 322 190q175 0 283 -120t108 -314z" />
    <glyph glyph-name="afii10052" unicode="&#x403;" horiz-adv-x="956" 
d="M371 0h-195v1372h756v-149h-561v-1223zM463 1511l-68 82l305 293l107 -125z" />
    <glyph glyph-name="afii10053" unicode="&#x404;" horiz-adv-x="1413" 
d="M1114 414h207q-48 -207 -203 -327q-156 -120 -383 -120q-196 0 -340 92q-145 91 -220 253t-75 374q0 208 75 372q75 162 220 255q146 92 340 92q227 0 382 -120q154 -120 206 -333h-207q-40 144 -140 224q-98 79 -241 79q-101 0 -181 -40q-81 -40 -134 -111
q-52 -70 -82 -158q-31 -90 -35 -190h590v-150h-590q8 -102 37 -186q30 -87 83 -155q53 -69 132 -108q79 -40 180 -40q140 0 239 78q100 77 140 219z" />
    <glyph glyph-name="afii10054" unicode="&#x405;" horiz-adv-x="1210" 
d="M612 -33q-242 0 -382 108q-141 109 -160 306h194q13 -76 48 -130q34 -55 84 -85q48 -29 105 -43q58 -14 120 -14q147 0 229 64t82 169q0 99 -59 161q-58 59 -187 91l-235 57q-163 41 -248 127q-86 88 -86 252q0 168 135 272q133 103 348 103q218 0 345 -105
q127 -106 157 -303h-193q-47 267 -315 267q-130 0 -207 -59q-78 -59 -78 -161q0 -98 49 -147q48 -51 160 -78l230 -55q199 -48 289 -142q89 -95 89 -262q0 -182 -136 -287q-136 -106 -378 -106z" />
    <glyph glyph-name="afii10055" unicode="&#x406;" horiz-adv-x="546" 
d="M371 0h-195v1372h195v-1372z" />
    <glyph glyph-name="afii10056" unicode="&#x407;" horiz-adv-x="546" 
d="M371 0h-195v1372h195v-1372zM489 1546q-47 0 -79 32q-31 31 -31 81q0 49 32 81t78 32q49 0 81 -32t32 -81q0 -51 -31 -82t-82 -31zM59 1546q-50 0 -81 31t-31 82t31 82t81 31q48 0 80 -32q31 -31 31 -81t-31 -81q-32 -32 -80 -32z" />
    <glyph glyph-name="afii10057" unicode="&#x408;" horiz-adv-x="1187" 
d="M545 -33q-216 0 -343 133q-129 133 -145 371h193q24 -354 295 -354q151 0 225 98q72 97 72 301v856h194v-844q0 -272 -126 -416q-127 -145 -365 -145z" />
    <glyph glyph-name="afii10058" unicode="&#x409;" horiz-adv-x="1927" 
d="M1184 1372v-530h168q254 0 396 -102t142 -310q0 -89 -29 -167q-29 -75 -89 -136q-60 -60 -159 -93q-99 -34 -231 -34h-393v1223h-545v-293q0 -116 -2 -238q-2 -92 -9 -203q-7 -113 -21 -177q-16 -70 -40 -135q-26 -71 -63 -105q-38 -37 -92 -59q-55 -23 -125 -23
q-5 0 -74 6v164q12 0 25 -1q12 -1 29 -1q26 0 48 9q22 8 38 27q19 20 31 41q14 23 24 59q11 36 18 72t12 89l8 100q4 60 5 116q0 22 0.5 64.5t1.5 62.5v140v434h926zM1323 696h-139v-551h170q172 0 254 70t82 197q0 155 -88 219q-89 65 -279 65z" />
    <glyph glyph-name="afii10059" unicode="&#x40a;" horiz-adv-x="1976" 
d="M1432 0h-400v616h-661v-616h-195v1372h195v-606h661v606h195v-604h174q114 0 211 -20q92 -19 169 -62q75 -44 117 -117q41 -74 41 -174q0 -200 -133 -297q-134 -98 -374 -98zM1372 616h-145v-471h176q57 0 104 6q46 4 91 21q46 15 75 40q29 26 48 67q18 42 18 98
q0 72 -24 120q-26 48 -75 73q-51 26 -114 36q-60 10 -154 10z" />
    <glyph glyph-name="afii10060" unicode="&#x40b;" horiz-adv-x="1484" 
d="M1214 0v418q0 138 -56 212q-57 72 -185 72q-125 0 -202 -95t-77 -273v-334h-194v1223h-455v149h1104v-149h-455v-559q105 190 322 190q194 0 293 -104q98 -104 98 -306v-444h-193z" />
    <glyph glyph-name="afii10061" unicode="&#x40c;" horiz-adv-x="1263" 
d="M371 0h-195v1372h195v-627h159q168 57 277 229q108 171 123 398h205q-14 -227 -140 -419q-128 -194 -301 -273l525 -680h-250l-439 596h-159v-596zM573 1511l-67 82l305 293l107 -125z" />
    <glyph glyph-name="afii10062" unicode="&#x40e;" horiz-adv-x="1118" 
d="M1112 1372l-448 -983q-80 -163 -114 -219q-93 -146 -223 -186q-58 -19 -134 -19q-71 0 -140 29l35 156q48 -19 119 -19q51 0 96 20q43 19 75 59t54 79q22 41 45 96l-471 987h211l369 -790l346 790h180zM588 1522q-129 0 -214 82q-86 83 -98 213h125q12 -76 63 -124
t124 -48q72 0 123 48t63 124h125q-12 -131 -97 -213t-214 -82z" />
    <glyph glyph-name="afii10145" unicode="&#x40f;" horiz-adv-x="1400" 
d="M1225 1372v-1372h-432v-311h-187v311h-430v1372h195v-1222h659v1222h195z" />
    <glyph glyph-name="afii10017" unicode="&#x410;" horiz-adv-x="1306" 
d="M1262 0h-199l-113 328h-600l-114 -328h-191l508 1372h203zM651 1190l-250 -715h498z" />
    <glyph glyph-name="afii10018" unicode="&#x411;" horiz-adv-x="1236" 
d="M362 821h234q282 0 431 -98t149 -313q0 -82 -29 -155q-29 -70 -89 -130q-58 -58 -159 -91q-99 -34 -231 -34h-492v1372h903v-149h-717v-402zM596 676h-234v-531h277q153 0 245 66q91 64 91 195q0 146 -98 208q-100 62 -281 62z" />
    <glyph glyph-name="afii10019" unicode="&#x412;" horiz-adv-x="1265" 
d="M668 0h-492v1372h457q127 0 222 -27q95 -29 149 -77q54 -50 80 -110q26 -61 26 -132q0 -108 -63 -190q-65 -83 -199 -119q164 -35 246 -120q82 -86 82 -212q0 -80 -29 -149q-30 -69 -89 -122q-60 -54 -159 -84q-101 -30 -231 -30zM610 1235h-248v-465h222q93 0 162 20
q67 19 102 56q36 37 50 76q15 41 15 88q0 106 -73 166q-74 59 -230 59zM586 639h-224v-502h277q97 0 166 21q68 21 104 59q36 37 51 80q15 42 15 94q0 58 -19 100q-20 43 -63 78q-43 34 -120 52q-78 18 -187 18z" />
    <glyph glyph-name="afii10020" unicode="&#x413;" horiz-adv-x="956" 
d="M371 0h-195v1372h756v-149h-561v-1223z" />
    <glyph glyph-name="afii10021" unicode="&#x414;" horiz-adv-x="1366" 
d="M162 -311h-187v461h146q39 65 65 155q25 92 35 203q10 107 13 202q2 116 2 228v434h944v-1222h139v-461h-186v311h-969h-2v-311zM418 1223v-293q0 -298 -19 -481q-20 -188 -75 -299h661v1073h-567z" />
    <glyph glyph-name="afii10022" unicode="&#x415;" horiz-adv-x="1144" 
d="M1044 0h-868v1372h860v-149h-665v-461h602v-144h-602v-468h673v-150z" />
    <glyph glyph-name="afii10024" unicode="&#x416;" horiz-adv-x="1878" 
d="M842 0v596h-121l-447 -596h-241l530 678q-174 80 -303 274q-129 192 -143 420h205q14 -220 120 -384t279 -243h121v627h194v-627h121q167 53 276 226q109 174 123 401h205q-14 -227 -140 -419q-127 -193 -300 -273l524 -680h-250l-438 596h-121v-596h-194z" />
    <glyph glyph-name="afii10025" unicode="&#x417;" horiz-adv-x="1183" 
d="M598 -33q-237 0 -375 123q-139 121 -157 324h186q18 -136 104 -216q86 -81 236 -81q136 0 219 63q82 61 82 185q0 276 -414 276h-37v139h37q76 0 139 12q60 10 117 38q55 27 86 79q31 50 31 123q0 112 -73 167q-74 56 -193 56q-136 0 -215 -66q-81 -66 -105 -190h-184
q28 182 156 295q128 111 348 111q214 0 339 -92q124 -91 124 -254q0 -119 -69 -212q-70 -93 -185 -130q158 -43 229 -131q70 -86 70 -217q0 -98 -40 -174q-40 -78 -109 -127t-158 -75q-90 -26 -189 -26z" />
    <glyph glyph-name="afii10026" unicode="&#x418;" horiz-adv-x="1441" 
d="M362 0h-186v1372h186v-919l-8 -189l725 1108h187v-1372h-187v918l8 196z" />
    <glyph glyph-name="afii10027" unicode="&#x419;" horiz-adv-x="1441" 
d="M362 0h-186v1372h186v-919l-8 -189l725 1108h187v-1372h-187v918l8 196zM721 1522q-129 0 -214 82t-97 213h125q12 -76 63 -124t123 -48t123 48t63 124h125q-12 -131 -97 -213t-214 -82z" />
    <glyph glyph-name="afii10028" unicode="&#x41a;" horiz-adv-x="1251" 
d="M371 0h-195v1372h195v-627h159q168 57 277 229q108 171 123 398h205q-14 -227 -140 -419q-128 -194 -301 -273l525 -680h-250l-439 596h-159v-596z" />
    <glyph glyph-name="afii10029" unicode="&#x41b;" horiz-adv-x="1406" 
d="M444 1223v-293q0 -116 -2 -238q-2 -92 -9 -203q-7 -113 -21 -177q-16 -70 -40 -135q-26 -71 -63 -105q-38 -37 -92 -59q-55 -23 -125 -23q-5 0 -74 6v164q12 0 25 -1q12 -1 29 -1q26 0 48 9q22 8 38 27q19 20 31 41q14 23 24 59q11 36 18 72t12 89l8 100q4 60 5 116
q0 22 0.5 64.5t1.5 62.5v140v434h973v-1372h-195v1223h-592z" />
    <glyph glyph-name="afii10030" unicode="&#x41c;" horiz-adv-x="1675" 
d="M279 0h-187l170 1372h205l371 -1005l368 1005h207l172 -1372h-190l-131 1100l-355 -987h-147l-356 979z" />
    <glyph glyph-name="afii10031" unicode="&#x41d;" horiz-adv-x="1433" 
d="M371 0h-195v1372h195v-606h692v606h194v-1372h-194v616h-692v-616z" />
    <glyph glyph-name="afii10032" unicode="&#x41e;" horiz-adv-x="1499" 
d="M750 -33q-153 0 -276 54q-124 54 -205 150q-81 94 -125 228q-44 132 -44 287q0 154 44 288q44 133 125 227q81 96 205 150q123 54 276 54q204 0 352 -94t223 -255q74 -162 74 -370t-74 -370q-75 -161 -223 -255t-352 -94zM750 117q213 0 328 154q116 154 116 415
q0 260 -116 415q-115 154 -328 154t-328 -154q-117 -155 -117 -415q0 -262 117 -415q115 -154 328 -154z" />
    <glyph glyph-name="afii10033" unicode="&#x41f;" horiz-adv-x="1413" 
d="M371 0h-195v1372h1061v-1372h-195v1223h-671v-1223z" />
    <glyph glyph-name="afii10034" unicode="&#x420;" horiz-adv-x="1206" 
d="M621 535h-250v-535h-195v1372h481q231 0 352 -111t121 -296q0 -202 -126 -316t-383 -114zM627 1235h-256v-561h256q154 0 230 73q77 74 77 209t-77 207t-230 72z" />
    <glyph glyph-name="afii10035" unicode="&#x421;" horiz-adv-x="1413" 
d="M735 -33q-196 0 -340 92q-145 91 -220 253t-75 374q0 208 75 372q75 162 220 255q146 92 340 92q239 0 397 -132q158 -134 201 -364h-207q-34 164 -137 256q-102 90 -254 90q-204 0 -317 -155q-113 -152 -113 -414q0 -261 113 -416q114 -153 317 -153q150 0 252 87
q103 88 137 247h205q-37 -223 -197 -354q-158 -130 -397 -130z" />
    <glyph glyph-name="afii10036" unicode="&#x422;" horiz-adv-x="1193" 
d="M694 0h-194v1223h-455v149h1104v-149h-455v-1223z" />
    <glyph glyph-name="afii10037" unicode="&#x423;" horiz-adv-x="1118" 
d="M1112 1372l-448 -983q-80 -163 -114 -219q-93 -146 -223 -186q-58 -19 -134 -19q-71 0 -140 29l35 156q48 -19 119 -19q51 0 96 20q43 19 75 59t54 79q22 41 45 96l-471 987h211l369 -790l346 790h180z" />
    <glyph glyph-name="afii10038" unicode="&#x424;" horiz-adv-x="1533" 
d="M864 -53h-194v166h-29q-149 0 -260 45t-176 125q-64 79 -96 181q-31 99 -31 222q0 124 35 235q35 109 102 194q66 84 179 134q110 49 253 49h23v127h194v-127h23q145 0 255 -42t178 -119q67 -78 102 -182q34 -102 34 -232q0 -134 -36 -245q-36 -112 -106 -192
q-70 -82 -179 -127q-108 -46 -248 -46h-23v-166zM1255 723q0 204 -92 314q-93 108 -270 108l-29 2v-883h23q176 0 272 118q96 119 96 341zM279 686q0 -88 20 -163q20 -74 62 -133q40 -59 112 -93q70 -33 166 -33h31v883h-21q-96 0 -168 -36q-73 -37 -116 -101
q-44 -65 -65 -146t-21 -178z" />
    <glyph glyph-name="afii10039" unicode="&#x425;" horiz-adv-x="1255" 
d="M66 1372h215l350 -532l358 532h209l-461 -667l482 -705h-220l-370 569l-381 -569h-209l483 702z" />
    <glyph glyph-name="afii10040" unicode="&#x426;" horiz-adv-x="1413" 
d="M1225 1372v-1222h141v-461h-186v311h-1004v1372h195v-1222h659v1222h195z" />
    <glyph glyph-name="afii10041" unicode="&#x427;" horiz-adv-x="1232" 
d="M862 782v590h195v-1372h-195v631q-155 -119 -356 -119q-219 0 -329 122q-111 122 -111 345v393h194v-381q0 -334 279 -334q97 0 182 33q83 31 141 92z" />
    <glyph glyph-name="afii10042" unicode="&#x428;" horiz-adv-x="1888" 
d="M1518 1372h194v-1372h-1536v1372h195v-1222h475v1222h196v-1222h476v1222z" />
    <glyph glyph-name="afii10043" unicode="&#x429;" horiz-adv-x="1898" 
d="M1712 1372v-1222h139v-461h-186v311h-1489v1372h195v-1222h475v1222h196v-1222h476v1222h194z" />
    <glyph glyph-name="afii10044" unicode="&#x42a;" horiz-adv-x="1198" 
d="M6 1223v149h432v-530h185q253 0 396 -102q142 -102 142 -310q0 -89 -29 -167q-29 -75 -89 -136q-60 -60 -159 -93q-99 -34 -231 -34h-401v1223h-246zM594 696h-156v-551h187q336 0 336 267q0 156 -88 220t-279 64z" />
    <glyph glyph-name="afii10045" unicode="&#x42b;" horiz-adv-x="1634" 
d="M362 842h195q253 0 396 -102t143 -310q0 -89 -29 -167q-29 -75 -89 -136q-60 -60 -159 -93q-99 -34 -231 -34h-412v1372h186v-530zM528 696h-166v-551h197q173 0 255 68q81 68 81 199q0 158 -88 221q-89 63 -279 63zM1458 0h-194v1372h194v-1372z" />
    <glyph glyph-name="afii10046" unicode="&#x42c;" horiz-adv-x="1142" 
d="M362 842h205q253 0 396 -102t143 -310q0 -89 -29 -167q-29 -75 -89 -136q-60 -60 -159 -93q-99 -34 -231 -34h-422v1372h186v-530zM539 696h-177v-551h207q172 0 254 70t82 197q0 155 -88 219q-89 65 -278 65z" />
    <glyph glyph-name="afii10047" unicode="&#x42d;" horiz-adv-x="1347" 
d="M455 600v148h592q-2 80 -16 148q-15 69 -47 138q-32 64 -80 115q-48 49 -119 77q-73 29 -160 29q-150 0 -241 -76q-92 -77 -114 -208h-188q42 210 180 322q136 112 371 112q192 0 334 -92q139 -93 210 -254q70 -161 70 -373q0 -332 -158 -526q-159 -193 -450 -193
q-242 0 -391 113q-150 113 -182 319h184q37 -141 131 -212q92 -70 258 -70q96 0 174 38q76 37 125 104q48 66 75 152q27 89 31 189h-589z" />
    <glyph glyph-name="afii10048" unicode="&#x42e;" horiz-adv-x="1878" 
d="M371 0h-195v1372h195v-606h200q11 134 52 246q43 114 114 202q73 90 184 140q113 51 253 51q122 0 225 -38q101 -39 171 -106q70 -69 117 -158q46 -91 69 -196q22 -103 22 -221q0 -326 -159 -522q-159 -197 -445 -197q-150 0 -263 49q-115 50 -185 138q-72 89 -110 205
t-45 257h-200v-616zM1174 117q199 0 302 151q103 149 103 418q0 120 -22 217q-23 102 -68 180q-46 79 -127 126q-79 46 -188 46q-102 0 -181 -46q-81 -47 -128 -125q-48 -79 -72 -181q-25 -99 -25 -217q0 -96 13 -173q12 -82 42 -155q30 -75 76 -126q45 -52 116 -84
q69 -31 159 -31z" />
    <glyph glyph-name="afii10049" unicode="&#x42f;" horiz-adv-x="1255" 
d="M1079 0h-194v578h-277l-370 -578h-218l410 610q-326 68 -326 363q0 187 135 294q135 105 367 105h473v-1372zM645 1231q-175 0 -258 -69q-84 -70 -84 -187q0 -132 90 -193q89 -63 271 -63h221v512h-240z" />
    <glyph glyph-name="afii10065" unicode="&#x430;" horiz-adv-x="1079" 
d="M408 -27q-154 0 -243 74t-89 209q0 72 27 130q25 56 76 96q49 38 112 67q57 27 143 44q85 16 159 23q79 8 171 9v24q0 129 -60 200t-169 71q-96 0 -160 -50q-62 -49 -82 -143h-178q27 150 139 235t289 85q197 0 301 -110q102 -110 102 -329v-608h-168l-10 145
q-55 -82 -149 -127q-95 -45 -211 -45zM455 100q133 0 222 86q87 86 87 213v113q-240 -1 -372 -62q-130 -61 -130 -180q0 -80 53 -125t140 -45z" />
    <glyph glyph-name="afii10066" unicode="&#x431;" horiz-adv-x="1165" 
d="M283 489q0 -113 30 -197q28 -84 99 -137t176 -53q137 0 217 101q78 101 78 258q0 81 -14 149q-15 68 -46 119q-33 55 -86 82q-56 29 -131 29q-139 0 -230 -103q-93 -103 -93 -248zM985 1450v-164q-14 -7 -27 -11q-18 -5 -35 -8q-19 -4 -35 -6q-21 -4 -42 -5
q-10 -1 -24 -2.5t-17 -1.5q-35 -3 -46 -4q-30 -1 -44 -3q-105 -7 -190 -37q-80 -28 -145 -85q-62 -56 -97 -150q-35 -95 -41 -223h6q140 221 387 221q113 0 199 -37q88 -38 140 -104q53 -68 80 -157t27 -198q0 -100 -33 -190q-35 -92 -95 -161q-62 -71 -155 -111
q-94 -42 -210 -42q-112 0 -201 33q-90 32 -145 87q-57 55 -92 133q-37 78 -51 164q-15 86 -15 187q0 364 94 533q41 76 94 133q50 54 111 86q66 34 124 49q66 17 152 29q34 4 113 9q78 5 130 12q51 7 83 24z" />
    <glyph glyph-name="afii10067" unicode="&#x432;" horiz-adv-x="1005" 
d="M543 0h-393v1020h366q174 0 280 -68q105 -69 105 -190q0 -176 -194 -230q117 -22 180 -85q61 -62 61 -160q0 -140 -115 -213q-116 -74 -290 -74zM500 897h-166v-319h145q121 0 183 39q61 39 61 133q0 80 -55 114q-56 33 -168 33zM481 461h-147v-338h186q118 0 183 38
t65 130q0 95 -73 132q-74 38 -214 38z" />
    <glyph glyph-name="afii10068" unicode="&#x433;" horiz-adv-x="763" 
d="M334 0h-184v1020h598v-123h-414v-897z" />
    <glyph glyph-name="afii10069" unicode="&#x434;" horiz-adv-x="1140" 
d="M1112 -219h-184v219h-735v-219h-185v342h113q31 39 51 93q19 52 27 131q9 92 10 139q2 80 2 169v365h770v-897h131v-342zM379 897v-246q-1 -181 -18 -309q-17 -129 -58 -219h494v774h-418z" />
    <glyph glyph-name="afii10070" unicode="&#x435;" horiz-adv-x="1122" 
d="M573 -27q-101 0 -187 34q-87 34 -155 99t-107 169q-40 102 -40 235q0 124 39 227q40 104 106 170q65 66 154 104q87 36 186 36q215 0 344 -144t129 -391v-49h-774q11 -168 90 -265q78 -98 217 -98q220 0 277 215h178q-42 -168 -163 -254q-121 -88 -294 -88zM569 920
q-122 0 -205 -89t-94 -245h588q-13 156 -88 246q-73 88 -201 88z" />
    <glyph glyph-name="afii10072" unicode="&#x436;" horiz-adv-x="1527" 
d="M856 0h-184v438h-97l-331 -438h-224l400 502q-130 64 -227 205q-97 139 -111 313h192q13 -160 94 -288q80 -126 207 -171h97v459h184v-459h96q128 37 210 165t95 294h189q-13 -171 -106 -311q-92 -138 -222 -203l389 -506h-231l-324 438h-96v-438z" />
    <glyph glyph-name="afii10073" unicode="&#x437;" horiz-adv-x="993" 
d="M356 457v123h152q95 0 150 43q55 42 55 120q0 82 -57 127q-58 45 -158 45q-228 0 -246 -198h-180q10 159 126 245q115 85 306 85q80 0 147 -15q66 -15 123 -47q56 -31 87 -87q32 -56 32 -130q0 -94 -54 -152q-54 -60 -149 -84v-4q109 -11 175 -77q68 -68 69 -160
q3 -141 -116 -230q-119 -88 -322 -88q-178 0 -293 87t-129 243h184q13 -96 77 -148q63 -51 173 -51q111 0 179 51q67 49 67 134q0 168 -238 168h-160z" />
    <glyph glyph-name="afii10074" unicode="&#x438;" horiz-adv-x="1171" 
d="M1022 0h-178v657l8 148l-518 -805h-184v1020h178v-664l-9 -143l519 807h184v-1020z" />
    <glyph glyph-name="afii10075" unicode="&#x439;" horiz-adv-x="1171" 
d="M1022 0h-178v657l8 148l-518 -805h-184v1020h178v-664l-9 -143l519 807h184v-1020zM586 1169q-129 0 -214 82q-86 83 -98 213h125q12 -76 63 -124t124 -48q72 0 123 48t63 124h125q-12 -131 -97 -213t-214 -82z" />
    <glyph glyph-name="afii10076" unicode="&#x43a;" horiz-adv-x="1044" 
d="M334 0h-184v1020h184v-459h125q127 37 210 165q82 128 95 294h188q-13 -171 -106 -311q-90 -138 -221 -203l389 -506h-232l-323 438h-125v-438z" />
    <glyph glyph-name="afii10077" unicode="&#x43b;" horiz-adv-x="1120" 
d="M367 897v-264q0 -21 -0.5 -62t-1.5 -59q-1 -49 -6 -115q-4 -57 -13 -110q-11 -53 -22 -96q-13 -50 -35 -84q-21 -33 -49 -61q-29 -29 -67 -42q-36 -14 -87 -14q-46 0 -76 6v145q21 -4 37 -4q27 0 47 10q20 9 35 30q17 26 25 45q10 24 18 62q7 36 12 73q5 35 6 86
q2 53 3 93v101v383h778v-1020h-185v897h-419z" />
    <glyph glyph-name="afii10078" unicode="&#x43c;" horiz-adv-x="1355" 
d="M250 0h-162l127 1020h191l266 -744l282 744h185l129 -1020h-183l-94 776l-256 -692h-139l-256 686z" />
    <glyph glyph-name="afii10079" unicode="&#x43d;" horiz-adv-x="1163" 
d="M1014 0h-185v463h-495v-463h-184v1020h184v-434h495v434h185v-1020z" />
    <glyph glyph-name="afii10080" unicode="&#x43e;" horiz-adv-x="1167" 
d="M584 -27q-221 0 -361 152q-139 151 -139 385t139 385q140 152 361 152t361 -152q138 -151 138 -385t-138 -385q-140 -152 -361 -152zM584 104q141 0 225 112t84 294t-84 294q-84 111 -225 111t-225 -112q-85 -112 -85 -293q0 -182 85 -294q84 -112 225 -112z" />
    <glyph glyph-name="afii10081" unicode="&#x43f;" horiz-adv-x="1163" 
d="M1014 0h-185v897h-495v-897h-184v1020h864v-1020z" />
    <glyph glyph-name="afii10082" unicode="&#x440;" horiz-adv-x="1187" 
d="M334 -430h-184v1450h167l11 -170q52 91 145 145q91 52 197 52q132 0 233 -71q99 -70 150 -192t51 -274q0 -238 -122 -387q-122 -150 -320 -150q-108 0 -192 48q-84 46 -136 131v-582zM618 111q137 0 216 112t79 287t-79 287t-216 112q-123 0 -205 -103q-83 -104 -83 -280
v-30q0 -180 84 -283q82 -102 204 -102z" />
    <glyph glyph-name="afii10083" unicode="&#x441;" horiz-adv-x="1101" 
d="M578 -27q-102 0 -191 36q-90 35 -157 102q-69 67 -107 169q-39 104 -39 230q0 122 39 224t107 170q70 70 157 106q89 37 193 37q108 0 200 -39q90 -38 158 -123q67 -86 86 -205h-184q-29 122 -96 179q-70 56 -166 56q-45 0 -90 -14q-43 -13 -82 -45q-42 -32 -69 -77
q-30 -49 -46 -115q-17 -71 -17 -154q0 -103 26 -184q25 -79 70 -127q44 -47 96 -71t112 -24q202 0 268 254h180q-23 -126 -90 -214q-70 -90 -160 -130q-93 -41 -198 -41z" />
    <glyph glyph-name="afii10084" unicode="&#x442;" horiz-adv-x="872" 
d="M528 0h-184v897h-328v123h840v-123h-328v-897z" />
    <glyph glyph-name="afii10085" unicode="&#x443;" horiz-adv-x="1017" 
d="M-10 -414l43 129q68 -30 139 -30q64 0 112 42q48 43 85 134l67 164l-405 995h194l293 -805l289 805h180l-463 -1180q-57 -153 -141 -225t-205 -72q-102 0 -188 43z" />
    <glyph glyph-name="afii10086" unicode="&#x444;" horiz-adv-x="1429" 
d="M807 -430h-184v403h-39q-221 0 -361 152q-139 151 -139 385t139 385q140 152 361 152h39v387h184v-387h39q221 0 361 -152q139 -151 139 -385t-139 -385q-140 -152 -361 -152h-39v-403zM584 104l39 -2v813h-39q-141 0 -225 -112q-85 -112 -85 -293q0 -182 85 -294
q84 -112 225 -112zM846 915h-39v-811h39q141 0 225 112t84 294t-84 294q-84 111 -225 111z" />
    <glyph glyph-name="afii10087" unicode="&#x445;" horiz-adv-x="1015" 
d="M215 0h-190l387 524l-361 496h209l254 -375l272 375h191l-367 -490l383 -530h-209l-276 406z" />
    <glyph glyph-name="afii10088" unicode="&#x446;" horiz-adv-x="1163" 
d="M1004 1020v-897h131v-342h-185v219h-800v1020h184v-897h485v897h185z" />
    <glyph glyph-name="afii10089" unicode="&#x447;" horiz-adv-x="1077" 
d="M743 1020h185v-1020h-185v434q-130 -112 -301 -112q-368 0 -368 409v289h184v-289q0 -141 54 -206q52 -64 163 -64q85 0 154 34q68 33 114 89v436z" />
    <glyph glyph-name="afii10090" unicode="&#x448;" horiz-adv-x="1650" 
d="M150 1020h184v-897h399v897h185v-897h399v897h184v-1020h-1351v1020z" />
    <glyph glyph-name="afii10091" unicode="&#x449;" horiz-adv-x="1660" 
d="M1501 1020v-897h131v-342h-184v219h-1298v1020h184v-897h399v897h185v-897h399v897h184z" />
    <glyph glyph-name="afii10092" unicode="&#x44a;" horiz-adv-x="1007" 
d="M16 897v123h375v-395h146q209 0 322 -73q114 -74 114 -224q0 -156 -102 -242q-103 -86 -271 -86h-393v897h-191zM539 508h-148v-385h187q101 0 159 47q56 47 56 143q0 100 -62 148q-62 47 -192 47z" />
    <glyph glyph-name="afii10093" unicode="&#x44b;" horiz-adv-x="1325" 
d="M334 625h108q208 0 323 -73q114 -74 114 -224q0 -156 -102 -242q-103 -86 -271 -86h-356v1020h184v-395zM444 508h-110v-385h149q101 0 159 47q56 47 56 143q0 100 -62 148q-62 47 -192 47zM1176 0h-185v1020h185v-1020z" />
    <glyph glyph-name="afii10094" unicode="&#x44c;" horiz-adv-x="950" 
d="M334 625h145q209 0 322 -73q114 -74 114 -224q0 -156 -102 -242q-103 -86 -270 -86h-393v1020h184v-395zM481 508h-147v-385h186q101 0 159 47q56 47 56 143q0 100 -62 148q-62 47 -192 47z" />
    <glyph glyph-name="afii10095" unicode="&#x44d;" horiz-adv-x="1062" 
d="M328 449v122h465q-7 148 -79 247q-72 97 -206 97q-217 0 -256 -194h-180q27 155 138 240q110 86 300 86q151 0 260 -71q107 -71 158 -190q51 -120 51 -276q0 -242 -126 -389q-127 -148 -349 -148q-194 0 -298 89q-105 89 -132 233h182q44 -191 252 -191q132 0 205 96
q73 97 80 249h-465z" />
    <glyph glyph-name="afii10096" unicode="&#x44e;" horiz-adv-x="1497" 
d="M944 -27q-144 0 -247 68q-106 68 -159 176q-56 109 -63 246h-141v-463h-184v1020h184v-434h145q11 100 44 179q34 82 91 146q57 63 142 100q85 36 188 36q89 0 164 -28q76 -29 131 -78q53 -48 95 -117q40 -69 59 -147q20 -82 20 -167q0 -152 -52 -271t-161 -193
q-107 -73 -256 -73zM944 104q91 0 158 56q65 56 96 146q31 89 31 204q0 113 -31 203q-32 90 -98 146q-67 56 -156 56q-73 0 -131 -35q-57 -36 -89 -95q-32 -58 -49 -129q-16 -68 -16 -146q0 -81 17 -154q17 -75 50 -129q33 -57 89 -90q55 -33 129 -33z" />
    <glyph glyph-name="afii10097" unicode="&#x44f;" horiz-adv-x="997" 
d="M221 0h-205l295 403q-229 60 -229 279q0 159 107 249q107 89 290 89h369v-1020h-184v375h-193zM516 492h148v405h-187q-100 0 -157 -51q-58 -52 -58 -150q0 -204 254 -204z" />
    <glyph glyph-name="afii10071" unicode="&#x451;" horiz-adv-x="1122" 
d="M573 -27q-101 0 -187 34q-87 34 -155 99t-107 169q-40 102 -40 235q0 124 39 227q40 104 106 170q65 66 154 104q87 36 186 36q215 0 344 -144t129 -391v-49h-774q11 -168 90 -265q78 -98 217 -98q220 0 277 215h178q-42 -168 -163 -254q-121 -88 -294 -88zM569 920
q-122 0 -205 -89t-94 -245h588q-13 156 -88 246q-73 88 -201 88zM762 1186q-46 0 -77 30q-32 30 -32 76q0 45 32 77q31 30 77 30q44 0 76 -30q30 -30 30 -77q0 -48 -30 -76q-32 -30 -76 -30zM377 1186q-45 0 -76 30t-31 76q0 47 31 77t76 30t77 -30q31 -31 31 -77t-31 -76
q-32 -30 -77 -30z" />
    <glyph glyph-name="afii10099" unicode="&#x452;" horiz-adv-x="1128" 
d="M1044 346q0 -254 -85 -439q-85 -184 -279 -337l-80 117q125 107 189 263q65 159 65 396q0 160 -55 239t-178 79q-127 0 -207 -98t-80 -283v-283h-184v1071h-150v123h150v240h184v-240h395v-123h-395v-459q52 93 144 143q92 48 198 48q102 0 176 -36q73 -36 114 -101
q40 -64 60 -144q18 -79 18 -176z" />
    <glyph glyph-name="afii10100" unicode="&#x453;" horiz-adv-x="763" 
d="M334 0h-184v1020h598v-123h-414v-897zM346 1159l-67 82l305 293l106 -125z" />
    <glyph glyph-name="afii10101" unicode="&#x454;" horiz-adv-x="1101" 
d="M836 322h182q-40 -168 -163 -259q-122 -90 -277 -90q-102 0 -191 36q-90 35 -157 102q-69 67 -107 169q-39 104 -39 230q0 122 39 224t107 170q70 70 157 106q89 37 193 37q107 0 197 -37q89 -37 157 -119q66 -82 88 -197h-186q-57 221 -258 221q-112 0 -198 -81
q-86 -83 -104 -248h404v-123h-406q6 -94 34 -163q30 -74 71 -112q44 -42 94 -63q49 -21 105 -21q187 0 258 218z" />
    <glyph glyph-name="afii10102" unicode="&#x455;" horiz-adv-x="1005" 
d="M510 -27q-193 0 -306 86t-132 244h184q32 -209 256 -209q111 0 171 42t60 118q0 128 -186 174l-166 41q-138 34 -209 102t-71 187q0 131 109 210q107 79 282 79q179 0 283 -79q105 -79 130 -227h-182q-38 185 -237 185q-93 0 -148 -43t-55 -117q0 -60 39 -94
q40 -35 123 -56l166 -41q153 -37 228 -108t75 -199q0 -137 -109 -216t-305 -79z" />
    <glyph glyph-name="afii10103" unicode="&#x456;" horiz-adv-x="487" 
d="M242 1192q-50 0 -83 33q-34 33 -34 84q0 49 34 82q34 32 83 32q50 0 85 -32q33 -33 33 -82q0 -51 -33 -84q-34 -33 -85 -33zM336 0h-184v1020h184v-1020z" />
    <glyph glyph-name="afii10104" unicode="&#x457;" horiz-adv-x="487" 
d="M336 0h-184v1020h184v-1020zM76 1184q-47 0 -78 31q-31 30 -31 77t31 78t78 31q46 0 77 -31t31 -78t-31 -77q-31 -31 -77 -31zM408 1184q-47 0 -78 31q-31 30 -31 77t31 78t78 31t78 -31q30 -32 30 -78q0 -47 -30 -77q-31 -31 -78 -31z" />
    <glyph glyph-name="afii10105" unicode="&#x458;" horiz-adv-x="501" 
d="M250 1192q-50 0 -83 33q-34 33 -34 84q0 49 34 82q34 32 83 32q50 0 85 -32q34 -33 34 -82q0 -51 -34 -84t-85 -33zM-154 -428l31 131q48 -16 109 -16q82 0 128 55t46 170v1108h184v-1086q0 -391 -342 -391q-72 0 -156 29z" />
    <glyph glyph-name="afii10106" unicode="&#x459;" horiz-adv-x="1529" 
d="M1122 0h-364v897h-391v-264q0 -21 -0.5 -62t-1.5 -59q-2 -51 -6 -115q-4 -57 -13 -110q-11 -53 -22 -96q-14 -51 -33 -84q-20 -31 -48 -61q-29 -28 -66 -42q-35 -14 -85 -14q-52 0 -82 6v145q21 -4 37 -4q27 0 47 10q20 9 35 30q17 26 25 45q10 24 18 62q7 36 12 73
q5 35 6 86q2 53 3 93v101v383h749v-395h117q209 0 322 -73q114 -74 114 -224q0 -156 -102 -242q-103 -86 -271 -86zM1061 508h-119v-385h158q101 0 159 47q56 47 56 143q0 100 -62 148q-62 47 -192 47z" />
    <glyph glyph-name="afii10107" unicode="&#x45a;" horiz-adv-x="1581" 
d="M1174 0h-369v463h-471v-463h-184v1020h184v-434h471v434h184v-434h121q436 0 436 -279q0 -153 -102 -230q-103 -77 -270 -77zM1112 463h-123v-340h162q215 0 215 170q0 90 -62 131q-62 39 -192 39z" />
    <glyph glyph-name="afii10108" unicode="&#x45b;" horiz-adv-x="1128" 
d="M334 0h-184v1071h-150v123h150v240h184v-240h395v-123h-395v-459q52 93 144 143q92 48 198 48q181 0 275 -108q93 -109 93 -302v-393h-184v367q0 297 -239 297q-127 0 -207 -98t-80 -283v-283z" />
    <glyph glyph-name="afii10109" unicode="&#x45c;" horiz-adv-x="1044" 
d="M334 0h-184v1020h184v-459h125q127 37 210 165q82 128 95 294h188q-13 -171 -106 -311q-90 -138 -221 -203l389 -506h-232l-323 438h-125v-438zM496 1159l-68 82l305 293l107 -125z" />
    <glyph glyph-name="afii10110" unicode="&#x45e;" horiz-adv-x="1017" 
d="M-10 -414l43 129q68 -30 139 -30q64 0 112 42q48 43 85 134l67 164l-405 995h194l293 -805l289 805h180l-463 -1180q-57 -153 -141 -225t-205 -72q-102 0 -188 43zM520 1169q-129 0 -214 82t-97 213h125q12 -76 63 -124t123 -48q73 0 124 48t63 124h124
q-12 -131 -97 -213t-214 -82z" />
    <glyph glyph-name="afii10193" unicode="&#x45f;" horiz-adv-x="1153" 
d="M1004 1020v-1020h-334v-219h-185v219h-335v1020h184v-897h485v897h185z" />
    <glyph glyph-name="afii10146" unicode="&#x462;" horiz-adv-x="1142" 
d="M0 1063v149h176v160h186v-160h392v-149h-392v-221h205q253 0 396 -102t143 -310q0 -89 -29 -167q-29 -75 -89 -136q-60 -60 -159 -93q-99 -34 -231 -34h-422v1063h-176zM539 696h-177v-551h207q172 0 254 70t82 197q0 155 -88 219q-89 65 -278 65z" />
    <glyph glyph-name="afii10194" unicode="&#x463;" horiz-adv-x="950" 
d="M4 897v123h146v414h184v-414h358v-123h-358v-272h145q209 0 322 -73q114 -74 114 -224q0 -156 -102 -242q-103 -86 -270 -86h-393v897h-146zM481 508h-147v-385h186q101 0 159 47q56 47 56 143q0 100 -62 148q-62 47 -192 47z" />
    <glyph glyph-name="afii10147" unicode="&#x472;" horiz-adv-x="1499" 
d="M750 -33q-153 0 -276 54q-124 54 -205 150q-81 94 -125 228q-44 132 -44 287q0 154 44 288q44 133 125 227q81 96 205 150q123 54 276 54q204 0 352 -94t223 -255q74 -162 74 -370t-74 -370q-75 -161 -223 -255t-352 -94zM750 117q113 0 197 40t137 111q50 69 79 158
q27 81 35 190h-897q6 -100 33 -184q25 -82 77 -158q50 -73 138 -115q85 -42 201 -42zM750 1255q-85 0 -157 -26q-71 -26 -121 -71q-50 -44 -87 -107t-57 -134q-19 -70 -27 -151h895q-7 100 -37 189q-29 86 -81 155q-53 68 -136 107q-85 38 -192 38z" />
    <glyph glyph-name="afii10195" unicode="&#x473;" horiz-adv-x="1167" 
d="M584 -27q-221 0 -361 152q-139 151 -139 385t139 385q140 152 361 152t361 -152q138 -151 138 -385t-138 -385q-140 -152 -361 -152zM584 104q99 0 170 53q70 52 104 131q33 78 39 175h-627q4 -72 26 -137q21 -63 59 -114q37 -50 96 -79q60 -29 133 -29zM584 915
q-72 0 -131 -27q-58 -28 -94 -75q-36 -45 -58 -104q-21 -53 -29 -123h623q-8 69 -29 122q-24 60 -59 105q-38 47 -94 75q-59 27 -129 27z" />
    <glyph glyph-name="afii10148" unicode="&#x474;" horiz-adv-x="1349" 
d="M1337 1395l-22 -146q-11 4 -41 4q-65 0 -99 -40q-35 -41 -69 -138l-369 -1075h-200l-492 1372h203l393 -1171l301 946q43 133 114 196q71 62 210 62q42 0 71 -10z" />
    <glyph glyph-name="afii10196" unicode="&#x475;" horiz-adv-x="1091" 
d="M1079 1022l-26 -133q-12 4 -39 4q-58 0 -87 -38q-28 -39 -63 -134l-252 -721h-192l-389 1020h198l295 -827l191 614q35 111 93 169q57 58 167 58q49 0 104 -12z" />
    <glyph glyph-name="afii10050" unicode="&#x490;" horiz-adv-x="956" 
d="M741 1372v207h191v-356h-561v-1223h-195v1372h565z" />
    <glyph glyph-name="afii10098" unicode="&#x491;" horiz-adv-x="763" 
d="M571 1020v213h177v-336h-414v-897h-184v1020h421z" />
    <glyph glyph-name="uni1E24" unicode="&#x1e24;" horiz-adv-x="1433" 
d="M371 0h-195v1372h195v-606h692v606h194v-1372h-194v616h-692v-616zM717 -408q-53 0 -87 34t-34 85t34 85t87 34t87 -34t34 -85t-34 -85t-87 -34z" />
    <glyph glyph-name="uni1E25" unicode="&#x1e25;" horiz-adv-x="1177" 
d="M334 0h-184v1434h184v-578q52 93 144 143q92 48 198 48q181 0 275 -108q93 -110 93 -302v-637h-184v610q0 297 -239 297q-127 0 -207 -98t-80 -283v-526zM596 -401q-50 0 -85 32q-34 33 -34 82q0 50 34 83q34 34 85 34t85 -34q34 -33 34 -83q0 -49 -34 -82
q-35 -32 -85 -32z" />
    <glyph glyph-name="uni1E36" unicode="&#x1e36;" horiz-adv-x="1067" 
d="M1008 0h-832v1372h195v-1222h637v-150zM592 -408q-54 0 -87 34q-34 34 -34 85t34 85q33 34 87 34t88 -34q33 -34 33 -85t-33 -85q-34 -34 -88 -34z" />
    <glyph glyph-name="uni1E37" unicode="&#x1e37;" horiz-adv-x="487" 
d="M336 0h-184v1434h184v-1434zM244 -401q-50 0 -85 32q-34 33 -34 82q0 50 34 83q34 34 85 34t85 -34q33 -33 33 -83q0 -49 -33 -82q-35 -32 -85 -32z" />
    <glyph glyph-name="Wgrave" unicode="&#x1e80;" horiz-adv-x="1871" 
d="M631 0h-211l-367 1372h201l289 -1130l315 1130h166l315 -1134l291 1134h189l-367 -1372h-211l-303 1094zM639 1677l82 158l418 -252l-52 -100z" />
    <glyph glyph-name="wgrave" unicode="&#x1e81;" horiz-adv-x="1552" 
d="M535 0h-191l-313 1020h194l228 -827l252 827h161l252 -830l228 830h176l-314 -1020h-190l-242 786zM537 1409l106 125l305 -293l-67 -82z" />
    <glyph glyph-name="Wacute" unicode="&#x1e82;" horiz-adv-x="1871" 
d="M631 0h-211l-367 1372h201l289 -1130l315 1130h166l315 -1134l291 1134h189l-367 -1372h-211l-303 1094zM793 1483l-52 100l418 252l82 -158z" />
    <glyph glyph-name="wacute" unicode="&#x1e83;" horiz-adv-x="1552" 
d="M535 0h-191l-313 1020h194l228 -827l252 827h161l252 -830l228 830h176l-314 -1020h-190l-242 786zM688 1159l-67 82l305 293l106 -125z" />
    <glyph glyph-name="Wdieresis" unicode="&#x1e84;" horiz-adv-x="1871" 
d="M631 0h-211l-367 1372h201l289 -1130l315 1130h166l315 -1134l291 1134h189l-367 -1372h-211l-303 1094zM1155 1546q-47 0 -79 32t-32 81t32 81t79 32q49 0 81 -32t32 -81q0 -51 -31 -82t-82 -31zM725 1546q-50 0 -81 31q-32 32 -32 82q0 49 32 81t81 32q48 0 80 -32
q31 -31 31 -81t-31 -81q-32 -32 -80 -32z" />
    <glyph glyph-name="wdieresis" unicode="&#x1e85;" horiz-adv-x="1552" 
d="M535 0h-191l-313 1020h194l228 -827l252 827h161l252 -830l228 830h176l-314 -1020h-190l-242 786zM977 1186q-45 0 -77 30t-32 76q0 45 32 77q32 30 77 30t76 -30q30 -30 30 -77q0 -48 -30 -76q-31 -30 -76 -30zM592 1186q-45 0 -76 30t-31 76q0 47 31 77t76 30
q46 0 77 -30q31 -31 31 -77t-31 -76t-77 -30z" />
    <glyph glyph-name="uni1E9E" unicode="&#x1e9e;" horiz-adv-x="1363" 
d="M350 0h-194v860q0 260 138 403q136 142 386 142q338 0 508 -297l-328 -311q204 -18 308 -133q104 -116 104 -281q0 -189 -125 -302q-126 -114 -356 -114q-140 0 -230 43l29 133q72 -30 172 -30q147 0 228 72t81 206q0 137 -87 212q-88 75 -263 75h-41v123l319 315
q-103 150 -323 150q-154 0 -240 -93q-86 -95 -86 -276v-897z" />
    <glyph glyph-name="Ygrave" unicode="&#x1ef2;" horiz-adv-x="1220" 
d="M35 1372h207l372 -684l375 684h197l-479 -821v-551h-195v551zM315 1677l82 158l418 -252l-51 -100z" />
    <glyph glyph-name="ygrave" unicode="&#x1ef3;" horiz-adv-x="1011" 
d="M-10 -414l43 129q68 -30 139 -30q64 0 112 42q48 43 85 134l67 164l-405 995h194l293 -805l289 805h180l-463 -1180q-57 -153 -141 -225t-205 -72q-102 0 -188 43zM268 1409l107 125l305 -293l-68 -82z" />
    <glyph glyph-name="uni2000" unicode="&#x2000;" horiz-adv-x="1024" 
 />
    <glyph glyph-name="uni2001" unicode="&#x2001;" horiz-adv-x="2048" 
 />
    <glyph glyph-name="uni2002" unicode="&#x2002;" horiz-adv-x="1024" 
 />
    <glyph glyph-name="uni2003" unicode="&#x2003;" horiz-adv-x="2048" 
 />
    <glyph glyph-name="uni2004" unicode="&#x2004;" horiz-adv-x="681" 
 />
    <glyph glyph-name="uni2005" unicode="&#x2005;" horiz-adv-x="512" 
 />
    <glyph glyph-name="uni2006" unicode="&#x2006;" horiz-adv-x="339" 
 />
    <glyph glyph-name="uni2007" unicode="&#x2007;" horiz-adv-x="1208" 
 />
    <glyph glyph-name="uni2008" unicode="&#x2008;" horiz-adv-x="450" 
 />
    <glyph glyph-name="uni2009" unicode="&#x2009;" horiz-adv-x="409" 
 />
    <glyph glyph-name="uni200A" unicode="&#x200a;" horiz-adv-x="126" 
 />
    <glyph glyph-name="uni200B" unicode="&#x200b;" 
 />
    <glyph glyph-name="uni2010" unicode="&#x2010;" horiz-adv-x="784" 
d="M692 420h-600v149h600v-149z" />
    <glyph glyph-name="uni2011" unicode="&#x2011;" horiz-adv-x="784" 
d="M692 420h-600v149h600v-149z" />
    <glyph glyph-name="figuredash" unicode="&#x2012;" horiz-adv-x="1208" 
d="M1116 420h-1024v149h1024v-149z" />
    <glyph glyph-name="endash" unicode="&#x2013;" horiz-adv-x="1024" 
d="M1024 420h-1024v149h1024v-149z" />
    <glyph glyph-name="emdash" unicode="&#x2014;" horiz-adv-x="2048" 
d="M2048 420h-2048v149h2048v-149z" />
    <glyph glyph-name="uni2015" unicode="&#x2015;" horiz-adv-x="2048" 
d="M2048 420h-2048v149h2048v-149z" />
    <glyph glyph-name="quoteleft" unicode="&#x2018;" horiz-adv-x="323" 
d="M281 1452v-88q-98 -28 -121 -127q50 0 82 -29q30 -30 30 -78q0 -55 -31 -83q-32 -29 -85 -29q-55 0 -87 41t-32 117q0 106 64 179q66 75 180 97z" />
    <glyph glyph-name="quoteright" unicode="&#x2019;" horiz-adv-x="323" 
d="M43 1020v88q98 28 121 127q-50 0 -82 30q-31 28 -31 76q0 50 32 82q31 31 85 31q56 0 87 -42q32 -43 32 -116q0 -106 -64 -179q-66 -75 -180 -97z" />
    <glyph glyph-name="quotesinglbase" unicode="&#x201a;" horiz-adv-x="450" 
d="M98 -229v88q98 28 121 127q-50 0 -82 30q-31 28 -31 76q0 50 32 82q31 31 85 31q55 0 87 -42q32 -43 32 -116q0 -106 -64 -179q-66 -75 -180 -97z" />
    <glyph glyph-name="quotedblleft" unicode="&#x201c;" horiz-adv-x="634" 
d="M281 1452v-88q-98 -28 -121 -127q50 0 82 -29q30 -30 30 -78q0 -55 -31 -83q-32 -29 -85 -29q-55 0 -87 41t-32 117q0 106 64 179q66 75 180 97zM592 1452v-88q-98 -28 -121 -127q51 0 82 -30t31 -77q0 -54 -31 -82q-31 -30 -86 -30t-87 41t-32 117q0 106 64 179
q66 75 180 97z" />
    <glyph glyph-name="quotedblright" unicode="&#x201d;" horiz-adv-x="634" 
d="M43 1020v88q98 28 121 127q-50 0 -82 30q-31 28 -31 76q0 50 32 82q31 31 85 31q56 0 87 -42q32 -43 32 -116q0 -106 -64 -179q-66 -75 -180 -97zM354 1020v88q98 28 121 127q-51 0 -82 30q-31 28 -31 76q0 50 32 82q31 31 85 31q55 0 87 -42q32 -43 32 -116
q0 -106 -64 -179q-66 -75 -180 -97z" />
    <glyph glyph-name="quotedblbase" unicode="&#x201e;" horiz-adv-x="718" 
d="M76 -229v88q98 28 121 127q-51 0 -82 30q-31 28 -31 76q0 50 32 82q31 31 85 31t86 -42q32 -43 32 -116q0 -107 -63 -180q-64 -73 -180 -96zM387 -229v88q98 28 121 127q-50 0 -82 30q-31 28 -31 76q0 50 32 82q31 31 85 31q56 0 87 -42q32 -43 32 -116q0 -106 -64 -179
q-66 -75 -180 -97z" />
    <glyph glyph-name="dagger" unicode="&#x2020;" horiz-adv-x="827" 
d="M492 -215h-160l10 1102l-285 -8v151l285 -8l-10 350h160l-9 -350l287 8v-151l-287 8z" />
    <glyph glyph-name="daggerdbl" unicode="&#x2021;" horiz-adv-x="827" 
d="M342 135l-285 -6v150l285 -9v617l-285 -8v151l285 -8l-10 350h160l-9 -350l287 8v-151l-287 8v-617l287 9v-150l-287 6l9 -350h-160z" />
    <glyph glyph-name="bullet" unicode="&#x2022;" horiz-adv-x="643" 
d="M322 287q-92 0 -150 61q-59 61 -59 148q0 90 59 149q58 57 150 57q90 0 149 -57q57 -58 57 -149q0 -86 -59 -148q-60 -61 -147 -61z" />
    <glyph glyph-name="ellipsis" unicode="&#x2026;" horiz-adv-x="2048" 
d="M342 -14q-54 0 -88 35q-35 35 -35 85q0 53 35 88q34 33 88 33t88 -33q33 -34 33 -88q0 -50 -35 -85q-34 -35 -86 -35zM1024 -14q-54 0 -88 35q-35 35 -35 85q0 53 35 88q34 33 88 33t88 -33q33 -35 33 -88q0 -50 -35 -85q-34 -35 -86 -35zM1706 -14q-54 0 -88 35
q-35 35 -35 85q0 53 35 88q34 33 88 33t88 -33q33 -35 33 -88q0 -50 -35 -85q-34 -35 -86 -35z" />
    <glyph glyph-name="perthousand" unicode="&#x2030;" horiz-adv-x="2607" 
d="M391 528q-158 0 -237 112q-80 113 -80 310t80 310q79 112 237 112q157 0 236 -112q80 -113 80 -310q0 -196 -80 -309t-236 -113zM391 639q164 0 164 311q0 312 -164 312t-164 -312q0 -156 40 -233q39 -78 124 -78zM670 0h-164l688 1352h164zM1468 -20q-158 0 -237 112
q-80 112 -80 309t80 310q79 112 237 112q157 0 236 -112q80 -113 80 -310q0 -196 -80 -309q-79 -112 -236 -112zM1468 90q164 0 164 311q0 312 -164 312q-85 0 -124 -78t-39 -234q0 -155 39 -233t124 -78zM2216 -20q-158 0 -237 112q-81 112 -81 309t81 310q79 112 237 112
q157 0 236 -112t79 -310q0 -197 -79 -309t-236 -112zM2216 90q164 0 164 311q0 312 -164 312t-164 -312q0 -156 40 -233q39 -78 124 -78z" />
    <glyph glyph-name="guilsinglleft" unicode="&#x2039;" horiz-adv-x="694" 
d="M578 106h-185l-293 402l293 401h180l-284 -399z" />
    <glyph glyph-name="guilsinglright" unicode="&#x203a;" horiz-adv-x="694" 
d="M117 909h184l293 -401l-293 -402h-180l285 398z" />
    <glyph glyph-name="fraction" unicode="&#x2044;" horiz-adv-x="286" 
d="M-119 0h-164l689 1352h163z" />
    <glyph glyph-name="uni2070" unicode="&#x2070;" horiz-adv-x="747" 
d="M375 754q-158 0 -237 112q-81 112 -81 310q0 196 81 309q79 112 237 112q157 0 236 -112t79 -309q0 -198 -79 -310t-236 -112zM375 864q164 0 164 312q0 311 -164 311q-85 0 -124 -78q-40 -77 -40 -233q0 -312 164 -312z" />
    <glyph glyph-name="uni2074" unicode="&#x2074;" horiz-adv-x="722" 
d="M432 932h-395v106l403 531h133v-522h119v-115h-119v-166h-141v166zM432 1384l-260 -337h260v337z" />
    <glyph glyph-name="uni2075" unicode="&#x2075;" horiz-adv-x="710" 
d="M205 1108h-117l33 461h502v-119h-381l-17 -207q72 60 166 60q123 0 200 -75q75 -75 75 -198q0 -133 -85 -209t-229 -76q-125 0 -204 61q-81 62 -93 169h146q11 -59 51 -89t102 -30q72 0 116 44q42 44 42 124q0 79 -42 127q-44 47 -110 47q-102 0 -155 -90z" />
    <glyph glyph-name="uni2076" unicode="&#x2076;" horiz-adv-x="727" 
d="M379 754q-156 0 -239 107t-83 308q0 187 78 308q77 120 254 120q109 0 182 -55q75 -56 91 -158h-152q-11 54 -45 82q-37 29 -86 29q-161 0 -172 -293q75 96 199 96q123 0 198 -72q74 -74 74 -196q0 -124 -82 -200t-217 -76zM373 858q73 0 115 44t42 122q0 86 -40 129
t-113 43t-118 -45q-46 -46 -46 -123t46 -123q45 -47 114 -47z" />
    <glyph glyph-name="uni2077" unicode="&#x2077;" horiz-adv-x="632" 
d="M463 1470h-443v119h586v-119q-142 -179 -221 -344q-76 -160 -96 -340h-152q28 188 106 352q76 157 220 332z" />
    <glyph glyph-name="uni2078" unicode="&#x2078;" horiz-adv-x="749" 
d="M375 754q-146 0 -235 65t-89 176q0 73 45 127q45 53 125 80q-141 52 -141 180q0 98 80 157q79 58 215 58q135 0 215 -58q80 -59 80 -157q0 -62 -37 -108t-105 -72q80 -27 125 -80q45 -54 45 -127q0 -112 -88 -176q-89 -65 -235 -65zM375 1247q64 0 105 35q40 34 40 94
t-40 94q-40 33 -105 33t-105 -33q-41 -35 -41 -94t41 -94t105 -35zM375 854q75 0 121 40q47 39 47 107q0 73 -47 114q-46 40 -121 40t-121 -40q-47 -41 -47 -114q0 -68 47 -107q46 -40 121 -40z" />
    <glyph glyph-name="uni2079" unicode="&#x2079;" horiz-adv-x="722" 
d="M350 1597q144 0 230 -101t86 -302q0 -192 -80 -317q-76 -123 -248 -123q-109 0 -182 56q-74 56 -90 159h151q11 -54 44 -82q35 -29 85 -29q158 0 170 287q-72 -90 -197 -90t-199 72q-75 71 -75 192q0 127 84 203q84 75 221 75zM352 1495q-70 0 -114 -44q-43 -43 -43 -124
t42 -125q41 -45 111 -45q72 0 117 45t45 117q0 84 -43 130t-115 46z" />
    <glyph glyph-name="uni2080" unicode="&#x2080;" horiz-adv-x="747" 
d="M375 -225q-158 0 -237 112q-81 113 -81 310t81 309q79 112 237 112q157 0 236 -112t79 -309q0 -198 -79 -310t-236 -112zM375 -115q164 0 164 312q0 311 -164 311q-85 0 -124 -78q-40 -77 -40 -233q0 -312 164 -312z" />
    <glyph glyph-name="uni2081" unicode="&#x2081;" horiz-adv-x="540" 
d="M37 358v123q155 32 254 117h115v-803h-152v629q-123 -53 -217 -66z" />
    <glyph glyph-name="uni2082" unicode="&#x2082;" horiz-adv-x="731" 
d="M670 -205h-596v25q0 98 45 170q43 72 141 135l135 88q61 40 87 80t26 90q0 60 -37 94q-37 33 -100 33q-70 0 -111 -44t-47 -128h-143q8 133 90 206q83 74 219 74q129 0 206 -63t77 -166q0 -79 -36 -138q-37 -60 -120 -112l-141 -92q-59 -37 -83 -67q-26 -31 -32 -66h420
v-119z" />
    <glyph glyph-name="uni2083" unicode="&#x2083;" horiz-adv-x="722" 
d="M367 -225q-139 0 -225 68q-87 67 -99 194h143q10 -76 58 -116q47 -40 123 -40q72 0 114 36q41 38 41 103q0 152 -217 152h-22v98h22q114 0 157 34q42 33 42 87q0 58 -38 90q-37 31 -101 31q-66 0 -105 -33q-40 -35 -47 -94h-143q12 110 92 172q79 61 209 61
q128 0 205 -59q77 -60 77 -160q0 -131 -143 -178q82 -25 122 -77t40 -121q0 -113 -83 -181q-83 -67 -222 -67z" />
    <glyph glyph-name="uni2084" unicode="&#x2084;" horiz-adv-x="722" 
d="M432 -39h-395v107l403 530h133v-522h119v-115h-119v-166h-141v166zM432 414l-260 -338h260v338z" />
    <glyph glyph-name="uni2085" unicode="&#x2085;" horiz-adv-x="710" 
d="M205 135h-117l33 461h502v-119h-381l-17 -207q72 60 166 60q123 0 200 -75q75 -75 75 -198q0 -132 -85 -208t-229 -76q-124 0 -204 60q-81 62 -93 169h146q11 -59 51 -89t102 -30q73 0 116 43q42 44 42 125q0 79 -42 127q-44 47 -110 47q-102 0 -155 -90z" />
    <glyph glyph-name="uni2086" unicode="&#x2086;" horiz-adv-x="727" 
d="M379 -225q-157 0 -239 106q-83 107 -83 309q0 186 78 308q77 120 254 120q110 0 183 -55q74 -56 90 -157h-152q-11 54 -45 82t-86 28q-161 0 -172 -293q75 96 199 96q123 0 198 -72q74 -74 74 -196q0 -124 -82 -200t-217 -76zM373 -121q73 0 115 43q42 44 42 123
q0 86 -40 129t-113 43t-118 -45q-46 -46 -46 -123q0 -78 46 -124q45 -46 114 -46z" />
    <glyph glyph-name="uni2087" unicode="&#x2087;" horiz-adv-x="632" 
d="M463 479h-443v119h586v-119q-142 -179 -221 -344q-76 -160 -96 -340h-152q28 188 106 352q76 157 220 332z" />
    <glyph glyph-name="uni2088" unicode="&#x2088;" horiz-adv-x="749" 
d="M375 -225q-147 0 -235 64q-89 65 -89 177q0 73 45 127q45 53 125 80q-141 53 -141 180q0 98 80 157q79 58 215 58q135 0 215 -58q80 -59 80 -157q0 -62 -37 -108q-37 -47 -105 -72q80 -27 125 -80q45 -54 45 -127q0 -113 -88 -177t-235 -64zM375 268q64 0 105 35
q40 34 40 94t-40 94q-40 33 -105 33t-105 -33q-41 -35 -41 -94t41 -94t105 -35zM375 -125q75 0 121 40q47 41 47 108q0 73 -46 113t-122 40q-75 0 -121 -40q-47 -41 -47 -113q0 -67 47 -108q46 -40 121 -40z" />
    <glyph glyph-name="uni2089" unicode="&#x2089;" horiz-adv-x="722" 
d="M350 618q144 0 230 -101t86 -302q0 -192 -80 -317q-76 -123 -248 -123q-109 0 -182 56q-74 55 -90 159h151q11 -56 44 -83q34 -28 85 -28q158 0 170 287q-72 -90 -197 -90t-199 72q-75 70 -75 192q0 126 84 203q84 75 221 75zM352 516q-70 0 -114 -44q-43 -43 -43 -124
q0 -82 42 -125q41 -45 111 -45q72 0 117 45t45 117q0 84 -43 130t-115 46z" />
    <glyph glyph-name="Euro" unicode="&#x20ac;" horiz-adv-x="1208" 
d="M688 -33q-211 0 -344 142q-130 139 -170 372h-108v119h96q-2 30 -2 72q0 35 2 65h-96v117h108q37 235 173 377q135 141 341 141q172 0 300 -111q126 -110 161 -294h-182q-25 121 -100 193q-75 69 -179 69q-131 0 -213 -97q-83 -98 -113 -278h474l-19 -117h-465
q-2 -26 -2 -65q0 -42 2 -72h443l-19 -119h-411q27 -174 111 -272q83 -98 212 -98q106 0 182 69q75 69 101 197h180q-32 -190 -157 -299q-126 -111 -306 -111z" />
    <glyph glyph-name="uni20B9" unicode="&#x20b9;" horiz-adv-x="1208" 
d="M193 891v117h550q-42 217 -350 217h-200v114h942l-21 -114h-313q103 -82 125 -217h200l-20 -117h-180q-21 -149 -148 -239q-127 -91 -352 -91h-18l602 -561h-207l-610 561v117h200q159 0 244 57q86 57 104 156h-548z" />
    <glyph glyph-name="uni20BA" unicode="&#x20ba;" horiz-adv-x="1208" 
d="M72 451v120l155 58v157l-155 -57v121l155 57v432h179v-366l350 127v-121l-350 -127v-158l350 127v-121l-350 -127v-432h169q165 0 249 112q84 114 94 345h167q-25 -598 -518 -598h-340v508z" />
    <glyph glyph-name="uni20BD" unicode="&#x20bd;" horiz-adv-x="1208" 
d="M92 276v140h144v170h-144v139h144v647h430q215 0 344 -96t129 -285q0 -108 -37 -186q-38 -81 -106 -127q-71 -47 -161 -69q-94 -23 -206 -23h-199v-170h350v-140h-350v-276h-194v276h-144zM635 1235h-205v-510h205q307 0 307 258q0 136 -79 194t-228 58z" />
    <glyph glyph-name="afii61352" unicode="&#x2116;" horiz-adv-x="2086" 
d="M362 0h-186v1372h186l717 -1073v1073h187v-1372h-185l-719 1077v-1077zM1698 612q-155 0 -236 106q-82 106 -82 275t82 275q81 106 236 106q154 0 235 -106q80 -107 80 -275t-80 -275q-81 -106 -235 -106zM1698 743q60 0 97 37q38 38 53 91q14 54 14 122q0 109 -38 180
q-39 70 -126 70q-164 0 -164 -250q0 -50 7 -88q8 -42 24 -79q16 -38 51 -61q34 -22 82 -22zM1978 385h-571v150h571v-150z" />
    <glyph glyph-name="trademark" unicode="&#x2122;" horiz-adv-x="1837" 
d="M451 512h-148v741h-285v119h715v-119h-282v-741zM936 512h-143l100 860h166l219 -602l219 602h166l100 -860h-145l-72 655l-211 -567h-116l-211 567z" />
    <glyph glyph-name="minus" unicode="&#x2212;" horiz-adv-x="1208" 
d="M1038 606h-868v139h868v-139z" />
    <glyph glyph-name="uniFB00" unicode="&#xfb00;" horiz-adv-x="1361" 
d="M31 889v131h159v39q0 195 87 299q85 102 255 102q104 0 189 -45l-33 -117q-64 27 -131 27q-182 0 -182 -244v-61h473v39q0 195 87 299q85 102 257 102q100 0 186 -45l-30 -117q-68 27 -131 27q-185 0 -185 -244v-61h295v-131h-295v-889h-184v889h-473v-889h-185v889h-159
z" />
    <glyph glyph-name="uniFB01" unicode="&#xfb01;" horiz-adv-x="1185" 
d="M31 889v131h159v39q0 195 87 299q85 102 255 102q80 0 168 -35l-32 -120q-54 20 -111 20q-182 0 -182 -244v-61h282v-131h-282v-889h-185v889h-159zM821 1311q0 49 34 82q35 32 85 32t85 -32q34 -33 34 -82q0 -50 -34 -83q-34 -34 -85 -34q-50 0 -85 33q-34 33 -34 84z
M848 0v1020h184v-1020h-184z" />
    <glyph glyph-name="uniFB02" unicode="&#xfb02;" horiz-adv-x="1175" 
d="M31 889v131h159v39q0 195 87 299q85 102 255 102q80 0 168 -35l-32 -120q-54 20 -111 20q-182 0 -182 -244v-61h282v-131h-282v-889h-185v889h-159zM840 0v1434h184v-1434h-184z" />
    <glyph glyph-name="uniFB03" unicode="&#xfb03;" horiz-adv-x="1841" 
d="M31 889v131h159v39q0 195 87 299q85 102 255 102q104 0 189 -45l-33 -117q-64 27 -131 27q-182 0 -182 -244v-61h471v39q0 195 87 299q85 102 257 102q78 0 166 -35l-33 -120q-54 20 -109 20q-184 0 -184 -244v-61h283v-131h-283v-889h-184v889h-471v-889h-185v889h-159z
M1477 1311q0 49 34 82q34 32 84 32t85 -32q34 -33 34 -82q0 -50 -34 -83q-34 -34 -85 -34t-84 33q-34 33 -34 84zM1503 0v1020h185v-1020h-185z" />
    <glyph glyph-name="uniFB04" unicode="&#xfb04;" horiz-adv-x="1830" 
d="M31 889v131h159v39q0 195 87 299q85 102 255 102q104 0 189 -45l-33 -117q-64 27 -131 27q-182 0 -182 -244v-61h471v39q0 195 87 299q85 102 257 102q78 0 166 -35l-33 -120q-54 20 -109 20q-184 0 -184 -244v-61h283v-131h-283v-889h-184v889h-471v-889h-185v889h-159z
M1495 0v1434h184v-1434h-184z" />
    <glyph glyph-name="NULL" 
 />
    <glyph glyph-name="IJacute" horiz-adv-x="1327" 
d="M664 -33q-222 0 -355 123q-135 124 -157 344h192q19 -154 99 -235q79 -82 221 -82q319 0 319 409v846h193v-833q0 -281 -138 -426q-138 -146 -374 -146zM346 1372v-739h-194v739h194zM102 1483l-51 100l418 252l82 -158zM932 1483l-51 100l417 252l82 -158z" />
    <glyph glyph-name="acutecomb.asc" 
d="M-117 1546l-51 96l361 236l77 -145z" />
    <glyph glyph-name="acutecomb.cap" 
d="M-147 1483l-52 100l418 252l82 -158z" />
    <glyph glyph-name="acutecomb.narrow" 
d="M-53 1149l-84 72l243 303l123 -113z" />
    <glyph glyph-name="at.case" horiz-adv-x="1931" 
d="M971 -229q-267 0 -466 109t-306 308t-107 459q0 188 63 350q61 161 176 279q112 116 279 184q165 66 363 66q206 0 377 -62q170 -63 280 -172q112 -110 171 -254q59 -147 59 -313q0 -251 -108 -397t-306 -146q-201 0 -234 180q-49 -78 -134 -120q-85 -43 -183 -43
q-174 0 -277 121q-104 122 -104 309q0 189 107 311q106 121 280 121q95 0 174 -41q78 -43 125 -115l8 142h156v-613q0 -68 27 -99q26 -32 86 -32q101 0 174 109t73 313q0 139 -48 260q-50 123 -140 216t-237 149q-144 55 -326 55q-222 0 -392 -100q-173 -101 -264 -272
q-92 -173 -92 -386q0 -223 99 -396q98 -170 269 -264q169 -91 380 -91q127 0 236 23q104 22 227 77l37 -117q-125 -58 -241 -83t-261 -25zM932 328q114 0 190 84q76 83 76 202v31q0 116 -74 202q-73 85 -188 85q-113 0 -180 -85q-68 -86 -68 -218q0 -130 67 -215
q68 -86 177 -86z" />
    <glyph glyph-name="backslash.case" horiz-adv-x="667" 
d="M10 1493h166l481 -1618h-168z" />
    <glyph glyph-name="braceleft.case" horiz-adv-x="696" 
d="M125 621h-53v131h53q73 0 104 34t31 105q0 69 -15 186q-16 113 -16 180q0 134 79 201q79 68 255 68h96v-131h-84q-97 0 -137 -37q-41 -38 -41 -121q0 -71 15 -183q14 -118 14 -198q0 -81 -40 -121t-103 -49q63 -9 103 -49t40 -121q0 -80 -14 -197q-15 -114 -15 -184
q0 -82 41 -120q39 -38 137 -38h84v-131h-96q-176 0 -255 68q-79 67 -79 201q0 68 16 181q15 116 15 185q0 72 -31 106t-104 34z" />
    <glyph glyph-name="braceright.case" horiz-adv-x="696" 
d="M133 -154h-96v131h84q99 0 138 38q40 37 40 120q0 66 -14 184q-15 112 -15 197q0 80 41 121q40 40 103 49q-63 9 -103 49q-41 41 -41 121q0 84 15 198q14 117 14 183q0 84 -40 121t-138 37h-84v131h96q176 0 256 -68q78 -68 78 -201q0 -63 -15 -180q-16 -113 -16 -186
q0 -71 31 -105t104 -34h54v-131h-54q-73 0 -104 -34t-31 -106q0 -73 16 -185q15 -117 15 -181q0 -133 -78 -201q-80 -68 -256 -68z" />
    <glyph glyph-name="bracketleft.case" horiz-adv-x="593" 
d="M553 -154h-401v1680h401v-131h-227v-1418h227v-131z" />
    <glyph glyph-name="bracketright.case" horiz-adv-x="593" 
d="M41 1526h401v-1680h-401v131h227v1418h-227v131z" />
    <glyph glyph-name="bullet.case" horiz-adv-x="643" 
d="M322 477q-92 0 -150 61q-59 61 -59 148q0 90 59 149q58 58 150 58q91 0 149 -58q57 -58 57 -149q0 -86 -59 -148q-60 -61 -147 -61z" />
    <glyph glyph-name="commabelow" horiz-adv-x="1024" 
d="M360 -616v81q119 41 134 140h-2q-44 0 -75 30q-32 30 -32 76q0 47 31 77q32 30 78 30q49 0 83 -40q33 -39 33 -104q0 -103 -64 -179q-64 -77 -186 -111z" />
    <glyph glyph-name="dotbelowcomb.cap" 
d="M-121 -408q-54 0 -88 34q-33 34 -33 85t33 85q34 34 88 34t88 -34q33 -34 33 -85t-33 -85q-34 -34 -88 -34z" />
    <glyph glyph-name="dotlessij" horiz-adv-x="1157" 
d="M127 -102h180q18 -114 82 -169q62 -55 162 -55q129 0 200 86q70 86 70 258v181q-48 -96 -138 -147q-89 -52 -196 -52q-174 0 -262 109q-90 108 -90 301v610h184v-584q0 -297 228 -297q122 0 199 98q75 98 75 283v500h185v-944q0 -260 -116 -394q-115 -133 -339 -133
q-169 0 -285 90q-115 90 -139 259z" />
    <glyph glyph-name="eight.dnom" horiz-adv-x="749" 
d="M375 -20q-146 0 -235 65t-89 176q0 73 45 127q45 53 125 80q-141 52 -141 180q0 98 80 157q79 58 215 58q135 0 215 -58q80 -59 80 -157q0 -62 -37 -108t-105 -72q80 -27 125 -80q45 -54 45 -127q0 -112 -88 -176q-89 -65 -235 -65zM375 473q64 0 105 35q40 34 40 94
t-40 94q-40 33 -105 33t-105 -33q-41 -35 -41 -94t41 -94t105 -35zM375 80q75 0 121 40q47 39 47 107q0 73 -47 114q-46 40 -121 40t-121 -40q-47 -41 -47 -114q0 -68 47 -107q46 -40 121 -40z" />
    <glyph glyph-name="eight.numr" horiz-adv-x="749" 
d="M375 528q-146 0 -235 65t-89 177q0 73 45 127q45 53 125 80q-141 53 -141 180q0 98 80 157q79 58 215 58q135 0 215 -58q80 -59 80 -157q0 -62 -37 -108q-37 -47 -105 -72q80 -27 125 -80q45 -54 45 -127q0 -113 -88 -177q-89 -65 -235 -65zM375 1022q64 0 105 35
q40 34 40 94t-40 94q-40 33 -105 33t-105 -33q-41 -35 -41 -94t41 -94t105 -35zM375 629q75 0 121 40q47 39 47 107q0 73 -47 114q-46 40 -121 40t-121 -40q-47 -41 -47 -114q0 -68 47 -107q46 -40 121 -40z" />
    <glyph glyph-name="eight.tnum" horiz-adv-x="1208" 
d="M604 -33q-228 0 -368 108t-140 292q0 120 74 211q73 89 205 133q-109 39 -171 119q-61 79 -61 188q0 160 126 258q126 96 335 96t335 -96q126 -98 126 -258q0 -108 -60 -188q-62 -80 -171 -119q132 -44 205 -132q73 -89 73 -212q0 -184 -140 -292t-368 -108zM604 770
q123 0 197 62q73 61 73 176t-73 176t-197 61t-197 -61t-73 -176t73 -176q74 -62 197 -62zM604 100q140 0 223 70q84 70 84 205q0 128 -85 200q-86 72 -222 72t-222 -72q-85 -72 -85 -200q0 -135 84 -205q83 -70 223 -70z" />
    <glyph glyph-name="emdash.case" horiz-adv-x="2048" 
d="M2048 614h-2048v150h2048v-150z" />
    <glyph glyph-name="endash.case" horiz-adv-x="1024" 
d="M1024 614h-1024v150h1024v-150z" />
    <glyph glyph-name="exclamdown.case" horiz-adv-x="473" 
d="M238 1151q-53 0 -88 35t-35 86q0 52 35 87q34 34 88 34q53 0 87 -34q33 -35 33 -87t-34 -86q-35 -35 -86 -35zM168 999h137l31 -999h-197z" />
    <glyph glyph-name="five.dnom" horiz-adv-x="710" 
d="M205 342h-117l33 461h502v-119h-381l-17 -207q72 60 166 60q123 0 200 -75q75 -75 75 -198q0 -132 -85 -208t-229 -76q-125 0 -204 61q-81 60 -93 168h146q11 -59 51 -89t102 -30q72 0 116 44q42 43 42 124q0 79 -42 127q-44 47 -110 47q-102 0 -155 -90z" />
    <glyph glyph-name="five.numr" horiz-adv-x="710" 
d="M205 883h-117l33 460h502v-118h-381l-17 -207q71 59 166 59q123 0 200 -74q75 -75 75 -198q0 -133 -85 -209t-229 -76q-125 0 -204 61q-81 62 -93 169h146q11 -59 51 -89t102 -30q72 0 116 44q42 43 42 124q0 79 -42 127q-44 47 -110 47q-102 0 -155 -90z" />
    <glyph glyph-name="five.tnum" horiz-adv-x="1208" 
d="M332 571h-148l54 768h788v-151h-633l-31 -416q114 117 289 117q197 0 319 -126q120 -126 120 -327q0 -219 -133 -343q-133 -126 -361 -126q-195 0 -320 100q-127 100 -145 277h186q19 -116 96 -174q76 -59 193 -59q134 0 210 81q77 80 77 232q0 156 -76 242
q-77 86 -201 86q-95 0 -172 -47q-78 -49 -112 -134z" />
    <glyph glyph-name="four.dnom" horiz-adv-x="722" 
d="M432 166h-395v106l403 531h133v-522h119v-115h-119v-166h-141v166zM432 618l-260 -337h260v337z" />
    <glyph glyph-name="four.numr" horiz-adv-x="722" 
d="M432 707h-395v106l403 530h133v-522h119v-114h-119v-166h-141v166zM432 1159l-260 -338h260v338z" />
    <glyph glyph-name="four.tnum" horiz-adv-x="1208" 
d="M737 289h-655v141l663 909h170v-901h207v-149h-207v-289h-178v289zM737 1104l-481 -666h481v666z" />
    <glyph glyph-name="gravecomb.cap" 
d="M-301 1677l82 158l418 -252l-52 -100z" />
    <glyph glyph-name="gravecomb.narrow" 
d="M-229 1411l123 113l243 -303l-84 -72z" />
    <glyph glyph-name="guillemotleft.case" horiz-adv-x="1267" 
d="M616 285h-184l-293 401l293 401h180l-284 -399zM1151 285h-184l-293 401l293 401h180l-285 -399z" />
    <glyph glyph-name="guillemotright.case" horiz-adv-x="1226" 
d="M117 1087h184l293 -401l-293 -401h-180l285 397zM649 1087h185l292 -401l-292 -401h-181l285 397z" />
    <glyph glyph-name="guilsinglleft.case" horiz-adv-x="694" 
d="M578 285h-185l-293 401l293 401h180l-284 -399z" />
    <glyph glyph-name="guilsinglright.case" horiz-adv-x="694" 
d="M117 1087h184l293 -401l-293 -401h-180l285 397z" />
    <glyph glyph-name="hyphen.case" horiz-adv-x="784" 
d="M692 614h-600v150h600v-150z" />
    <glyph glyph-name="ijacute" horiz-adv-x="1163" 
d="M133 -102h180q18 -114 82 -169q62 -55 162 -55q129 0 200 86q70 86 70 258v181q-48 -96 -137 -147q-89 -52 -196 -52q-175 0 -263 109q-90 108 -90 301v610h185v-584q0 -297 227 -297q122 0 199 98q75 98 75 283v500h185v-944q0 -260 -116 -394q-115 -133 -339 -133
q-169 0 -285 90q-115 90 -139 259zM821 1159l-67 82l305 293l106 -125zM137 1159l-67 82l305 293l106 -125z" />
    <glyph glyph-name="nine.dnom" horiz-adv-x="722" 
d="M350 823q144 0 230 -101t86 -302q0 -193 -80 -318q-77 -122 -248 -122q-109 0 -182 56q-74 56 -90 159h151q11 -54 44 -82q35 -29 85 -29q158 0 170 287q-72 -90 -197 -90t-199 72q-75 71 -75 192q0 127 84 203q84 75 221 75zM352 721q-70 0 -114 -44q-43 -43 -43 -124
t42 -125q41 -45 111 -45q72 0 117 45t45 117q0 84 -43 130t-115 46z" />
    <glyph glyph-name="nine.numr" horiz-adv-x="722" 
d="M350 1372q144 0 230 -101t86 -302q0 -193 -80 -318q-76 -123 -248 -123q-109 0 -182 56q-74 56 -90 159h151q11 -54 44 -82q34 -28 85 -28q158 0 170 287q-72 -91 -197 -91t-199 72q-75 72 -75 193q0 126 84 203q84 75 221 75zM352 1270q-70 0 -114 -44q-43 -43 -43 -124
q0 -82 42 -125q41 -45 111 -45q72 0 117 45t45 117q0 84 -43 130t-115 46z" />
    <glyph glyph-name="nine.tnum" horiz-adv-x="1206" 
d="M588 1372q230 0 361 -164q130 -164 130 -503q0 -165 -30 -298q-32 -135 -92 -232q-61 -99 -161 -154q-99 -54 -229 -54q-169 0 -284 93q-116 92 -142 259h197q20 -107 83 -161t159 -54q296 0 311 549q-49 -87 -142 -133q-96 -47 -202 -47q-200 0 -318 121
q-120 122 -120 324q0 208 132 331t347 123zM592 1233q-139 0 -215 -79q-78 -80 -78 -230q0 -154 75 -233q75 -81 208 -81q132 0 215 83q82 82 82 216q0 150 -80 238q-80 86 -207 86z" />
    <glyph glyph-name="one.dnom" horiz-adv-x="540" 
d="M37 563v123q155 32 254 117h115v-803h-152v629q-123 -53 -217 -66z" />
    <glyph glyph-name="one.numr" horiz-adv-x="540" 
d="M37 1112v123q155 32 254 117h115v-803h-152v629q-123 -53 -217 -66z" />
    <glyph glyph-name="one.tnum" horiz-adv-x="1208" 
d="M260 981v156q110 25 223 78q112 53 189 124h145v-1339h-188v1106q-201 -100 -369 -125z" />
    <glyph glyph-name="parenleft.case" horiz-adv-x="608" 
d="M565 -154h-143q-289 371 -289 840q0 475 289 840h143q-126 -183 -189 -401q-63 -219 -63 -439q0 -218 63 -434q61 -217 189 -406z" />
    <glyph glyph-name="parenright.case" horiz-adv-x="608" 
d="M186 -154h-143q127 182 188 401q62 219 62 439q0 217 -62 435q-61 215 -188 405h143q289 -376 289 -840q0 -470 -289 -840z" />
    <glyph glyph-name="periodcentered.case" horiz-adv-x="552" 
d="M276 565q-52 0 -87 35t-35 86q0 54 34 88q34 33 88 33t88 -33q33 -34 33 -88q0 -51 -35 -86t-86 -35z" />
    <glyph glyph-name="periodcentered.loclCAT" horiz-adv-x="143" 
d="M74 575q-52 0 -89 35q-34 34 -34 86q0 54 34 88q36 33 89 33q54 0 88 -33q33 -34 33 -88q0 -51 -35 -86t-86 -35z" />
    <glyph glyph-name="periodcentered.loclCAT.cap" 
d="M-270 627q-54 0 -89 35q-34 34 -34 86q0 54 34 87q35 33 89 33t87 -33t33 -87q0 -51 -35 -86t-85 -35z" />
    <glyph glyph-name="questiondown.case" horiz-adv-x="929" 
d="M524 1151q-53 0 -88 35t-35 86q0 52 35 87q34 34 88 34q53 0 87 -34t34 -87q0 -51 -35 -86t-86 -35zM735 389h183q-10 -192 -133 -307q-122 -115 -326 -115q-191 0 -309 97q-119 98 -119 255q0 108 43 185q45 80 137 151l123 97q62 50 83 94t21 112v43h170v-59
q0 -92 -33 -155t-118 -130l-121 -98q-60 -49 -87 -105q-28 -55 -28 -130q0 -95 67 -155q66 -60 175 -60q119 0 191 72q71 72 81 208z" />
    <glyph glyph-name="seven.dnom" horiz-adv-x="632" 
d="M463 684h-443v119h586v-119q-142 -179 -221 -344q-76 -160 -96 -340h-152q28 188 106 352q76 157 220 332z" />
    <glyph glyph-name="seven.numr" horiz-adv-x="632" 
d="M463 1245h-443v119h586v-119q-142 -179 -221 -344q-76 -160 -96 -340h-152q28 188 106 352q76 157 220 332z" />
    <glyph glyph-name="seven.tnum" horiz-adv-x="1208" 
d="M893 1188h-746v151h922v-151q-225 -297 -360 -588q-127 -278 -168 -600h-195q52 334 180 609t367 579z" />
    <glyph glyph-name="six.dnom" horiz-adv-x="727" 
d="M379 -20q-156 0 -239 107t-83 308q0 185 78 307q76 121 254 121q109 0 182 -55q75 -56 91 -158h-152q-11 54 -45 82q-37 29 -86 29q-161 0 -172 -293q75 96 199 96q123 0 198 -72q74 -74 74 -196q0 -124 -82 -200t-217 -76zM373 84q73 0 115 44t42 122q0 86 -40 129
t-113 43t-118 -45q-46 -46 -46 -123t46 -123q45 -47 114 -47z" />
    <glyph glyph-name="six.numr" horiz-adv-x="727" 
d="M379 528q-156 0 -239 107t-83 309q0 186 78 307q76 121 254 121q109 0 182 -55q75 -56 91 -158h-152q-11 54 -45 82q-37 29 -86 29q-161 0 -172 -293q75 96 199 96q123 0 198 -72q74 -74 74 -196q0 -124 -82 -200q-83 -77 -217 -77zM373 633q73 0 115 44q42 43 42 122
q0 86 -40 129t-113 43t-118 -45q-46 -46 -46 -123t46 -123q45 -47 114 -47z" />
    <glyph glyph-name="six.tnum" horiz-adv-x="1208" 
d="M627 -33q-245 0 -372 174q-128 173 -128 510q0 129 18 239q18 109 58 199q39 91 99 152q59 62 145 97q84 34 194 34q170 0 288 -92q117 -94 142 -260h-197q-19 104 -85 161q-65 54 -160 54q-153 0 -231 -134q-77 -133 -85 -419q53 89 150 137q97 47 201 47
q197 0 317 -120q119 -122 119 -324q0 -208 -129 -331q-130 -124 -344 -124zM621 106q136 0 213 80t77 230q0 153 -74 233q-75 80 -210 80q-134 0 -215 -84q-82 -83 -82 -223q0 -149 80 -232q79 -84 211 -84z" />
    <glyph glyph-name="slash.case" horiz-adv-x="667" 
d="M178 -125h-168l482 1618h167z" />
    <glyph glyph-name="three.dnom" horiz-adv-x="722" 
d="M367 -20q-139 0 -225 68q-87 67 -99 194h143q10 -76 58 -116q47 -40 123 -40q73 0 114 37q41 36 41 102q0 152 -217 152h-22v98h22q114 0 157 34q42 33 42 87q0 58 -38 90q-37 31 -101 31q-66 0 -105 -33q-40 -35 -47 -94h-143q12 110 92 172q79 61 209 61q128 0 205 -59
q77 -60 77 -160q0 -131 -143 -178q82 -25 122 -77t40 -122q0 -114 -83 -180q-83 -67 -222 -67z" />
    <glyph glyph-name="three.numr" horiz-adv-x="722" 
d="M367 528q-139 0 -225 69q-87 67 -99 194h143q10 -76 58 -116q47 -40 123 -40q73 0 114 37q41 36 41 102q0 152 -217 152h-22v98h22q114 0 157 34q42 33 42 87q0 58 -38 90q-37 31 -101 31q-66 0 -105 -33q-40 -35 -47 -94h-143q12 110 92 172q79 61 209 61q128 0 205 -59
q77 -60 77 -160q0 -131 -143 -178q82 -25 122 -77t40 -122q0 -113 -83 -181q-83 -67 -222 -67z" />
    <glyph glyph-name="three.tnum" horiz-adv-x="1208" 
d="M602 -33q-223 0 -358 114q-135 113 -152 314h187q14 -144 101 -214q87 -72 224 -72q134 0 211 66q76 64 76 190q0 129 -91 205q-92 75 -294 75h-37v131h37q100 0 172 20q71 20 106 53q36 33 51 70q15 36 15 80q0 113 -68 173q-68 59 -184 59q-120 0 -193 -62
q-72 -63 -86 -176h-184q15 175 141 277t328 102q194 0 316 -96q122 -95 122 -264q0 -102 -56 -182q-57 -80 -183 -121q77 -21 132 -57q57 -38 87 -83q32 -47 45 -95q14 -51 14 -105q0 -184 -130 -293t-349 -109z" />
    <glyph glyph-name="tildecomb.cap" 
d="M-39 1608q-57 57 -102 57q-29 0 -58 -33q-27 -33 -39 -106h-127q12 123 72 198q60 74 150 74q85 0 182 -88q57 -57 102 -57q29 0 58 33q27 33 39 106h127q-12 -123 -72 -198q-60 -76 -150 -76q-83 0 -182 90z" />
    <glyph glyph-name="tildecomb.narrow" 
d="M-31 1280q-31 31 -49 43q-17 12 -35 12q-61 0 -75 -135h-107q10 117 57 188q46 70 119 70q69 0 152 -86q31 -31 49 -43q17 -12 35 -12q62 0 75 133h107q-10 -117 -56 -187q-47 -69 -120 -69q-69 0 -152 86z" />
    <glyph glyph-name="two.dnom" horiz-adv-x="731" 
d="M670 0h-596v25q0 98 45 170q43 72 141 135l135 88q61 40 87 80t26 90q0 60 -37 94q-37 33 -100 33q-70 0 -111 -44t-47 -128h-143q8 133 90 206q83 74 219 74q129 0 206 -63t77 -166q0 -80 -36 -138q-37 -60 -120 -112l-141 -92q-58 -37 -83 -66q-26 -32 -32 -67h420
v-119z" />
    <glyph glyph-name="two.numr" horiz-adv-x="731" 
d="M670 549h-596v24q0 97 45 171q43 72 141 135l135 88q61 40 87 80t26 90q0 60 -37 94q-37 33 -100 33q-70 0 -111 -44t-47 -128h-143q8 133 90 206q83 74 219 74q129 0 206 -63t77 -166q0 -79 -36 -138q-37 -60 -120 -112l-141 -92q-58 -37 -83 -66q-26 -32 -32 -67h420
v-119z" />
    <glyph glyph-name="two.tnum" horiz-adv-x="1208" 
d="M1083 0h-938v39q0 159 71 275q70 114 226 216l234 158q104 70 149 140q43 67 43 165q0 108 -68 173q-68 63 -186 63q-266 0 -290 -311h-187q12 212 143 334q130 120 345 120q196 0 317 -103t121 -270q0 -129 -61 -224q-62 -97 -197 -189l-240 -164q-111 -75 -155 -134
q-48 -63 -52 -136h725v-152z" />
    <glyph glyph-name="uni0302.cap" 
d="M-49 1847h100l307 -239l-63 -95l-295 189l-295 -189l-61 95z" />
    <glyph glyph-name="uni0302.narrow" 
d="M-45 1513h90l246 -305l-74 -73l-217 223l-215 -223l-74 73z" />
    <glyph glyph-name="uni0304.cap" 
d="M334 1563h-668v143h668v-143z" />
    <glyph glyph-name="uni0304.narrow" 
d="M260 1225h-520v131h520v-131z" />
    <glyph glyph-name="uni0306.cap" 
d="M-344 1550q-144 0 -241 85q-97 84 -103 204h131q10 -64 70 -111q59 -47 143 -47q86 0 144 47t65 111h133q-9 -122 -101 -205q-93 -84 -241 -84z" />
    <glyph glyph-name="uni0307.cap" 
d="M-123 1542q-54 0 -89 35q-34 34 -34 86q0 51 34 85t89 34t89 -34t34 -85q0 -52 -34 -86q-35 -35 -89 -35z" />
    <glyph glyph-name="uni0308.cap" 
d="M215 1546q-47 0 -79 32t-32 81t32 81t79 32q49 0 81 -32t32 -81q0 -51 -31 -82t-82 -31zM-215 1546q-51 0 -82 31t-31 82q0 49 32 81t81 32q47 0 79 -32t32 -81t-32 -81t-79 -32z" />
    <glyph glyph-name="uni0308.narrow" 
d="M-166 1184q-47 0 -78 31q-30 30 -30 77q0 46 30 78q31 31 78 31q46 0 77 -31q32 -32 32 -78q0 -45 -32 -77q-31 -31 -77 -31zM166 1184q-47 0 -78 31q-31 30 -31 77t31 78t78 31t78 -31q30 -32 30 -78q0 -47 -30 -77q-31 -31 -78 -31z" />
    <glyph glyph-name="uni030A.cap" 
d="M-244 1503q-106 0 -175 66t-69 170t68 169q68 64 176 64q110 0 178 -64q68 -65 68 -169t-68 -170q-69 -66 -178 -66zM-244 1606q58 0 95 36q36 34 36 97q0 59 -35 97q-36 36 -96 36t-96 -36q-35 -38 -35 -97q0 -63 35 -98q37 -35 96 -35z" />
    <glyph glyph-name="uni030B.cap" 
d="M-217 1489l-64 84l334 305l101 -127zM123 1489l-49 90l370 260l80 -139z" />
    <glyph glyph-name="uni030C.cap" 
d="M51 1540h-100l-307 240l61 94l295 -188l295 188l63 -94z" />
    <glyph glyph-name="uni0315.cap" 
d="M41 995h-86v377h156v-20q0 -82 -21 -191q-21 -110 -49 -166z" />
    <glyph glyph-name="uni0315.short" 
d="M33 1133h-86v301h143v-17q0 -146 -57 -284z" />
    <glyph glyph-name="uni0326.cap" 
d="M-135 -633v90q114 43 135 137q-45 0 -80 32q-33 32 -33 81q0 48 32 80q32 31 83 31q52 0 87 -41q34 -40 34 -109q0 -110 -66 -188q-67 -79 -192 -113z" />
    <glyph glyph-name="uni0327.cap" 
d="M-84 -225l29 227h100l-20 -125q24 6 51 6q85 0 139 -51q53 -51 53 -131q0 -98 -68 -155q-68 -56 -184 -56q-81 0 -153 21l8 100q66 -19 141 -19q59 0 96 29q35 29 35 76q0 42 -27 69t-73 27q-31 0 -72 -18h-55z" />
    <glyph glyph-name="uni0328.cap" 
d="M29 -496q-123 0 -188 58q-66 58 -66 155q0 90 49 158q49 69 160 125h170q-230 -78 -230 -246q0 -56 36 -91q35 -34 97 -34q57 0 121 21v-121q-78 -25 -149 -25z" />
    <glyph glyph-name="uni0328.round" 
d="M25 -487q-114 0 -179 56q-63 57 -63 150q0 190 215 306l145 30q-119 -79 -172 -147q-51 -68 -51 -152q0 -60 36 -96q38 -35 97 -35q57 0 111 19v-109q-72 -22 -139 -22z" />
    <glyph glyph-name="uni0328.round.cap" 
d="M25 -494q-115 0 -182 59q-66 60 -66 156q0 193 219 310l156 22q-121 -75 -175 -146q-51 -67 -51 -151q0 -56 35 -91q34 -34 92 -34q55 0 117 21v-121q-69 -25 -145 -25z" />
    <glyph glyph-name="uni2010.case" horiz-adv-x="784" 
d="M692 614h-600v150h600v-150z" />
    <glyph glyph-name="uni2011.case" horiz-adv-x="784" 
d="M692 614h-600v150h600v-150z" />
    <glyph glyph-name="zero.dnom" horiz-adv-x="747" 
d="M375 -20q-158 0 -237 112q-81 112 -81 309t81 310q79 112 237 112q157 0 236 -112t79 -310q0 -197 -79 -309t-236 -112zM375 90q164 0 164 311q0 312 -164 312t-164 -312q0 -156 40 -233q39 -78 124 -78z" />
    <glyph glyph-name="zero.numr" horiz-adv-x="747" 
d="M375 528q-158 0 -237 112q-81 112 -81 310t81 310q79 112 237 112q157 0 236 -112t79 -310t-79 -310t-236 -112zM375 639q164 0 164 311q0 312 -164 312t-164 -312q0 -156 40 -233q39 -78 124 -78z" />
    <glyph glyph-name="zero.tnum" horiz-adv-x="1208" 
d="M604 -33q-248 0 -374 188q-126 187 -126 515t126 515t374 187t374 -187t126 -515t-126 -515q-126 -188 -374 -188zM604 113q303 0 303 557t-303 557t-303 -557t303 -557z" />
    </font>
</defs>
</svg>
